LuxiSerif-BoldOblique.sfdir
StartChar: exclam
Encoding: 33 33 232
Width: 333
Flags: MW
HStem: 0 121<94 262 118 239> 703 20<239 383 383 383>
LayerCount: 2
Fore
SplineSet
94 0 m 1
 118 121 l 1
 262 121 l 1
 239 0 l 1
 94 0 l 1
185 205 m 1
 210 578 l 1
 239 723 l 1
 383 723 l 1
 354 578 l 1
 230 205 l 1
 185 205 l 1
EndSplineSet
EndChar
StartChar: quotedbl
Encoding: 34 34 255
Width: 555
Flags: W
LayerCount: 2
Fore
SplineSet
241 482 m 1
 251 771 l 1
 395 771 l 1
 289 482 l 1
 241 482 l 1
458 482 m 1
 468 771 l 1
 612 771 l 1
 506 482 l 1
 458 482 l 1
EndSplineSet
EndChar
StartChar: numbersign
Encoding: 35 35 257
Width: 500
Flags: MW
HStem: 0 20 211 60<77 135 53 162 77 197 224 314 403 473> 451 61<173 242 147 269 173 305 331 421 510 567> 703 20<365 427 427 427 544 606 606 606>
LayerCount: 2
Fore
SplineSet
38 0 m 1
 135 211 l 1
 53 211 l 1
 77 271 l 1
 162 271 l 1
 242 451 l 1
 147 451 l 1
 173 512 l 1
 269 512 l 1
 365 723 l 1
 427 723 l 1
 331 512 l 1
 448 512 l 1
 544 723 l 1
 606 723 l 1
 510 512 l 1
 591 512 l 1
 567 451 l 1
 483 451 l 1
 403 271 l 1
 496 271 l 1
 473 211 l 1
 376 211 l 1
 280 0 l 1
 218 0 l 1
 314 211 l 1
 197 211 l 1
 101 0 l 1
 38 0 l 1
224 271 m 1
 341 271 l 1
 421 451 l 1
 305 451 l 1
 224 271 l 1
EndSplineSet
EndChar
StartChar: dollar
Encoding: 36 36 214
Width: 500
Flags: MW
HStem: 0 20
VStem: 156 130<519.5 526.5> 381 130<175 214>
LayerCount: 2
Fore
SplineSet
42 36 m 1
 70 175 l 1
 136 175 l 1
 135 166 l 1
 130 136 l 2
 129 127 128 119 128 115 c 0
 128 77 162 57 238 50 c 1
 291 316 l 1
 255 347 l 2
 168 422 156 440 156 492 c 0
 156 561 188 626 247 673 c 0
 288 707 330 721 387 723 c 1
 403 801 l 1
 448 801 l 1
 433 723 l 1
 487 720 536 709 582 690 c 1
 555 554 l 1
 489 554 l 1
 490 563 l 1
 495 597 l 2
 496 604 496 609 496 615 c 0
 496 654 474 673 424 679 c 1
 374 428 l 1
 421 391 l 2
 483 342 511 295 511 238 c 0
 511 112 419 20 273 0 c 1
 257 -78 l 1
 212 -78 l 1
 228 0 l 1
 156 4 96 16 42 36 c 1
331 289 m 1
 283 53 l 1
 343 63 381 119 381 196 c 0
 381 232 366 259 331 289 c 1
331 457 m 1
 375 676 l 1
 323 663 286 604 286 534 c 0
 286 505 299 483 331 457 c 1
EndSplineSet
EndChar
StartChar: percent
Encoding: 37 37 278
Width: 1000
Flags: W
HStem: -18 20 0 46<730.5 763 730.5 800> 316 46<786.5 815.5> 360 46<326.5 359 326.5 396> 677 46<382.5 411.5> 721 20<910 1005 1005 1005>
VStem: 191 105<445.5 488.5 443.5 559> 444 105<599.5 635> 595 105<85 127.5 83 198.5> 848 105<239 275>
LayerCount: 2
Fore
SplineSet
138 -18 m 1x87c0
 910 741 l 1
 1005 741 l 1
 229 -18 l 1
 138 -18 l 1x87c0
408 723 m 0x1bc0
 503 723 549 681 549 594 c 0
 549 453 462 360 330 360 c 0
 236 360 191 402 191 489 c 0
 191 629 277 723 408 723 c 0x1bc0
396 677 m 0
 369 677 347 658 328 619 c 0
 310 580 296 514 296 463 c 0
 296 424 311 406 342 406 c 0
 376 406 402 431 418 479 c 0
 432 519 444 584 444 615 c 0
 444 655 427 677 396 677 c 0
812 362 m 0x63c0
 907 362 953 320 953 234 c 0
 953 92 866 0 734 0 c 0
 640 0 595 42 595 128 c 0
 595 269 682 362 812 362 c 0x63c0
800 316 m 0
 773 316 750 297 732 259 c 0
 714 219 700 153 700 102 c 0
 700 64 715 46 746 46 c 0
 780 46 806 71 822 119 c 0
 836 159 848 223 848 255 c 0
 848 295 831 316 800 316 c 0
EndSplineSet
EndChar
StartChar: ampersand
Encoding: 38 38 249
Width: 833
Flags: W
HStem: -18 66<339.5 366.5> 0 20 696 45<502 558>
VStem: 85 143<151.5 211.5> 289 144<572 610.5> 603 116<602 657>
LayerCount: 2
Fore
SplineSet
575 0 m 1x7c
 545 41 l 1
 475 0 409 -18 324 -18 c 0x9c
 173 -18 85 52 85 174 c 0
 85 249 114 310 173 357 c 0
 213 390 250 408 327 434 c 1
 299 490 289 522 289 554 c 0
 289 667 388 741 539 741 c 0
 658 741 719 700 719 618 c 0
 719 528 641 458 498 418 c 1
 536 343 575 270 611 209 c 2
 637 164 l 1
 683 222 704 272 704 325 c 0
 704 347 694 355 668 357 c 2
 651 358 l 1
 643 359 l 1
 651 404 l 1
 886 404 l 1
 877 359 l 1
 868 358 l 1
 847 357 l 2
 815 356 807 349 793 302 c 0
 777 247 733 189 663 130 c 1
 691 84 708 61 717 57 c 0
 728 52 749 48 785 46 c 2
 793 45 l 1
 785 0 l 1
 575 0 l 1x7c
514 75 m 1xbc
 456 172 404 269 344 394 c 1
 264 357 228 298 228 203 c 0
 228 100 284 48 395 48 c 0
 437 48 472 56 514 75 c 1xbc
479 453 m 1
 564 510 603 567 603 637 c 0
 603 677 581 696 535 696 c 0
 469 696 433 658 433 590 c 0
 433 554 445 517 479 453 c 1
EndSplineSet
EndChar
StartChar: quotesingle
Encoding: 39 39 254
Width: 278
Flags: W
LayerCount: 2
Fore
SplineSet
209 470 m 1
 215 771 l 1
 372 771 l 1
 257 470 l 1
 209 470 l 1
EndSplineSet
EndChar
StartChar: parenleft
Encoding: 40 40 245
Width: 333
Flags: MW
VStem: 92 129<126 154 41 271.5>
LayerCount: 2
Fore
SplineSet
279 -105 m 1
 270 -150 l 1
 154 -77 92 46 92 206 c 0
 92 337 139 468 229 587 c 0
 293 672 360 728 456 777 c 1
 446 732 l 1
 386 684 353 640 322 567 c 0
 264 428 221 224 221 84 c 0
 221 -2 237 -56 279 -105 c 1
EndSplineSet
EndChar
StartChar: parenright
Encoding: 41 41 246
Width: 333
Flags: MW
VStem: 244 129<472.5 500 355 586>
LayerCount: 2
Fore
SplineSet
186 732 m 1
 195 777 l 1
 311 703 373 580 373 420 c 0
 373 290 326 159 236 39 c 0
 173 -45 106 -101 9 -150 c 1
 18 -105 l 1
 79 -58 111 -14 143 60 c 0
 201 198 244 402 244 543 c 0
 244 629 227 682 186 732 c 1
EndSplineSet
EndChar
StartChar: asterisk
Encoding: 42 42 253
Width: 500
Flags: MW
HStem: 703 20<341 449 449 449>
LayerCount: 2
Fore
SplineSet
339 488 m 1
 255 355 l 1
 182 418 l 1
 309 514 l 1
 316 499 326 491 339 488 c 1
308 529 m 1
 167 543 l 1
 222 647 l 1
 330 572 l 1
 315 559 308 545 308 529 c 1
344 581 m 1
 341 723 l 1
 449 723 l 1
 389 581 l 1
 382 584 374 586 368 586 c 0
 362 586 352 584 344 581 c 1
398 571 m 1
 538 646 l 1
 550 542 l 1
 404 529 l 1
 406 535 407 540 407 544 c 0
 407 553 404 562 398 571 c 1
396 514 m 1
 484 418 l 1
 385 355 l 1
 355 488 l 1
 369 491 383 500 396 514 c 1
EndSplineSet
EndChar
StartChar: plus
Encoding: 43 43 259
Width: 570
Flags: MW
HStem: 253 72<110 300 95 314 110 372 387 577>
LayerCount: 2
Fore
SplineSet
259 48 m 1
 300 253 l 1
 95 253 l 1
 110 325 l 1
 314 325 l 1
 355 530 l 1
 428 530 l 1
 387 325 l 1
 592 325 l 1
 577 253 l 1
 372 253 l 1
 331 48 l 1
 259 48 l 1
EndSplineSet
EndChar
StartChar: comma
Encoding: 44 44 226
Width: 250
Flags: MW
HStem: 0 20
LayerCount: 2
Fore
SplineSet
18 -144 m 1
 27 -99 l 1
 69 -99 96 -66 107 0 c 1
 47 0 l 1
 78 157 l 1
 235 157 l 1
 210 36 l 2
 187 -77 125 -135 18 -144 c 1
EndSplineSet
EndChar
StartChar: hyphen
Encoding: 45 45 241
Width: 333
Flags: MW
HStem: 253 72<75 374 89 360>
LayerCount: 2
Fore
SplineSet
75 253 m 1
 89 325 l 1
 374 325 l 1
 360 253 l 1
 75 253 l 1
EndSplineSet
EndChar
StartChar: period
Encoding: 46 46 222
Width: 250
Flags: MW
HStem: 0 157<47 235 78 204>
LayerCount: 2
Fore
SplineSet
47 0 m 1
 78 157 l 1
 235 157 l 1
 204 0 l 1
 47 0 l 1
EndSplineSet
EndChar
StartChar: zero
Encoding: 48 48 212
Width: 500
Flags: MW
HStem: -18 20 721 20<358 452.5>
LayerCount: 2
Fore
SplineSet
250 361 m 2
 227 235 l 2
 217 179 211 129 211 91 c 0
 211 48 226 27 257 27 c 0
 290 27 310 49 331 107 c 0
 378 236 434 521 434 631 c 0
 434 675 419 696 388 696 c 0
 354 696 332 671 310 605 c 0
 289 546 271 472 250 361 c 2
397 741 m 0
 508 741 564 665 564 515 c 0
 564 409 538 287 495 190 c 0
 435 53 348 -18 241 -18 c 0
 133 -18 81 57 81 212 c 0
 81 366 122 511 197 618 c 0
 255 701 319 741 397 741 c 0
EndSplineSet
EndChar
StartChar: one
Encoding: 49 49 203
Width: 500
Flags: MW
HStem: 0 20 709 20<475 475>
LayerCount: 2
Fore
SplineSet
58 0 m 1
 67 45 l 1
 76 46 l 1
 133 51 l 2
 189 54 191 56 213 142 c 1
 293 545 l 1
 300 595 l 1
 304 612 l 1
 301 623 292 628 276 628 c 0
 269 628 243 624 218 620 c 2
 181 613 l 1
 190 661 l 1
 475 729 l 1
 357 142 l 2
 352 117 349 90 349 76 c 0
 349 57 358 53 404 50 c 2
 456 46 l 1
 465 45 l 1
 455 0 l 1
 58 0 l 1
EndSplineSet
EndChar
StartChar: two
Encoding: 50 50 204
Width: 500
Flags: MW
HStem: 0 121<183 465> 694 48<362.5 370.5>
VStem: 430 153<559 630.5>
LayerCount: 2
Fore
SplineSet
19 0 m 1
 29 48 l 1
 61 106 103 161 156 211 c 2
 215 267 l 1
 248 298 l 1
 329 377 l 2
 393 440 430 520 430 598 c 0
 430 663 401 694 340 694 c 0
 279 694 240 666 229 616 c 2
 220 576 l 1
 218 567 l 1
 151 567 l 1
 178 702 l 1
 263 730 328 742 397 742 c 0
 521 742 583 693 583 596 c 0
 583 498 541 442 396 346 c 0
 358 321 329 300 315 288 c 2
 273 251 l 2
 224 209 195 166 183 121 c 1
 490 121 l 1
 465 0 l 1
 19 0 l 1
EndSplineSet
EndChar
StartChar: three
Encoding: 51 51 205
Width: 500
Flags: W
HStem: -18 45<180.5 247.5 176 258> 697 45<342.5 363>
VStem: 366 148<193.5 271.5 193.5 276.5> 420 145<553.5 634>
LayerCount: 2
Fore
SplineSet
38 8 m 1xe0
 65 144 l 1
 132 144 l 1
 130 136 l 1
 126 104 l 2
 125 97 124 86 124 80 c 0
 124 45 151 27 201 27 c 0
 294 27 366 118 366 234 c 0xe0
 366 319 319 361 224 361 c 2
 175 361 l 1
 184 406 l 1
 226 406 l 2
 345 406 420 481 420 602 c 0
 420 666 392 697 334 697 c 0
 283 697 249 673 239 628 c 2
 228 584 l 1
 226 575 l 1
 156 575 l 1
 183 709 l 1
 258 732 314 742 371 742 c 0
 500 742 565 695 565 602 c 0xd0
 565 505 491 427 364 389 c 1
 469 363 514 315 514 228 c 0
 514 159 485 100 429 53 c 0
 371 4 303 -18 213 -18 c 0
 148 -18 91 -10 38 8 c 1xe0
EndSplineSet
EndChar
StartChar: four
Encoding: 52 52 206
Width: 500
Flags: MW
HStem: 0 20 196 103<51 348 145 328 145 448 469 521> 712 20<449 556 556 556>
LayerCount: 2
Fore
SplineSet
51 196 m 1
 67 278 l 1
 449 732 l 1
 556 732 l 1
 469 299 l 1
 541 299 l 1
 521 196 l 1
 448 196 l 1
 438 142 l 1
 431 93 l 1
 427 76 l 1
 429 58 445 48 476 46 c 2
 485 45 l 1
 476 0 l 1
 211 0 l 1
 219 45 l 1
 229 46 l 2
 293 51 294 51 305 93 c 2
 317 142 l 1
 328 196 l 1
 51 196 l 1
145 299 m 1
 348 299 l 1
 412 617 l 1
 145 299 l 1
EndSplineSet
EndChar
StartChar: five
Encoding: 53 53 207
Width: 500
Flags: MW
HStem: -18 45<181.5 240 181 283> 612 111<252 563 252 252>
VStem: 346 154<190 297.5>
LayerCount: 2
Fore
SplineSet
58 5 m 1
 84 139 l 1
 151 139 l 1
 150 130 l 1
 146 100 l 2
 142 81 141 71 141 67 c 0
 141 42 162 27 200 27 c 0
 280 27 346 128 346 252 c 0
 346 343 300 388 203 388 c 0
 189 388 169 387 147 384 c 1
 215 723 l 1
 585 723 l 1
 563 612 l 1
 252 612 l 1
 204 434 l 1
 242 434 l 2
 411 436 500 372 500 247 c 0
 500 101 366 -18 200 -18 c 0
 163 -18 121 -11 58 5 c 1
EndSplineSet
EndChar
StartChar: six
Encoding: 54 54 208
Width: 500
Flags: MW
HStem: -18 45<250.5 290.5> 696 45<407 467.5>
VStem: 79 136<141 206 100 262> 387 147<268 344.5>
LayerCount: 2
Fore
SplineSet
586 712 m 1
 560 582 l 1
 494 582 l 1
 495 591 l 1
 495 591 496 595 496 602 c 0
 496 603 497 607 498 611 c 2
 498 617 l 2
 499 621 499 622 499 624 c 2
 501 630 l 2
 503 640 504 654 504 661 c 0
 504 683 485 696 450 696 c 0
 364 696 291 579 253 383 c 1
 305 442 347 466 402 466 c 0
 489 466 534 413 534 311 c 0
 534 225 505 148 449 82 c 0
 392 16 327 -18 254 -18 c 0
 145 -18 79 69 79 213 c 0
 79 311 108 428 155 522 c 0
 228 665 334 741 459 741 c 0
 509 741 549 732 586 712 c 1
339 405 m 0
 274 405 215 276 215 136 c 0
 215 64 233 27 268 27 c 0
 328 27 387 168 387 314 c 0
 387 375 371 405 339 405 c 0
EndSplineSet
EndChar
StartChar: seven
Encoding: 55 55 209
Width: 500
Flags: MW
HStem: 0 20 603 120<185 513 161 622>
LayerCount: 2
Fore
SplineSet
229 0 m 1
 72 0 l 1
 130 150 180 221 439 518 c 2
 513 603 l 1
 161 603 l 1
 185 723 l 1
 622 723 l 1
 603 631 l 1
 412 438 289 231 229 0 c 1
EndSplineSet
EndChar
StartChar: eight
Encoding: 56 56 210
Width: 500
Flags: W
HStem: -18 45<247 304 247 321.5> 697 45<368.5 411>
VStem: 59 136<89.5 160.5 89.5 180> 177 128<548.5 590> 385 135<148 189.5> 445 122<593 652>
LayerCount: 2
Fore
SplineSet
254 379 m 1xe8
 238 397 l 2
 195 443 177 483 177 529 c 0
 177 651 278 742 414 742 c 0
 515 742 567 699 567 615 c 0xd4
 567 528 515 465 394 404 c 1
 397 402 398 400 403 395 c 0
 409 388 411 387 416 381 c 0
 501 295 520 264 520 211 c 0
 520 85 397 -18 246 -18 c 0
 130 -18 59 37 59 129 c 0
 59 231 119 307 254 379 c 1xe8
352 454 m 2
 366 435 l 1
 420 496 445 557 445 629 c 0
 445 675 428 697 394 697 c 0
 343 697 305 640 305 565 c 0
 305 532 321 495 352 454 c 2
284 353 m 1xe8
 277 344 l 2
 225 281 195 200 195 121 c 0
 195 58 221 27 273 27 c 0
 335 27 385 92 385 174 c 0
 385 205 373 236 349 267 c 2
 309 318 l 1
 284 353 l 1xe8
EndSplineSet
EndChar
StartChar: nine
Encoding: 57 57 211
Width: 500
Flags: MW
HStem: -18 45<179 239 179 250> 696 45<348.5 396>
VStem: 113 147<378.5 482 378.5 499.5> 431 136<517.5 582 461 623.5>
LayerCount: 2
Fore
SplineSet
60 11 m 1
 86 142 l 1
 152 142 l 1
 151 132 l 2
 149 117 147 106 146 99 c 0
 144 86 142 70 142 62 c 0
 142 40 162 27 196 27 c 0
 282 27 355 142 393 340 c 1
 341 281 299 257 244 257 c 0
 158 257 113 310 113 412 c 0
 113 587 244 741 393 741 c 0
 501 741 567 654 567 510 c 0
 567 412 538 296 491 201 c 0
 419 58 313 -18 187 -18 c 0
 137 -18 97 -9 60 11 c 1
379 696 m 0
 318 696 260 555 260 409 c 0
 260 348 276 318 308 318 c 0
 372 318 431 447 431 588 c 0
 431 659 413 696 379 696 c 0
EndSplineSet
EndChar
StartChar: colon
Encoding: 58 58 223
Width: 333
Flags: MW
HStem: 0 145<94 267 123 239> 391 145<172 346 201 317>
LayerCount: 2
Fore
SplineSet
94 0 m 1
 123 145 l 1
 267 145 l 1
 239 0 l 1
 94 0 l 1
172 391 m 1
 201 536 l 1
 346 536 l 1
 317 391 l 1
 172 391 l 1
EndSplineSet
EndChar
StartChar: semicolon
Encoding: 59 59 227
Width: 333
Flags: MW
HStem: 0 20 391 145<172 346 201 316>
LayerCount: 2
Fore
SplineSet
65 -144 m 1
 74 -99 l 1
 119 -93 143 -59 148 0 c 1
 94 0 l 1
 123 145 l 1
 267 145 l 1
 246 39 l 2
 224 -70 164 -130 65 -144 c 1
172 391 m 1
 201 536 l 1
 346 536 l 1
 316 391 l 1
 172 391 l 1
EndSplineSet
EndChar
StartChar: less
Encoding: 60 60 300
Width: 570
Flags: W
LayerCount: 2
Fore
SplineSet
536 48 m 1
 102 289 l 1
 632 530 l 1
 616 449 l 1
 265 289 l 1
 265 288 l 1
 552 129 l 1
 536 48 l 1
EndSplineSet
EndChar
StartChar: equal
Encoding: 61 61 263
Width: 570
Flags: MW
HStem: 163 72<77 573 91 559> 344 72<113 609 127 595>
LayerCount: 2
Fore
SplineSet
77 163 m 1
 91 235 l 1
 573 235 l 1
 559 163 l 1
 77 163 l 1
113 344 m 1
 127 416 l 1
 609 416 l 1
 595 344 l 1
 113 344 l 1
EndSplineSet
EndChar
StartChar: greater
Encoding: 62 62 301
Width: 570
Flags: W
LayerCount: 2
Fore
SplineSet
150 530 m 1
 584 289 l 1
 54 48 l 1
 70 129 l 1
 421 288 l 1
 422 289 l 1
 134 449 l 1
 150 530 l 1
EndSplineSet
EndChar
StartChar: question
Encoding: 63 63 234
Width: 500
Flags: MW
HStem: 0 121<136 305 160 281> 697 45<337.5 366.5>
VStem: 432 157<580.5 625.5>
LayerCount: 2
Fore
SplineSet
136 0 m 1
 160 121 l 1
 305 121 l 1
 281 0 l 1
 136 0 l 1
177 205 m 1
 179 213 l 2
 191 269 224 315 282 358 c 2
 319 385 l 2
 394 440 432 509 432 589 c 0
 432 662 400 697 333 697 c 0
 271 697 234 672 223 623 c 2
 215 585 l 1
 212 576 l 1
 146 576 l 1
 173 710 l 1
 242 732 303 742 372 742 c 0
 507 742 589 690 589 606 c 0
 589 555 561 509 508 469 c 0
 503 465 485 453 453 432 c 0
 444 426 438 422 433 419 c 2
 407 400 l 2
 373 375 351 334 337 271 c 2
 324 215 l 1
 322 205 l 1
 177 205 l 1
EndSplineSet
EndChar
StartChar: at
Encoding: 64 64 256
Width: 930
Flags: MW
HStem: -18 45<334.5 427 334.5 427> 144 56<613 716.5> 529 43<590 609> 696 45<620 750>
VStem: 136 45<168 273.5 168 277> 308 92<243.5 251> 916 46<454 548.5>
LayerCount: 2
Fore
SplineSet
575 65 m 1
 582 22 l 1
 509 -6 455 -18 399 -18 c 0
 238 -18 136 78 136 228 c 0
 136 326 182 428 274 533 c 0
 388 664 544 741 696 741 c 0
 853 741 962 640 962 495 c 0
 962 406 928 325 861 253 c 0
 794 180 719 144 636 144 c 0
 590 144 566 158 566 184 c 0
 566 205 580 240 616 307 c 1
 598 307 l 1
 500 193 432 144 373 144 c 0
 330 144 308 170 308 220 c 0
 308 282 336 348 392 422 c 0
 467 521 549 572 631 572 c 0
 653 572 675 567 707 556 c 2
 710 555 l 1
 712 554 l 1
 715 553 l 1
 717 553 l 1
 780 553 l 1
 678 298 l 2
 666 268 659 242 659 227 c 0
 659 209 670 200 692 200 c 0
 741 200 792 232 841 295 c 0
 891 359 916 422 916 486 c 0
 916 611 820 696 680 696 c 0
 541 696 414 632 306 507 c 0
 223 411 181 318 181 229 c 0
 181 107 268 27 401 27 c 0
 453 27 505 38 575 65 c 1
626 386 m 1
 673 499 l 1
 649 519 624 529 594 529 c 0
 548 529 508 499 466 434 c 0
 423 367 400 305 400 256 c 0
 400 231 411 217 431 217 c 0
 475 217 534 268 626 386 c 1
EndSplineSet
EndChar
StartChar: B
Encoding: 66 66 134
Width: 667
Flags: W
HStem: 0 20 703 20<166 531 531 591.5>
VStem: 515 152<183 258 183 261> 559 153<562 610.5>
LayerCount: 2
Fore
SplineSet
21 0 m 1xe0
 30 45 l 1
 39 46 l 2
 103 50 104 51 115 93 c 2
 127 142 l 1
 215 582 l 1
 223 630 l 1
 226 646 l 1
 225 664 204 675 166 678 c 2
 157 678 l 1
 166 723 l 1
 531 723 l 2
 652 723 712 679 712 590 c 0xd0
 712 534 686 484 635 444 c 0
 600 416 567 399 500 375 c 1
 617 348 667 300 667 216 c 0
 667 150 631 84 571 43 c 0
 528 13 474 0 388 0 c 2
 21 0 l 1xe0
313 346 m 1xe0
 272 141 l 2
 267 117 265 101 265 90 c 0
 265 62 281 54 335 54 c 0
 444 54 515 121 515 223 c 0
 515 299 460 346 372 346 c 2
 313 346 l 1xe0
323 395 m 1xd0
 381 395 l 2
 485 395 559 471 559 578 c 0
 559 643 519 675 438 675 c 2
 379 675 l 1
 323 395 l 1xd0
EndSplineSet
EndChar
StartChar: C
Encoding: 67 67 135
Width: 722
Flags: MW
HStem: -18 61<403 477> 693 48<510 604.5>
VStem: 103 157<176.5 281.5 176.5 327>
LayerCount: 2
Fore
SplineSet
704 96 m 1
 690 28 l 1
 601 -4 523 -18 431 -18 c 0
 212 -18 103 77 103 269 c 0
 103 385 142 496 214 585 c 0
 300 690 419 741 582 741 c 0
 658 741 728 731 813 709 c 1
 784 560 l 1
 699 560 l 1
 701 569 l 1
 705 598 l 2
 707 611 708 619 708 623 c 0
 708 661 643 693 566 693 c 0
 454 693 366 625 313 497 c 0
 281 419 260 320 260 243 c 0
 260 110 332 43 474 43 c 0
 542 43 611 59 704 96 c 1
EndSplineSet
EndChar
StartChar: D
Encoding: 68 68 136
Width: 722
Flags: W
HStem: 0 20 703 20<166 377 377 414 414 414> 705 20<495 500 500 589>
VStem: 613 158<428 546.5>
LayerCount: 2
Fore
SplineSet
21 0 m 1xb0
 30 45 l 1
 39 46 l 2
 78 49 83 54 92 93 c 2
 102 142 l 1
 190 582 l 1
 199 630 l 2
 201 644 202 648 202 652 c 0
 202 667 189 676 166 678 c 2
 156 678 l 1
 166 723 l 1
 377 723 l 1
 414 723 l 1xd0
 459 724 l 1
 495 725 l 1
 500 725 l 2
 678 725 771 637 771 467 c 0
 771 366 740 268 680 180 c 0
 598 59 487 0 343 0 c 2
 21 0 l 1xb0
359 675 m 1
 252 142 l 2
 248 124 246 104 246 91 c 0
 246 61 268 51 333 51 c 0
 414 51 480 95 535 187 c 0
 585 271 613 376 613 480 c 0
 613 613 542 675 390 675 c 2
 359 675 l 1
EndSplineSet
EndChar
StartChar: F
Encoding: 70 70 138
Width: 611
Flags: MW
HStem: 0 20 340 42<333 434 324 442> 675 48<391 552 391 391>
LayerCount: 2
Fore
SplineSet
27 0 m 1
 36 45 l 1
 46 46 l 2
 109 50 110 51 122 93 c 2
 134 141 l 1
 222 581 l 1
 229 629 l 1
 232 646 l 1
 231 664 211 675 172 677 c 2
 163 678 l 1
 172 723 l 1
 720 723 l 1
 693 587 l 1
 609 587 l 1
 610 596 l 2
 611 612 614 628 614 628 c 2
 617 637 619 644 619 646 c 0
 619 665 595 675 552 675 c 2
 391 675 l 1
 333 382 l 1
 442 382 l 1
 490 383 l 2
 513 383 516 385 520 402 c 2
 522 407 l 1
 522 408 l 2
 523 411 525 419 528 430 c 2
 530 440 l 1
 593 440 l 1
 562 283 l 1
 499 283 l 1
 500 292 l 1
 500 292 500 294 501 296 c 0
 503 308 504 319 504 326 c 0
 504 334 498 337 479 338 c 2
 434 340 l 1
 324 340 l 1
 284 141 l 2
 279 116 276 90 276 75 c 0
 276 57 286 50 314 48 c 2
 346 46 l 1
 356 45 l 1
 346 0 l 1
 27 0 l 1
EndSplineSet
EndChar
StartChar: G
Encoding: 71 71 139
Width: 778
Flags: MW
HStem: -18 48<395.5 464> 693 48<524.5 616.5>
VStem: 103 155<172.5 266 160.5 344>
LayerCount: 2
Fore
SplineSet
832 318 m 1
 824 273 l 1
 814 272 l 2
 751 268 750 267 738 225 c 2
 726 177 l 1
 693 15 l 1
 585 -8 502 -18 426 -18 c 0
 211 -18 103 77 103 268 c 0
 103 420 173 569 286 656 c 0
 362 715 457 741 592 741 c 0
 675 741 746 732 832 709 c 1
 803 566 l 1
 719 566 l 1
 721 575 l 1
 725 602 l 2
 726 612 727 621 727 624 c 0
 727 664 662 693 571 693 c 0
 451 693 363 626 311 496 c 0
 279 414 258 307 258 225 c 0
 258 96 327 30 464 30 c 0
 494 30 518 34 549 43 c 1
 575 177 l 1
 582 225 l 1
 586 241 l 1
 584 259 564 270 525 272 c 2
 517 273 l 1
 525 318 l 1
 832 318 l 1
EndSplineSet
EndChar
StartChar: H
Encoding: 72 72 140
Width: 778
Flags: MW
HStem: 0 20 355 51<331 599 321 609> 703 20<166 473 473 473 595 902 902 902>
LayerCount: 2
Fore
SplineSet
21 0 m 1
 30 45 l 1
 39 46 l 2
 103 51 104 51 115 93 c 2
 127 142 l 1
 215 582 l 1
 223 630 l 1
 226 646 l 1
 225 664 204 675 166 678 c 2
 157 678 l 1
 166 723 l 1
 473 723 l 1
 464 678 l 1
 455 678 l 2
 417 675 396 670 393 665 c 0
 387 659 383 647 378 630 c 2
 366 582 l 1
 331 406 l 1
 609 406 l 1
 645 582 l 1
 652 630 l 1
 655 646 l 1
 654 664 633 675 594 678 c 2
 585 678 l 1
 595 723 l 1
 902 723 l 1
 893 678 l 1
 884 678 l 2
 846 675 824 670 821 665 c 0
 816 658 812 648 808 630 c 2
 795 582 l 1
 707 142 l 1
 700 93 l 1
 697 77 l 1
 698 59 719 49 757 46 c 2
 766 45 l 1
 757 0 l 1
 450 0 l 1
 459 45 l 1
 468 46 l 2
 532 51 533 51 544 93 c 2
 557 142 l 1
 599 355 l 1
 321 355 l 1
 278 142 l 1
 271 93 l 1
 268 77 l 1
 269 59 290 49 328 46 c 2
 337 45 l 1
 328 0 l 1
 21 0 l 1
EndSplineSet
EndChar
StartChar: J
Encoding: 74 74 142
Width: 500
Flags: MW
HStem: -145 48<122.5 174.5 122.5 217.5> 0 20 703 20<310 618 618 618>
LayerCount: 2
Fore
SplineSet
-27 -121 m 1
 1 21 l 1
 92 21 l 1
 88 0 l 1
 84 -27 l 2
 83 -32 82 -48 82 -52 c 0
 82 -81 103 -97 142 -97 c 0
 207 -97 232 -61 257 62 c 2
 360 582 l 1
 368 630 l 1
 371 646 l 1
 369 664 349 675 310 678 c 2
 302 678 l 1
 310 723 l 1
 618 723 l 1
 609 678 l 1
 599 678 l 2
 562 675 540 670 538 664 c 0
 532 658 528 648 523 630 c 2
 511 582 l 1
 417 112 l 2
 381 -68 298 -145 137 -145 c 0
 90 -145 39 -137 -27 -121 c 1
EndSplineSet
EndChar
StartChar: K
Encoding: 75 75 143
Width: 778
Flags: MW
HStem: 0 20 703 20<166 455 455 455 651 871 871 871>
LayerCount: 2
Fore
SplineSet
21 0 m 1
 30 45 l 1
 39 46 l 2
 103 50 104 51 115 93 c 2
 127 142 l 1
 215 582 l 1
 223 630 l 1
 226 646 l 1
 225 664 204 675 166 678 c 2
 157 678 l 1
 166 723 l 1
 455 723 l 1
 446 678 l 1
 437 678 l 1
 385 673 382 671 372 630 c 2
 360 582 l 1
 322 389 l 1
 600 582 l 2
 663 625 697 655 697 666 c 0
 697 673 691 676 672 677 c 2
 650 678 l 1
 642 678 l 1
 651 723 l 1
 871 723 l 1
 862 678 l 1
 853 678 l 1
 833 677 l 2
 800 673 792 668 706 604 c 0
 696 597 677 584 673 581 c 2
 444 424 l 1
 662 140 l 1
 709 82 l 2
 727 60 750 48 778 46 c 2
 787 45 l 1
 778 0 l 1
 429 0 l 1
 438 45 l 1
 447 45 l 1
 469 46 l 2
 499 46 513 53 513 67 c 0
 513 81 500 104 471 142 c 2
 313 348 l 1
 272 142 l 1
 265 93 l 1
 262 76 l 1
 264 58 280 48 310 46 c 2
 319 45 l 1
 310 0 l 1
 21 0 l 1
EndSplineSet
EndChar
StartChar: M
Encoding: 77 77 145
Width: 944
Flags: MW
HStem: 0 20 703 20<172 415 415 415 854 1061 1061 1061>
LayerCount: 2
Fore
SplineSet
27 0 m 1
 36 45 l 1
 45 46 l 2
 109 50 110 51 121 93 c 2
 133 142 l 1
 221 582 l 1
 229 630 l 1
 232 646 l 1
 231 664 210 675 172 678 c 2
 162 678 l 1
 172 723 l 1
 415 723 l 1
 532 255 l 1
 854 723 l 1
 1061 723 l 1
 1052 678 l 1
 1043 678 l 2
 1005 675 984 670 981 665 c 0
 975 658 971 648 966 630 c 2
 954 582 l 1
 866 142 l 1
 860 93 l 1
 856 77 l 1
 857 59 878 48 916 46 c 2
 925 45 l 1
 916 0 l 1
 633 0 l 1
 642 45 l 1
 652 46 l 2
 703 50 706 52 716 93 c 2
 728 142 l 1
 814 571 l 1
 476 81 l 1
 428 81 l 1
 298 601 l 1
 206 142 l 1
 198 93 l 1
 194 74 l 1
 194 74 195 72 196 66 c 0
 200 55 217 47 244 46 c 2
 253 45 l 1
 244 0 l 1
 27 0 l 1
EndSplineSet
EndChar
StartChar: N
Encoding: 78 78 146
Width: 722
Flags: W
HStem: -10 20 0 20 703 20<166 354 354 354 602 829 829 829>
LayerCount: 2
Fore
SplineSet
21 0 m 1x40
 30 45 l 1
 39 46 l 2
 103 50 104 51 115 93 c 2
 127 142 l 1
 215 582 l 1
 223 630 l 1
 226 646 l 1
 225 664 204 675 166 678 c 2
 157 678 l 1
 166 723 l 1
 354 723 l 1
 572 186 l 1
 651 582 l 1
 659 630 l 1
 662 647 l 2
 661 664 640 675 602 678 c 2
 592 678 l 1
 602 723 l 1
 829 723 l 1
 820 678 l 1
 811 678 l 2
 775 675 752 670 750 665 c 0
 744 658 740 647 735 630 c 2
 723 582 l 1
 605 -10 l 1
 499 -10 l 1xa0
 276 528 l 1
 199 142 l 1
 192 93 l 1
 189 77 l 1
 190 59 210 48 250 46 c 2
 258 45 l 1
 249 0 l 1
 21 0 l 1x40
EndSplineSet
EndChar
StartChar: P
Encoding: 80 80 148
Width: 611
Flags: MW
HStem: 0 20 703 20<166 389 389 389>
VStem: 549 154<550 602.5 550 607.5>
LayerCount: 2
Fore
SplineSet
21 0 m 1
 30 45 l 1
 39 46 l 2
 103 50 104 51 115 93 c 2
 127 142 l 1
 215 582 l 1
 223 630 l 1
 226 646 l 1
 225 664 204 675 166 678 c 2
 157 678 l 1
 166 723 l 1
 389 723 l 1
 433 724 l 1
 482 725 l 1
 523 726 l 1
 530 727 l 2
 579 732 644 709 671 679 c 0
 693 655 703 623 703 582 c 0
 703 518 679 454 636 403 c 0
 575 331 481 297 348 297 c 2
 303 297 l 1
 272 142 l 2
 268 120 264 89 264 75 c 0
 264 57 274 50 302 48 c 2
 334 46 l 1
 343 45 l 1
 334 0 l 1
 21 0 l 1
313 344 m 1
 341 344 l 2
 464 344 549 438 549 573 c 0
 549 642 511 675 431 675 c 2
 379 675 l 1
 313 344 l 1
EndSplineSet
EndChar
StartChar: Q
Encoding: 81 81 149
Width: 778
Flags: MW
HStem: -18 48<349.5 395.5> 693 48<490.5 577>
VStem: 101 155<176 285.5 160.5 330> 673 155<430 548.5 402 561>
LayerCount: 2
Fore
SplineSet
794 -55 m 1
 682 -148 l 1
 620 -124 554 -83 483 -24 c 2
 468 -11 l 1
 437 -16 407 -18 384 -18 c 0
 206 -18 101 87 101 265 c 0
 101 395 144 511 228 602 c 0
 312 695 416 741 539 741 c 0
 723 741 828 638 828 459 c 0
 828 345 793 238 726 151 c 0
 676 86 622 44 540 8 c 1
 624 -26 707 -47 794 -55 c 1
529 693 m 0
 452 693 390 648 338 555 c 0
 285 460 256 344 256 227 c 0
 256 94 302 30 397 30 c 0
 467 30 526 67 575 140 c 0
 637 234 673 365 673 495 c 0
 673 627 625 693 529 693 c 0
EndSplineSet
EndChar
StartChar: R
Encoding: 82 82 150
Width: 722
Flags: MW
HStem: 0 20 703 20<166 376 376 376>
VStem: 549 153<530 603 530 610>
LayerCount: 2
Fore
SplineSet
21 0 m 1
 30 45 l 1
 39 46 l 2
 103 50 104 51 115 93 c 2
 127 142 l 1
 215 582 l 1
 223 630 l 1
 226 646 l 1
 225 664 204 675 166 678 c 2
 157 678 l 1
 166 723 l 1
 376 723 l 1
 421 724 l 1
 465 725 l 1
 510 726 l 1
 518 727 l 2
 571 732 641 709 670 677 c 0
 692 653 702 623 702 583 c 0
 702 477 631 382 517 337 c 1
 619 140 l 1
 647 90 l 2
 663 62 678 49 698 47 c 2
 721 46 l 1
 730 45 l 1
 721 0 l 1
 506 0 l 1
 369 317 l 1
 307 317 l 1
 272 142 l 1
 265 93 l 2
 263 84 263 84 261 74 c 1
 263 66 l 2
 267 55 284 47 310 46 c 2
 319 45 l 1
 310 0 l 1
 21 0 l 1
317 365 m 1
 343 365 l 2
 461 365 549 455 549 577 c 0
 549 643 511 675 433 675 c 2
 379 675 l 1
 317 365 l 1
EndSplineSet
EndChar
StartChar: S
Encoding: 83 83 151
Width: 556
Flags: MW
HStem: -18 48<227.5 301.5 227.5 340.5> 693 48<405.5 466.5 358.5 470.5>
VStem: 153 148<539 571.5> 417 152<164 207>
LayerCount: 2
Fore
SplineSet
51 9 m 1
 81 160 l 1
 159 160 l 1
 157 148 l 1
 153 116 l 2
 152 114 152 112 152 112 c 1
 152 108 l 1
 151 104 l 1
 151 99 l 2
 151 60 197 30 258 30 c 0
 345 30 417 101 417 188 c 0
 417 226 391 261 338 293 c 2
 295 319 l 2
 199 378 153 438 153 506 c 0
 153 637 279 741 438 741 c 0
 495 741 552 731 625 709 c 1
 596 563 l 1
 518 563 l 1
 519 572 l 1
 524 605 l 1
 524 609 l 1
 525 614 l 1
 525 625 l 2
 525 669 497 693 444 693 c 0
 367 693 301 630 301 556 c 0
 301 522 325 492 382 454 c 2
 425 426 l 2
 537 352 569 310 569 237 c 0
 569 91 432 -18 249 -18 c 0
 191 -18 130 -10 51 9 c 1
EndSplineSet
EndChar
StartChar: T
Encoding: 84 84 152
Width: 667
Flags: MW
HStem: 0 20 675 48<275 305 305 393 544 544 544 632>
LayerCount: 2
Fore
SplineSet
168 0 m 1
 177 45 l 1
 186 46 l 1
 220 48 l 2
 262 52 271 64 287 142 c 2
 393 675 l 1
 305 675 l 2
 245 675 235 670 227 632 c 0
 223 616 219 601 218 596 c 0
 217 589 215 581 215 581 c 1
 213 572 l 1
 134 572 l 1
 164 723 l 1
 792 723 l 1
 762 572 l 1
 684 572 l 1
 686 587 l 1
 693 632 l 2
 694 639 694 639 695 653 c 0
 695 668 675 675 632 675 c 2
 544 675 l 1
 437 142 l 2
 432 116 429 90 429 75 c 0
 429 57 439 50 467 48 c 2
 499 46 l 1
 509 45 l 1
 499 0 l 1
 168 0 l 1
EndSplineSet
EndChar
StartChar: U
Encoding: 85 85 153
Width: 722
Flags: MW
HStem: -18 47<357 456.5 357 457.5> 703 20<153 461 461 461 629 857 857 857>
VStem: 130 146<112 158 106.5 185>
LayerCount: 2
Fore
SplineSet
144 675 m 1
 153 723 l 1
 461 723 l 1
 452 678 l 1
 443 678 l 2
 405 675 384 670 381 665 c 0
 375 658 371 648 367 630 c 2
 355 582 l 1
 292 269 l 2
 282 220 276 171 276 145 c 0
 276 68 317 29 397 29 c 0
 516 29 584 105 617 273 c 2
 679 582 l 1
 686 630 l 1
 690 647 l 1
 688 664 667 675 629 678 c 2
 620 678 l 1
 629 723 l 1
 857 723 l 1
 847 678 l 1
 838 678 l 1
 775 673 775 672 763 630 c 2
 751 582 l 1
 692 285 l 2
 651 78 548 -18 367 -18 c 0
 219 -18 130 53 130 171 c 0
 130 199 134 235 142 275 c 2
 203 578 l 1
 210 627 l 1
 213 643 l 1
 212 662 191 672 152 675 c 2
 144 675 l 1
EndSplineSet
EndChar
StartChar: V
Encoding: 86 86 154
Width: 722
Flags: MW
HStem: -9 20 703 20<145 446 446 446 674 867 867 867>
LayerCount: 2
Fore
SplineSet
136 678 m 1
 145 723 l 1
 446 723 l 1
 437 678 l 1
 428 678 l 1
 424 677 l 1
 409 677 l 1
 406 677 l 2
 379 677 366 667 366 649 c 0
 366 638 370 616 377 583 c 2
 461 210 l 1
 688 583 l 2
 697 598 697 598 705 613 c 0
 707 617 710 624 716 635 c 2
 723 648 l 2
 726 655 728 660 728 663 c 0
 728 672 719 677 702 677 c 2
 681 677 l 2
 679 677 677 677 674 678 c 2
 665 678 l 1
 674 723 l 1
 867 723 l 1
 858 678 l 1
 848 678 l 1
 808 674 807 673 787 642 c 2
 749 583 l 1
 388 -9 l 1
 339 -9 l 1
 205 583 l 1
 193 634 l 2
 184 673 183 674 145 678 c 1
 136 678 l 1
EndSplineSet
EndChar
StartChar: W
Encoding: 87 87 155
Width: 1000
Flags: MW
HStem: -9 20 703 20<151 440 440 440 940 1139 1139 1139>
LayerCount: 2
Fore
SplineSet
142 678 m 1
 151 723 l 1
 440 723 l 1
 431 678 l 1
 422 678 l 1
 396 678 l 2
 362 677 357 671 357 633 c 0
 357 617 358 604 360 581 c 2
 395 251 l 1
 642 714 l 1
 703 714 l 1
 778 235 l 1
 954 579 l 2
 959 591 969 610 981 636 c 2
 984 645 l 2
 985 645 985 646 985 646 c 2
 988 651 990 658 990 663 c 0
 990 673 982 677 962 678 c 2
 940 678 l 1
 931 678 l 1
 940 723 l 1
 1139 723 l 1
 1130 678 l 1
 1121 678 l 1
 1113 677 l 2
 1107 676 1102 676 1098 676 c 0
 1070 675 1065 671 1048 640 c 2
 1017 579 l 1
 713 -9 l 1
 666 -9 l 1
 585 492 l 1
 319 -9 l 1
 271 -9 l 1
 211 581 l 1
 205 636 l 2
 200 672 199 673 151 678 c 1
 142 678 l 1
EndSplineSet
EndChar
StartChar: X
Encoding: 88 88 156
Width: 722
Flags: MW
HStem: 0 20 703 20<176 486 486 486 655 856 856 856>
LayerCount: 2
Fore
SplineSet
10 0 m 1
 19 45 l 1
 28 46 l 2
 79 50 81 51 114 89 c 2
 160 143 l 1
 351 362 l 1
 262 579 l 1
 241 628 l 2
 223 671 221 673 176 678 c 1
 167 678 l 1
 176 723 l 1
 486 723 l 1
 477 678 l 1
 468 678 l 1
 443 678 l 2
 419 677 409 671 409 658 c 0
 409 645 417 617 432 579 c 2
 492 428 l 1
 634 580 l 2
 677 626 699 655 699 665 c 0
 699 673 691 677 675 678 c 2
 655 678 l 1
 646 678 l 1
 655 723 l 1
 856 723 l 1
 847 678 l 1
 842 678 l 2
 841 678 841 678 839 677 c 2
 833 678 l 1
 833 678 832 678 830 677 c 0
 829 676 824 676 816 675 c 0
 791 673 786 670 763 646 c 2
 700 579 l 1
 523 385 l 1
 621 143 l 1
 650 81 l 2
 660 58 672 48 689 47 c 2
 709 46 l 1
 718 45 l 1
 709 0 l 1
 399 0 l 1
 407 45 l 1
 417 45 l 1
 443 46 l 2
 467 46 478 52 478 64 c 0
 478 75 470 101 453 143 c 2
 383 318 l 1
 229 143 l 2
 187 95 168 69 168 58 c 0
 168 50 176 46 193 46 c 2
 215 45 l 1
 224 45 l 1
 215 0 l 1
 10 0 l 1
EndSplineSet
EndChar
StartChar: Y
Encoding: 89 89 157
Width: 722
Flags: MW
HStem: 0 20 703 20<146 459 459 459 667 866 866 866>
LayerCount: 2
Fore
SplineSet
205 0 m 1
 215 45 l 1
 224 46 l 2
 287 50 289 51 300 93 c 2
 312 142 l 1
 346 313 l 1
 236 577 l 2
 219 617 213 630 212 634 c 0
 203 660 190 675 172 676 c 2
 146 678 l 1
 137 678 l 1
 146 723 l 1
 459 723 l 1
 450 678 l 1
 442 678 l 1
 418 678 l 2
 392 677 381 671 381 658 c 0
 381 644 389 618 406 577 c 2
 489 376 l 1
 654 577 l 2
 694 626 713 653 713 663 c 0
 713 673 698 678 669 678 c 2
 658 678 l 1
 667 723 l 1
 866 723 l 1
 857 678 l 1
 847 678 l 1
 826 676 l 2
 805 673 790 664 773 643 c 2
 718 577 l 1
 497 314 l 1
 463 142 l 1
 456 93 l 1
 452 77 l 1
 454 59 474 49 513 46 c 2
 522 45 l 1
 512 0 l 1
 205 0 l 1
EndSplineSet
EndChar
StartChar: bracketleft
Encoding: 91 91 247
Width: 333
Flags: MW
HStem: -145 45<172 266> 726 45<337 440 337 337>
LayerCount: 2
Fore
SplineSet
40 -145 m 1
 223 771 l 1
 449 771 l 1
 440 726 l 1
 337 726 l 1
 172 -100 l 1
 275 -100 l 1
 266 -145 l 1
 40 -145 l 1
EndSplineSet
EndChar
StartChar: bracketright
Encoding: 93 93 248
Width: 333
Flags: MW
HStem: -145 45<9 120 18 120 18 235> 726 45<192 285 183 418>
LayerCount: 2
Fore
SplineSet
9 -145 m 1
 18 -100 l 1
 120 -100 l 1
 285 726 l 1
 183 726 l 1
 192 771 l 1
 418 771 l 1
 235 -145 l 1
 9 -145 l 1
EndSplineSet
EndChar
StartChar: asciicircum
Encoding: 94 94 303
Width: 581
Flags: MW
HStem: 703 20<435 435>
LayerCount: 2
Fore
SplineSet
402 561 m 1
 212 289 l 1
 131 289 l 1
 435 723 l 1
 565 289 l 1
 484 289 l 1
 402 561 l 1
EndSplineSet
EndChar
StartChar: underscore
Encoding: 95 95 306
Width: 500
Flags: MW
HStem: -72 72<-15 500 0 485>
LayerCount: 2
Fore
SplineSet
-15 -72 m 1
 0 0 l 1
 500 0 l 1
 485 -72 l 1
 -15 -72 l 1
EndSplineSet
EndChar
StartChar: grave
Encoding: 96 96 285
Width: 333
Flags: W
LayerCount: 2
Fore
SplineSet
423 626 m 1
 358 626 l 1
 191 783 l 1
 337 783 l 1
 423 626 l 1
EndSplineSet
EndChar
StartChar: b
Encoding: 98 98 167
Width: 556
Flags: W
HStem: -12 69<276 328.5 276 376> 0 20 455 93<358 499>
VStem: 445 155<273.5 387.5>
LayerCount: 2
Fore
SplineSet
52 -6 m 1x50
 179 629 l 1
 188 678 l 2
 190 691 191 695 191 699 c 0
 191 715 180 723 155 725 c 2
 145 726 l 1
 155 771 l 1
 352 771 l 1
 287 447 l 1
 336 519 383 548 449 548 c 0
 549 548 600 485 600 362 c 0
 600 151 464 -12 288 -12 c 0xb0
 262 -12 235 -9 198 0 c 1
 52 -6 l 1x50
277 397 m 1
 214 81 l 1
 244 64 266 57 286 57 c 0
 371 57 445 194 445 353 c 0
 445 422 423 455 375 455 c 0
 341 455 312 438 277 397 c 1
EndSplineSet
EndChar
StartChar: e
Encoding: 101 101 170
Width: 444
Flags: MW
HStem: -12 73<276 285> 264 45<237 339 237 472 224 339> 503 45<315.5 343>
VStem: 68 145<130.5 178 130.5 287> 361 128<447 450 384.5 474>
LayerCount: 2
Fore
SplineSet
438 95 m 1
 423 21 l 1
 362 -2 312 -12 258 -12 c 0
 130 -12 68 52 68 185 c 0
 68 389 193 548 353 548 c 0
 444 548 489 499 489 401 c 0
 489 368 482 308 474 275 c 2
 472 264 l 1
 224 264 l 1
 217 223 213 191 213 165 c 0
 213 96 245 61 307 61 c 0xf8
 346 61 386 71 438 95 c 1
237 309 m 1
 339 309 l 1
 354 384 361 434 361 460 c 0
 361 488 352 503 334 503 c 0
 297 503 268 445 237 309 c 1
EndSplineSet
EndChar
StartChar: f
Encoding: 102 102 171
Width: 333
Flags: MW
HStem: 0 20 488 48<125 168 116 178 323 407> 737 47<387.5 413.5>
LayerCount: 2
Fore
SplineSet
18 0 m 1
 27 45 l 1
 36 46 l 2
 75 49 80 54 89 93 c 2
 100 142 l 1
 168 488 l 1
 116 488 l 1
 125 536 l 1
 178 536 l 1
 183 558 l 2
 214 709 287 784 404 784 c 0
 447 784 479 775 512 753 c 1
 489 639 l 1
 426 639 l 1
 427 648 l 1
 431 677 l 2
 432 684 433 697 433 703 c 0
 433 725 423 737 404 737 c 0
 371 737 359 713 337 606 c 2
 323 536 l 1
 416 536 l 1
 407 488 l 1
 313 488 l 1
 244 142 l 1
 235 93 l 2
 233 80 232 76 232 72 c 0
 232 54 247 47 281 46 c 2
 302 45 l 1
 293 0 l 1
 18 0 l 1
EndSplineSet
EndChar
StartChar: g
Encoding: 103 103 172
Width: 500
Flags: W
HStem: -205 45<185.5 248.5 185.5 267> 173 42<275 300 263 337> 501 47<309 346>
VStem: -9 143<-118.5 -79.5 -118.5 -79.5> 109 128<288 333.5 257 389.5> 337 143<-59 -27> 372 129<383 412.5 337.5 459.5>
LayerCount: 2
Fore
SplineSet
264 99 m 2
 322 99 l 2
 428 99 480 66 480 -1 c 0
 480 -117 351 -205 183 -205 c 0
 64 -205 -9 -168 -9 -107 c 0xf4
 -9 -52 35 -14 134 19 c 1
 103 38 90 55 90 78 c 0
 90 119 125 152 204 185 c 1
 137 213 109 253 109 323 c 0
 109 456 203 548 338 548 c 0
 375 548 405 543 438 530 c 1
 609 545 l 1
 564 468 l 1
 475 483 l 1
 494 453 501 428 501 397 c 0
 501 278 396 173 278 173 c 0
 272 173 262 174 250 175 c 2
 244 176 l 1
 219 158 208 142 208 125 c 0xea
 208 108 227 99 264 99 c 2
333 501 m 0xea
 285 501 237 389 237 278 c 0
 237 236 250 215 276 215 c 0
 324 215 372 327 372 439 c 0
 372 480 359 501 333 501 c 0xea
225 6 m 2xf4
 178 6 l 1
 147 -30 134 -61 134 -98 c 0
 134 -139 160 -160 211 -160 c 0
 286 -160 337 -115 337 -48 c 0
 337 -6 313 6 225 6 c 2xf4
EndSplineSet
EndChar
StartChar: h
Encoding: 104 104 173
Width: 556
Flags: MW
HStem: 0 20 528 20<439.5 510>
VStem: 436 147<414 479>
LayerCount: 2
Fore
SplineSet
15 0 m 1
 24 45 l 1
 34 46 l 2
 72 49 77 54 86 93 c 2
 97 142 l 1
 194 629 l 1
 203 678 l 2
 205 690 206 695 206 699 c 0
 206 715 196 722 169 725 c 2
 161 726 l 1
 169 771 l 1
 367 771 l 1
 302 447 l 1
 354 518 405 548 474 548 c 0
 546 548 583 513 583 445 c 0
 583 426 580 401 576 379 c 2
 529 142 l 1
 520 93 l 2
 517 80 516 76 516 72 c 0
 516 56 529 47 553 46 c 2
 562 45 l 1
 553 0 l 1
 308 0 l 1
 318 45 l 1
 327 46 l 2
 352 48 367 63 373 93 c 2
 384 142 l 1
 428 363 l 2
 433 387 436 409 436 419 c 0
 436 445 420 460 392 460 c 0
 357 460 327 440 291 393 c 1
 241 142 l 1
 232 93 l 2
 230 80 229 75 229 71 c 0
 229 56 240 47 260 46 c 2
 269 45 l 1
 260 0 l 1
 15 0 l 1
EndSplineSet
EndChar
StartChar: i
Encoding: 105 105 174
Width: 278
Flags: MW
HStem: 0 20 516 20<126 324 324 324> 626 145<197 371 226 342>
LayerCount: 2
Fore
SplineSet
197 626 m 1
 226 771 l 1
 371 771 l 1
 342 626 l 1xe0
 197 626 l 1
19 0 m 1
 28 45 l 1
 37 46 l 2
 76 49 81 54 90 93 c 2
 100 142 l 1
 151 394 l 1
 160 443 l 2
 162 456 163 460 163 464 c 0
 163 480 150 489 126 490 c 2
 117 491 l 1
 126 536 l 1
 324 536 l 1
 245 142 l 1
 236 93 l 2
 234 79 233 76 233 72 c 0
 233 57 246 47 269 46 c 2
 279 45 l 1
 269 0 l 1
 19 0 l 1
EndSplineSet
EndChar
StartChar: j
Encoding: 106 106 175
Width: 333
Flags: MW
HStem: -205 45<36 65 36 95.5> 516 20<183 380 380 380> 626 145<254 427 283 398>
LayerCount: 2
Fore
SplineSet
-62 -54 m 1
 17 -54 l 1
 16 -63 l 1
 11 -97 l 2
 10 -102 9 -114 9 -118 c 0
 9 -145 23 -160 49 -160 c 0
 81 -160 102 -132 114 -74 c 2
 123 -26 l 1
 207 394 l 1
 216 443 l 2
 219 456 220 460 220 464 c 0
 220 480 207 489 183 490 c 2
 174 491 l 1
 183 536 l 1
 380 536 l 1
 275 11 l 2
 247 -132 163 -205 28 -205 c 0
 -7 -205 -41 -199 -88 -185 c 1
 -62 -54 l 1
254 626 m 1
 283 771 l 1
 427 771 l 1
 398 626 l 1
 254 626 l 1
EndSplineSet
EndChar
StartChar: k
Encoding: 107 107 176
Width: 556
Flags: MW
HStem: 0 20 516 20<442 622 622 622>
LayerCount: 2
Fore
SplineSet
15 0 m 1
 24 45 l 1
 33 46 l 2
 72 49 77 54 86 93 c 2
 96 142 l 1
 194 629 l 1
 203 678 l 2
 205 691 206 695 206 699 c 0
 206 715 195 722 169 725 c 2
 160 726 l 1
 169 771 l 1
 367 771 l 1
 270 289 l 1
 278 289 l 1
 405 400 l 2
 424 416 436 427 444 435 c 2
 472 463 l 2
 478 470 482 476 482 480 c 0
 482 487 476 490 462 490 c 2
 442 491 l 1
 433 491 l 1
 442 536 l 1
 622 536 l 1
 614 491 l 1
 604 490 l 2
 578 488 549 472 512 437 c 2
 464 394 l 1
 395 335 l 1
 478 140 l 2
 503 79 525 48 541 46 c 2
 551 46 l 1
 560 45 l 1
 551 0 l 1
 380 0 l 1
 270 259 l 1
 265 259 l 1
 241 142 l 1
 232 93 l 2
 230 79 229 76 229 72 c 0
 229 57 242 47 265 46 c 2
 275 45 l 1
 265 0 l 1xc0
 15 0 l 1
EndSplineSet
EndChar
StartChar: l
Encoding: 108 108 177
Width: 278
Flags: MW
HStem: 0 20
LayerCount: 2
Fore
SplineSet
19 0 m 1
 28 45 l 1
 37 46 l 2
 76 49 81 54 90 93 c 2
 100 142 l 1
 198 629 l 1
 207 678 l 2
 209 691 210 695 210 699 c 0
 210 715 199 722 173 725 c 2
 164 726 l 1
 173 771 l 1
 371 771 l 1
 245 142 l 1
 236 93 l 2
 234 79 233 76 233 72 c 0
 233 57 246 47 269 46 c 2
 279 45 l 1
 269 0 l 1x80
 19 0 l 1
EndSplineSet
EndChar
StartChar: m
Encoding: 109 109 178
Width: 833
Flags: W
HStem: 0 20 516 20<122 320 320 320> 528 20<436 505.5 713.5 786.5>
VStem: 713 147<413.5 479>
LayerCount: 2
Fore
SplineSet
15 0 m 1xb0
 24 45 l 1
 34 46 l 2
 72 49 77 54 86 93 c 2
 97 142 l 1
 147 394 l 1
 156 443 l 2
 159 456 160 460 160 464 c 0
 160 480 147 489 122 490 c 2
 114 491 l 1
 122 536 l 1
 320 536 l 1xd0
 302 447 l 1
 354 518 403 548 469 548 c 0
 542 548 576 514 578 439 c 1
 636 522 677 548 750 548 c 0
 823 548 860 513 860 445 c 0
 860 426 857 402 853 379 c 2
 806 142 l 1
 797 93 l 2
 794 80 793 76 793 72 c 0
 793 56 806 47 830 46 c 2
 839 45 l 1
 830 0 l 1
 586 0 l 1
 595 45 l 1
 604 46 l 2
 629 48 644 63 650 93 c 2
 661 142 l 1
 705 363 l 2
 709 383 713 409 713 418 c 0
 713 445 698 460 671 460 c 0
 639 460 609 440 574 393 c 1
 523 142 l 1
 515 93 l 2
 512 81 511 76 511 72 c 0
 511 56 524 47 548 46 c 2
 557 45 l 1
 548 0 l 1
 304 0 l 1
 312 45 l 1
 322 46 l 2
 347 48 361 63 368 93 c 2
 379 142 l 1
 423 363 l 2
 431 400 432 408 432 418 c 0
 432 445 417 460 389 460 c 0
 357 460 328 440 291 393 c 1
 241 142 l 1
 232 93 l 2
 230 80 229 75 229 71 c 0
 229 56 240 47 260 46 c 2
 269 45 l 1
 260 0 l 1
 15 0 l 1xb0
EndSplineSet
EndChar
StartChar: o
Encoding: 111 111 180
Width: 500
Flags: MW
HStem: -12 51<246 293 246 330.5> 497 51<340 368>
VStem: 69 145<122 183 104 291> 399 145<317.5 414 244 432>
LayerCount: 2
Fore
SplineSet
365 548 m 0
 485 548 544 481 544 347 c 0
 544 141 416 -12 245 -12 c 0
 128 -12 69 55 69 189 c 0xf0
 69 393 197 548 365 548 c 0
353 497 m 0
 327 497 301 471 276 416 c 0
 237 333 214 229 214 137 c 0
 214 71 230 39 262 39 c 0
 324 39 399 235 399 400 c 0
 399 464 383 497 353 497 c 0
EndSplineSet
EndChar
StartChar: p
Encoding: 112 112 181
Width: 556
Flags: W
HStem: -12 69<275 327.5 275 375.5> 0 20 455 93<358 498> 516 20<107 304 304 304>
VStem: 444 155<273.5 387.5>
LayerCount: 2
Fore
SplineSet
98 491 m 1x48
 107 536 l 1
 304 536 l 1x18
 287 447 l 1
 336 519 382 548 448 548 c 0
 548 548 599 485 599 362 c 0
 599 151 463 -12 288 -12 c 0xa8
 261 -12 235 -9 197 0 c 1
 187 -51 l 1
 178 -100 l 2
 176 -113 175 -117 175 -121 c 0
 175 -136 188 -146 211 -147 c 2
 221 -148 l 1
 211 -193 l 1
 -39 -193 l 1
 -30 -148 l 1
 -21 -147 l 2
 18 -144 23 -139 32 -100 c 2
 42 -51 l 1
 131 394 l 1
 140 443 l 2
 143 456 144 460 144 464 c 0
 144 480 131 489 107 490 c 2
 98 491 l 1x48
276 397 m 1xa8
 213 81 l 1
 243 64 265 57 285 57 c 0
 370 57 444 194 444 353 c 0
 444 422 422 455 375 455 c 0
 341 455 311 437 276 397 c 1xa8
EndSplineSet
EndChar
StartChar: q
Encoding: 113 113 182
Width: 556
Flags: W
HStem: -12 93<165.5 306> 479 69<336 389> 516 20<467 611 611 611>
VStem: 65 155<148.5 262.5 148.5 280>
LayerCount: 2
Fore
SplineSet
268 -193 m 1x30
 277 -148 l 1
 286 -147 l 2
 325 -144 330 -139 339 -100 c 2
 350 -51 l 1
 378 89 l 1
 328 17 281 -12 215 -12 c 0
 116 -12 65 51 65 174 c 0
 65 386 200 548 376 548 c 0xd0
 403 548 429 545 467 536 c 1
 611 536 l 1
 494 -51 l 1
 485 -100 l 2
 483 -113 482 -117 482 -121 c 0
 482 -136 495 -146 519 -147 c 2
 528 -148 l 1
 519 -193 l 1
 268 -193 l 1x30
387 139 m 1
 451 455 l 1
 420 472 399 479 379 479 c 0
 293 479 220 342 220 183 c 0
 220 114 242 81 289 81 c 0
 323 81 353 98 387 139 c 1
EndSplineSet
EndChar
StartChar: r
Encoding: 114 114 183
Width: 444
Flags: W
HStem: 0 20 516 20<122 320 320 320> 528 20<458.5 499.5>
LayerCount: 2
Fore
SplineSet
15 0 m 1
 24 45 l 1
 33 46 l 2
 72 49 77 54 86 93 c 2
 96 142 l 1
 147 394 l 1
 156 443 l 2
 158 456 159 460 159 464 c 0
 159 480 146 489 122 490 c 2
 113 491 l 1
 122 536 l 1
 320 536 l 1xc0
 300 435 l 1
 363 513 423 548 494 548 c 0
 505 548 514 547 527 544 c 1
 493 373 l 1
 427 373 l 1
 428 382 l 1
 431 405 l 2
 431 406 431 410 432 416 c 0
 433 422 434 432 434 434 c 0
 434 445 426 450 409 450 c 0
 364 450 327 429 289 383 c 1
 241 142 l 2
 237 123 233 89 233 74 c 0
 233 57 243 50 270 48 c 2
 303 46 l 1
 312 45 l 1
 303 0 l 1xa0
 15 0 l 1
EndSplineSet
EndChar
StartChar: t
Encoding: 116 116 185
Width: 333
Flags: MW
HStem: -12 20 488 48<117 180 126 171 325 407>
VStem: 97 141<74 93 74 101>
LayerCount: 2
Fore
SplineSet
117 488 m 1
 126 536 l 1
 180 536 l 1
 198 626 l 1
 348 652 l 1
 325 536 l 1
 417 536 l 1
 407 488 l 1
 315 488 l 1
 250 163 l 1
 242 122 l 2
 239 107 238 98 238 88 c 0
 238 60 251 45 276 45 c 0
 290 45 304 48 326 57 c 1
 316 4 l 1
 281 -7 255 -12 227 -12 c 0
 149 -12 97 30 97 92 c 0
 97 110 100 137 106 167 c 2
 171 488 l 1
 117 488 l 1
EndSplineSet
EndChar
StartChar: v
Encoding: 118 118 187
Width: 500
Flags: MW
HStem: -6 20 516 20<107 360 360 360 456 607 607 607>
LayerCount: 2
Fore
SplineSet
98 491 m 1
 107 536 l 1
 360 536 l 1
 350 491 l 1
 341 490 l 2
 317 489 316 489 310 486 c 0
 299 481 293 471 293 455 c 0
 293 446 296 426 303 393 c 2
 342 190 l 1
 453 393 l 2
 460 405 466 416 470 423 c 2
 485 454 l 2
 488 461 491 471 491 476 c 0
 491 484 484 488 470 489 c 2
 456 490 l 1
 447 491 l 1
 456 536 l 1
 607 536 l 1
 598 491 l 1
 589 490 l 1
 575 490 l 2
 559 489 544 473 529 444 c 1
 528 441 l 1
 524 434 l 2
 522 431 521 428 519 426 c 2
 512 411 l 2
 508 406 505 400 502 394 c 2
 280 -6 l 1
 236 -6 l 1
 156 393 l 1
 146 443 l 2
 140 474 128 489 107 490 c 2
 98 491 l 1
EndSplineSet
EndChar
StartChar: w
Encoding: 119 119 188
Width: 722
Flags: MW
HStem: -6 20 516 20<113 369 369 369 648 823 823 823>
LayerCount: 2
Fore
SplineSet
104 491 m 1
 113 536 l 1
 369 536 l 1
 360 491 l 1
 351 491 l 2
 308 491 302 479 302 404 c 2
 302 396 l 1
 309 223 l 1
 480 533 l 1
 532 533 l 1
 570 223 l 1
 647 393 l 1
 662 423 l 1
 675 453 l 2
 680 465 682 470 682 475 c 0
 682 485 670 491 648 491 c 2
 639 491 l 1
 648 536 l 1
 823 536 l 1
 814 491 l 1
 805 490 l 2
 772 488 754 482 746 471 c 0
 738 459 726 436 707 395 c 2
 526 -6 l 1
 482 -6 l 1
 435 371 l 1
 227 -6 l 1
 180 -6 l 1
 165 394 l 1
 164 441 l 2
 163 472 146 488 113 490 c 2
 104 491 l 1
EndSplineSet
EndChar
StartChar: x
Encoding: 120 120 189
Width: 500
Flags: MW
HStem: 0 20 516 20<116 387 387 387 417 598 598 598>
LayerCount: 2
Fore
SplineSet
0 0 m 1
 9 45 l 1
 15 46 l 1
 28 47 l 2
 51 48 76 65 100 94 c 2
 138 140 l 1
 236 263 l 1
 193 399 l 2
 177 451 167 475 160 479 c 0
 152 485 138 489 116 490 c 2
 107 491 l 1
 116 536 l 1
 387 536 l 1
 378 491 l 1
 369 491 l 1
 356 490 l 2
 331 489 320 480 320 457 c 0
 320 443 324 422 332 397 c 2
 351 336 l 1
 400 397 l 2
 432 437 449 465 449 477 c 0
 449 486 438 491 417 491 c 2
 409 491 l 1
 417 536 l 1
 598 536 l 1
 589 491 l 1
 580 490 l 1
 567 490 l 2
 546 490 526 477 504 450 c 2
 461 396 l 1
 370 280 l 1
 416 133 l 2
 433 77 461 49 500 46 c 2
 509 45 l 1
 500 0 l 1
 232 0 l 1
 241 45 l 1
 250 45 l 1
 257 46 l 1
 279 49 l 2
 288 53 292 60 292 71 c 0
 292 83 286 109 275 141 c 2
 254 205 l 1
 204 142 l 2
 199 135 188 119 182 111 c 0
 172 97 170 93 162 83 c 0
 156 75 151 64 151 58 c 0
 151 51 158 47 171 46 c 2
 178 45 l 1
 187 45 l 1
 178 0 l 1
 0 0 l 1
EndSplineSet
EndChar
StartChar: y
Encoding: 121 121 190
Width: 500
Flags: MW
HStem: 516 20<108 363 363 363 460 608 608 608>
LayerCount: 2
Fore
SplineSet
98 491 m 1
 108 536 l 1
 363 536 l 1
 354 491 l 1
 345 490 l 1
 340 490 l 1
 336 490 l 2
 334 490 334 490 332 489 c 2
 327 490 l 1
 314 485 306 482 304 480 c 0
 300 475 296 463 296 457 c 0
 296 456 296 454 297 449 c 2
 297 444 l 2
 298 439 302 410 306 392 c 2
 345 192 l 1
 456 392 l 2
 460 398 463 404 466 410 c 2
 473 423 l 1
 488 454 l 2
 493 463 495 471 495 476 c 0
 495 484 488 488 473 489 c 2
 460 490 l 1
 451 491 l 1
 460 536 l 1
 608 536 l 1
 598 491 l 1
 590 490 l 1
 576 490 l 2
 560 489 544 473 530 444 c 2
 524 434 l 2
 520 426 516 420 512 411 c 2
 502 394 l 1
 175 -193 l 1
 35 -193 l 1
 233 3 l 1
 156 392 l 1
 146 443 l 2
 140 474 128 489 108 490 c 2x80
 98 491 l 1
EndSplineSet
EndChar
StartChar: braceleft
Encoding: 123 123 269
Width: 394
Flags: W
VStem: 117 131<-61 -38 -61 -14.5> 205 108<175.5 258>
LayerCount: 2
Fore
SplineSet
115 336 m 1x40
 145 336 l 2
 180 336 205 345 222 363 c 0
 235 378 244 406 243 427 c 2
 243 431 l 1
 241 475 l 1
 240 526 l 1
 239 559 l 1
 239 566 l 2
 237 617 261 678 298 714 c 0
 337 752 390 771 457 771 c 2
 506 771 l 1
 497 726 l 1
 411 720 384 693 383 614 c 2
 382 594 l 1
 382 559 l 2
 380 430 334 352 234 313 c 1
 288 286 313 248 313 191 c 0x40
 313 160 304 122 281 62 c 2
 268 27 l 1
 260 7 l 2
 252 -14 248 -32 248 -44 c 0
 248 -78 269 -95 313 -98 c 0
 319 -98 324 -99 332 -100 c 1
 323 -145 l 1
 273 -145 l 2
 177 -145 117 -100 117 -29 c 0x80
 117 0 130 44 152 96 c 2
 175 147 l 1
 191 184 l 2
 199 203 205 227 205 242 c 0
 205 274 182 291 136 291 c 2
 106 291 l 1
 115 336 l 1x40
EndSplineSet
EndChar
StartChar: bar
Encoding: 124 124 304
Width: 220
Flags: W
LayerCount: 2
Fore
SplineSet
45 -145 m 1
 228 771 l 1
 300 771 l 1
 117 -145 l 1
 45 -145 l 1
EndSplineSet
EndChar
StartChar: braceright
Encoding: 125 125 270
Width: 394
Flags: W
VStem: 206 108<368.5 451> 272 131<665 687.5>
LayerCount: 2
Fore
SplineSet
405 291 m 1x80
 374 291 l 2
 333 291 305 278 290 251 c 0
 283 240 276 211 277 195 c 2
 278 152 l 1
 279 100 l 1
 280 68 l 2
 284 -59 197 -145 62 -145 c 2
 13 -145 l 1
 22 -99 l 1
 108 -94 136 -67 137 12 c 2
 137 33 l 1
 138 67 l 2
 139 197 186 275 285 313 c 1
 231 341 206 379 206 435 c 0x80
 206 467 216 506 239 565 c 2
 252 599 l 1
 259 619 l 2
 269 646 272 659 272 671 c 0
 272 704 251 721 207 724 c 0
 203 725 193 725 187 726 c 1
 196 771 l 1
 247 771 l 2
 343 771 403 726 403 655 c 0x40
 403 627 391 585 367 530 c 2
 345 479 l 1
 328 442 l 2
 320 423 314 399 314 385 c 0
 314 352 337 336 384 336 c 2
 413 336 l 1
 405 291 l 1x80
EndSplineSet
EndChar
StartChar: asciitilde
Encoding: 126 126 307
Width: 520
Flags: MW
HStem: 204 69<420 422.5> 305 69<212 214>
LayerCount: 2
Fore
SplineSet
110 217 m 1
 62 217 l 1
 78 284 97 317 132 344 c 0
 159 363 193 374 231 374 c 0
 271 374 302 361 335 331 c 2
 355 312 l 2
 386 283 407 273 433 273 c 0
 482 273 511 301 524 361 c 1
 573 361 l 1
 557 295 538 261 503 235 c 0
 476 215 441 204 404 204 c 0
 363 204 333 217 299 248 c 2
 279 267 l 2
 249 294 227 305 201 305 c 0
 152 305 123 277 110 217 c 1
EndSplineSet
EndChar
StartChar: exclamdown
Encoding: 161 161 233
Width: 333
Flags: MW
HStem: 415 121<202 322 177 346>
LayerCount: 2
Fore
SplineSet
346 536 m 1
 322 415 l 1
 177 415 l 1
 202 536 l 1
 346 536 l 1
255 331 m 1
 230 -42 l 1
 202 -187 l 1
 57 -187 l 1
 86 -42 l 1
 210 331 l 1
 255 331 l 1
EndSplineSet
EndChar
StartChar: cent
Encoding: 162 162 215
Width: 500
Flags: MW
HStem: 0 20 703 20<433 481 481 481>
VStem: 120 130<259 317.5 242 344>
LayerCount: 2
Fore
SplineSet
288 0 m 1
 304 77 l 1
 231 87 196 103 163 143 c 0
 134 178 120 227 120 291 c 0
 120 397 164 500 238 568 c 0
 284 610 337 631 416 639 c 1
 433 723 l 1
 481 723 l 1
 465 639 l 1
 483 636 l 2
 528 631 552 626 591 616 c 1
 562 473 l 1
 505 473 l 1
 506 480 508 490 509 503 c 0
 510 504 510 506 510 509 c 2
 510 512 l 1
 512 521 l 2
 513 525 514 538 514 542 c 0
 514 573 496 589 455 593 c 1
 365 141 l 1
 404 141 449 150 501 168 c 1
 488 102 l 1
 443 89 398 80 352 76 c 1
 337 0 l 1
 288 0 l 1
319 150 m 1
 407 591 l 1
 363 577 334 551 305 500 c 0
 270 438 250 358 250 277 c 0
 250 207 270 170 319 150 c 1
EndSplineSet
EndChar
StartChar: sterling
Encoding: 163 163 213
Width: 500
Flags: W
HStem: 0 114<24 47 47 47 129 452> 353 51<111 179 101 189> 359 45<334 427> 692 49<433.5 473.5 392.5 475.5>
LayerCount: 2
Fore
SplineSet
24 0 m 1xa0
 47 114 l 1
 106 127 143 176 161 264 c 2
 179 353 l 1
 101 353 l 1xc0
 111 404 l 1
 189 404 l 1x20
 205 483 l 2
 239 649 329 741 456 741 c 0
 491 741 530 733 594 712 c 1
 568 585 l 1
 503 585 l 1
 507 613 509 632 509 647 c 0
 509 677 492 692 459 692 c 0
 408 692 385 658 364 554 c 2
 334 404 l 1
 436 404 l 1x50
 427 359 l 1
 325 359 l 1
 313 301 l 2
 296 217 236 156 129 114 c 1
 475 114 l 1
 452 0 l 1
 24 0 l 1xa0
EndSplineSet
EndChar
StartChar: currency
Encoding: 164 164 266
Width: 500
Flags: MW
HStem: 162 72<268 305> 476 72<338 373.5>
VStem: 124 74<303 345.5> 444 74<365 407.5>
LayerCount: 2
Fore
SplineSet
62 168 m 1
 145 237 l 1
 130 264 124 289 124 317 c 0
 124 374 145 423 192 474 c 1
 137 543 l 1
 178 577 l 1
 233 508 l 1
 277 536 316 548 360 548 c 0
 403 548 437 536 470 508 c 1
 553 577 l 1
 580 543 l 1
 497 474 l 1
 512 445 518 423 518 394 c 0
 518 336 497 288 450 237 c 1
 505 168 l 1
 464 134 l 1
 409 203 l 1
 365 174 327 162 283 162 c 0
 239 162 206 174 172 203 c 1
 89 134 l 1
 62 168 l 1
344 476 m 0
 268 476 198 407 198 331 c 0
 198 274 239 234 297 234 c 0
 374 234 444 303 444 379 c 0
 444 436 403 476 344 476 c 0
EndSplineSet
EndChar
StartChar: yen
Encoding: 165 165 218
Width: 500
Flags: MW
HStem: 0 20 187 45<114 221 105 230 362 469> 316 45<140 247 131 256 388 495> 703 20<145 368 368 368 513 645 645 645>
LayerCount: 2
Fore
SplineSet
112 0 m 1
 121 46 l 1
 129 46 l 1
 187 51 189 52 200 94 c 2
 212 142 l 1
 221 187 l 1
 105 187 l 1
 114 232 l 1
 230 232 l 1
 247 316 l 1
 131 316 l 1
 140 361 l 1
 256 361 l 1
 189 583 l 2
 171 646 152 678 135 678 c 1
 145 723 l 1
 368 723 l 1
 359 678 l 1
 353 677 l 1
 350 677 l 1
 346 678 l 1
 334 676 328 674 328 674 c 2
 322 671 316 664 317 661 c 0
 318 652 319 647 319 647 c 1
 328 616 l 1
 335 594 l 1
 338 583 l 1
 383 432 l 1
 384 432 l 1
 489 583 l 1
 512 617 l 2
 524 636 531 649 533 656 c 2
 536 665 l 1
 537 670 l 2
 535 676 529 678 515 678 c 2
 506 678 l 1
 504 678 l 1
 513 723 l 1
 645 723 l 1
 635 678 l 1
 618 677 587 645 543 583 c 2
 388 361 l 1
 504 361 l 1
 495 316 l 1
 379 316 l 1
 362 232 l 1
 479 232 l 1
 469 187 l 1
 354 187 l 1
 344 142 l 1
 337 94 l 1
 333 75 l 1
 335 57 352 48 389 46 c 1
 390 45 l 1
 396 45 l 1
 397 46 l 1
 388 0 l 1
 112 0 l 1
EndSplineSet
EndChar
StartChar: brokenbar
Encoding: 166 166 305
Width: 220
Flags: W
LayerCount: 2
Fore
SplineSet
45 -145 m 1
 117 217 l 1
 190 217 l 1
 117 -145 l 1
 45 -145 l 1
156 410 m 1
 228 771 l 1
 300 771 l 1
 228 410 l 1
 156 410 l 1
EndSplineSet
EndChar
StartChar: section
Encoding: 167 167 250
Width: 500
Flags: MW
HStem: -156 45<187.5 252.5 187.5 281> 0 20 696 45<366.5 424.5>
VStem: 149 123<565.5 595> 345 120<-18 14.5>
LayerCount: 2
Fore
SplineSet
17 -127 m 1
 44 10 l 1
 110 10 l 1
 109 0 l 2
 107 -18 105 -27 104 -29 c 0
 103 -34 101 -46 101 -50 c 0
 101 -83 156 -111 219 -111 c 0
 286 -111 345 -59 345 2 c 0
 345 27 322 50 271 77 c 2
 219 104 l 2
 129 151 96 192 96 254 c 0
 96 316 130 369 207 431 c 1
 165 459 149 488 149 534 c 0
 149 656 256 741 409 741 c 0
 466 741 518 733 575 715 c 1
 546 573 l 1
 480 573 l 1
 481 582 l 2
 485 605 486 614 488 621 c 0
 490 626 491 636 491 639 c 0
 491 671 450 696 399 696 c 0
 334 696 272 639 272 578 c 0
 272 553 291 532 334 510 c 2
 383 485 l 2
 476 438 511 395 511 329 c 0
 511 273 481 220 410 150 c 1
 449 121 465 88 465 41 c 0
 465 -77 360 -156 202 -156 c 0
 141 -156 84 -147 17 -127 c 1
303 217 m 2
 380 175 l 1
 401 209 411 237 411 265 c 0
 411 291 396 316 371 330 c 2
 305 367 l 1
 238 407 l 1
 215 377 205 350 205 321 c 0
 205 281 225 259 303 217 c 2
EndSplineSet
EndChar
StartChar: dieresis
Encoding: 168 168 281
Width: 333
Flags: MW
HStem: 626 103<141 264 162 243 360 442 162 340>
LayerCount: 2
Fore
SplineSet
141 626 m 1
 162 729 l 1
 264 729 l 1
 243 626 l 1x80
 141 626 l 1
340 626 m 1
 360 729 l 1
 462 729 l 1
 442 626 l 1
 340 626 l 1
EndSplineSet
EndChar
StartChar: copyright
Encoding: 169 169 295
Width: 747
Flags: MW
HStem: 0 48<312 430.5 312 433> 155 47<427.5 456.5> 525 40<466 523> 676 48<468 589.5>
VStem: 82 49<227 347> 260 87<285.5 377.5 285.5 389> 771 49<376.5 496>
LayerCount: 2
Fore
SplineSet
525 724 m 0
 697 724 820 602 820 432 c 0
 820 321 774 220 684 132 c 0
 594 44 491 0 375 0 c 0
 205 0 82 122 82 291 c 0
 82 403 128 505 217 592 c 0
 307 680 411 724 525 724 c 0
515 676 m 0
 416 676 326 637 248 561 c 0
 171 485 131 398 131 301 c 0
 131 153 237 48 387 48 c 0
 474 48 557 80 628 140 c 0
 722 220 771 317 771 422 c 0
 771 570 664 676 515 676 c 0
644 548 m 1
 626 459 l 1
 578 459 l 1
 587 506 l 1
 556 520 535 525 511 525 c 0
 421 525 347 433 347 322 c 0
 347 249 392 202 463 202 c 0
 500 202 538 210 581 227 c 1
 570 174 l 1
 517 161 477 155 436 155 c 0
 319 155 260 210 260 318 c 0
 260 460 368 565 515 565 c 0
 553 565 593 560 644 548 c 1
EndSplineSet
EndChar
StartChar: ordfeminine
Encoding: 170 170 271
Width: 300
Flags: MW
HStem: 715 27<286 297>
VStem: 116 94<472.5 513> 316 87<681 693 665.5 694.5>
LayerCount: 2
Fore
SplineSet
388 437 m 1
 383 409 l 1
 364 404 355 402 343 402 c 0
 312 402 294 416 283 447 c 1
 256 415 229 402 191 402 c 0
 141 402 116 426 116 473 c 0
 116 553 183 603 290 603 c 2
 302 603 l 1
 310 642 l 2
 314 662 316 678 316 684 c 0
 316 705 306 715 288 715 c 0
 263 715 247 701 241 675 c 2
 237 656 l 1
 235 650 l 1
 178 650 l 1
 191 716 l 1
 233 734 267 742 305 742 c 0
 370 742 403 717 403 669 c 0
 403 662 402 649 401 643 c 2
 372 501 l 1
 368 475 l 1
 365 457 l 1
 365 456 l 1
 365 453 l 1
 365 452 l 2
 365 441 370 436 380 436 c 0
 381 436 384 436 387 437 c 2
 388 437 l 1
275 469 m 1
 297 576 l 1
 288 576 l 2
 237 576 210 544 210 485 c 0
 210 460 218 449 237 449 c 0
 255 449 267 455 275 469 c 1
EndSplineSet
EndChar
StartChar: guillemotleft
Encoding: 171 171 237
Width: 500
Flags: W
LayerCount: 2
Fore
SplineSet
350 452 m 1
 205 268 l 1
 276 84 l 1
 233 54 l 1
 59 268 l 1
 319 482 l 1
 350 452 l 1
579 452 m 1
 434 268 l 1
 505 86 l 1
 462 59 l 1
 288 268 l 1
 547 480 l 1
 579 452 l 1
EndSplineSet
EndChar
StartChar: logicalnot
Encoding: 172 172 302
Width: 570
Flags: MW
HStem: 362 72<116 613 131 526>
LayerCount: 2
Fore
SplineSet
116 362 m 1
 131 434 l 1
 613 434 l 1
 554 145 l 1
 482 145 l 1
 526 362 l 1
 116 362 l 1
EndSplineSet
EndChar
StartChar: sfthyphen
Encoding: 173 173 242
Width: 333
Flags: MW
HStem: 253 72<75 374 89 360>
LayerCount: 2
Fore
SplineSet
75 253 m 1
 89 325 l 1
 374 325 l 1
 360 253 l 1
 75 253 l 1
EndSplineSet
EndChar
StartChar: registered
Encoding: 174 174 296
Width: 747
Flags: MW
HStem: 0 48<312 430.5 312 433> 676 48<468 589.5>
VStem: 82 49<227 347> 536 85<455.5 494.5 455.5 496> 771 49<376.5 496>
LayerCount: 2
Fore
SplineSet
525 724 m 0
 697 724 820 602 820 432 c 0
 820 321 774 220 684 132 c 0
 594 44 491 0 375 0 c 0
 205 0 82 122 82 291 c 0
 82 403 128 505 217 592 c 0
 307 680 411 724 525 724 c 0
515 676 m 0
 416 676 326 637 248 561 c 0
 171 485 131 398 131 301 c 0
 131 153 237 48 387 48 c 0
 474 48 557 80 628 140 c 0
 722 220 771 317 771 422 c 0
 771 570 664 676 515 676 c 0
250 168 m 1
 255 195 l 1
 260 196 l 2
 284 198 291 199 294 203 c 0
 297 206 299 212 302 221 c 2
 308 248 l 1
 354 480 l 1
 358 507 l 1
 360 516 l 2
 359 525 348 530 328 532 c 2
 323 533 l 1
 328 560 l 1
 445 560 l 1
 470 560 l 1
 494 561 l 1
 518 561 l 1
 522 562 l 2
 547 566 588 552 604 535 c 0
 615 522 621 505 621 484 c 0
 621 427 581 374 521 351 c 1
 577 246 l 1
 592 218 l 2
 599 205 609 197 619 195 c 1
 614 168 l 1
 509 168 l 1
 441 340 l 1
 408 340 l 1
 390 248 l 1
 385 221 l 1
 383 211 l 2
 384 202 393 197 410 196 c 2
 415 195 l 1
 410 168 l 1
 250 168 l 1
413 367 m 1
 428 367 l 2
 488 367 536 416 536 478 c 0
 536 514 516 531 475 531 c 2
 446 531 l 1
 413 367 l 1
EndSplineSet
EndChar
StartChar: macron
Encoding: 349 175 293
Width: 333
Flags: MW
HStem: 627 75<123 475 138 460>
LayerCount: 2
Fore
SplineSet
123 627 m 1
 138 702 l 1
 475 702 l 1
 460 627 l 1x80
 123 627 l 1
EndSplineSet
EndChar
StartChar: degree
Encoding: 176 176 258
Width: 400
Flags: MW
HStem: 452 54<281.5 332 281.5 338> 687 54<310.5 361>
VStem: 174 56<557.5 607.5 557.5 613.5> 413 56<586 636.5>
LayerCount: 2
Fore
SplineSet
350 741 m 0
 420 741 469 693 469 625 c 0
 469 534 385 452 291 452 c 0
 223 452 174 501 174 568 c 0
 174 659 257 741 350 741 c 0
339 687 m 0
 282 687 230 636 230 579 c 0
 230 536 260 506 303 506 c 0
 361 506 413 557 413 615 c 0
 413 658 383 687 339 687 c 0
EndSplineSet
EndChar
StartChar: plusminus
Encoding: 177 177 273
Width: 570
Flags: MW
HStem: 0 72<44 541 59 526> 325 72<124 314 109 328 124 386 400 591>
LayerCount: 2
Fore
SplineSet
44 0 m 1
 59 72 l 1
 541 72 l 1
 526 0 l 1
 44 0 l 1
278 145 m 1
 314 325 l 1
 109 325 l 1
 124 397 l 1
 328 397 l 1
 364 578 l 1
 437 578 l 1
 400 397 l 1
 606 397 l 1
 591 325 l 1
 386 325 l 1
 350 145 l 1
 278 145 l 1
EndSplineSet
EndChar
StartChar: twosuperior
Encoding: 178 178 220
Width: 300
Flags: MW
HStem: 289 78<165 343> 699 35<273 284>
VStem: 316 96<615.5 662>
LayerCount: 2
Fore
SplineSet
72 289 m 1
 84 347 l 1
 106 385 141 421 195 463 c 2
 221 484 l 2
 285 535 316 587 316 644 c 0
 316 680 300 699 268 699 c 0
 250 699 229 692 198 677 c 1
 189 632 l 1
 148 632 l 1
 164 712 l 1
 209 727 251 734 295 734 c 0
 372 734 412 703 412 642 c 0
 412 587 378 539 311 498 c 2
 271 473 l 1
 247 458 l 2
 201 428 173 398 165 367 c 1
 359 367 l 1
 343 289 l 1
 72 289 l 1
EndSplineSet
EndChar
StartChar: threesuperior
Encoding: 179 179 221
Width: 300
Flags: W
HStem: 279 34<162.5 204 162.5 236> 700 34<263.5 269.5>
VStem: 269 98<397.5 453.5> 300 98<618 664.5>
LayerCount: 2
Fore
SplineSet
76 295 m 1xe0
 91 371 l 1
 131 371 l 1
 130 366 l 2
 129 362 128 349 128 344 c 0
 128 324 146 313 179 313 c 0
 229 313 269 365 269 430 c 0xe0
 269 477 239 501 177 501 c 2
 152 501 l 1
 159 535 l 1
 185 535 l 2
 260 535 300 573 300 646 c 0
 300 683 285 700 254 700 c 0
 220 700 200 683 189 645 c 2
 188 640 l 1
 148 640 l 1
 162 713 l 1
 202 727 241 734 286 734 c 0
 361 734 398 706 398 651 c 0xd0
 398 585 359 547 268 522 c 1
 337 509 367 481 367 427 c 0
 367 339 291 279 181 279 c 0
 137 279 104 284 76 295 c 1xe0
EndSplineSet
EndChar
StartChar: acute
Encoding: 180 180 284
Width: 333
Flags: W
LayerCount: 2
Fore
SplineSet
160 626 m 1
 309 783 l 1
 455 783 l 1
 225 626 l 1
 160 626 l 1
EndSplineSet
EndChar
StartChar: mu
Encoding: 181 181 308
Width: 556
Flags: W
HStem: -9 20 0 20 516 20<113 311 311 311 453 598 598 598>
LayerCount: 2
Fore
SplineSet
25 -168 m 1x40
 138 394 l 1
 147 443 l 2
 149 456 150 460 150 464 c 0
 150 480 137 489 113 490 c 2
 104 491 l 1
 113 536 l 1
 311 536 l 1
 238 173 l 2
 234 152 230 126 230 118 c 0
 230 91 246 76 274 76 c 0
 309 76 339 96 375 143 c 1
 453 536 l 1
 598 536 l 1
 519 142 l 1
 510 93 l 2
 508 80 507 76 507 72 c 0
 507 57 520 47 544 46 c 2
 553 45 l 1
 544 0 l 1
 346 0 l 1x60
 364 89 l 1
 303 7 282 -9 237 -9 c 0x80
 225 -9 215 -7 203 0 c 1
 170 -168 l 1
 25 -168 l 1x40
EndSplineSet
EndChar
StartChar: paragraph
Encoding: 182 182 265
Width: 540
Flags: W
HStem: 663 60<480 533> 707 20<342 346 346 346>
LayerCount: 2
Fore
SplineSet
211 -144 m 1x80
 313 362 l 1
 243 369 207 384 180 418 c 0
 158 444 148 477 148 520 c 0
 148 642 227 727 342 727 c 2
 346 727 l 1x40
 385 726 l 1
 480 723 l 1
 590 723 l 1
 416 -144 l 1
 371 -144 l 1
 533 663 l 1
 415 663 l 1
 253 -144 l 1
 211 -144 l 1x80
EndSplineSet
EndChar
StartChar: periodcentered
Encoding: 340 183 224
Width: 250
Flags: MW
HStem: 229 145<99 272 128 244>
LayerCount: 2
Fore
SplineSet
99 229 m 1
 128 374 l 1
 272 374 l 1
 244 229 l 1
 99 229 l 1
EndSplineSet
EndChar
StartChar: cedilla
Encoding: 184 184 291
Width: 333
Flags: MW
HStem: -211 43<93.5 107.5 83.5 146> 0 20
VStem: 143 97<-140 -115>
LayerCount: 2
Fore
SplineSet
28 -199 m 1
 36 -157 l 1
 60 -165 76 -168 91 -168 c 0
 124 -168 143 -153 143 -127 c 0
 143 -103 119 -92 63 -91 c 1
 126 0 l 1
 179 0 l 1
 141 -56 l 1
 211 -60 240 -80 240 -121 c 0
 240 -174 186 -211 106 -211 c 0xe0
 81 -211 58 -207 28 -199 c 1
EndSplineSet
EndChar
StartChar: onesuperior
Encoding: 185 185 219
Width: 300
Flags: MW
HStem: 714 20<350 350>
LayerCount: 2
Fore
SplineSet
117 289 m 1
 124 325 l 1
 129 326 l 1
 136 326 l 2
 138 327 140 327 141 327 c 2
 144 326 l 1
 147 327 l 1
 149 326 l 1
 177 330 180 335 189 381 c 2
 234 603 l 2
 237 618 239 635 239 643 c 0
 239 653 233 658 219 658 c 0
 214 658 199 657 190 656 c 1
 197 691 l 1
 350 734 l 1
 280 381 l 2
 277 370 275 351 275 343 c 0
 275 332 283 326 300 326 c 2
 302 326 l 2
 306 326 312 326 319 325 c 2
 323 325 l 1
 316 289 l 1
 117 289 l 1
EndSplineSet
EndChar
StartChar: ordmasculine
Encoding: 186 186 272
Width: 330
Flags: MW
HStem: 402 40<243 277 243 298> 702 39<284.5 318.5>
VStem: 126 92<484 552 481.5 587.5> 342 92<594 659.5 555.5 663.5>
LayerCount: 2
Fore
SplineSet
314 741 m 0
 394 741 434 700 434 619 c 0
 434 492 354 402 242 402 c 0
 165 402 126 443 126 525 c 0
 126 650 206 741 314 741 c 0
307 702 m 0
 262 702 218 602 218 502 c 0
 218 461 230 442 256 442 c 0
 298 442 342 544 342 644 c 0
 342 683 330 702 307 702 c 0
EndSplineSet
EndChar
StartChar: guillemotright
Encoding: 187 187 236
Width: 500
Flags: W
LayerCount: 2
Fore
SplineSet
331 452 m 1
 374 482 l 1
 549 268 l 1
 289 54 l 1
 258 84 l 1
 402 268 l 1
 331 452 l 1
103 452 m 1
 145 480 l 1
 321 268 l 1
 62 59 l 1
 30 86 l 1
 174 268 l 1
 103 452 l 1
EndSplineSet
EndChar
StartChar: onequarter
Encoding: 188 188 275
Width: 750
Flags: W
HStem: -18 20 0 20 116 72<494 587 430 602 692 726> 721 20<774 834 834 834>
LayerCount: 2
Fore
SplineSet
106 289 m 1xb0
 114 325 l 1
 119 326 l 1
 126 326 l 2
 128 327 130 327 130 327 c 1
 134 326 l 1
 136 327 l 1
 139 326 l 1
 166 330 170 335 179 381 c 2
 223 603 l 2
 227 624 229 635 229 643 c 0
 229 653 223 658 209 658 c 0
 204 658 189 657 180 656 c 1
 186 691 l 1
 340 734 l 1
 269 381 l 2
 265 361 264 351 264 343 c 0
 264 332 272 326 290 326 c 2
 292 326 l 2
 295 326 302 326 309 325 c 2
 312 325 l 1
 305 289 l 1
 106 289 l 1xb0
81 -18 m 1
 774 741 l 1
 834 741 l 1
 142 -18 l 1
 81 -18 l 1
587 116 m 1
 430 116 l 1
 442 177 l 1
 658 439 l 1
 742 439 l 1
 692 188 l 1
 740 188 l 1
 726 116 l 1
 677 116 l 1
 672 89 l 2
 669 75 667 59 667 51 c 0
 667 41 674 35 689 35 c 2
 697 34 l 1
 703 34 l 1
 696 0 l 1
 522 0 l 1x60
 529 34 l 1
 534 34 l 2
 567 35 571 40 581 89 c 2
 587 116 l 1
494 188 m 1
 602 188 l 1
 636 360 l 1
 494 188 l 1
EndSplineSet
EndChar
StartChar: onehalf
Encoding: 189 189 274
Width: 750
Flags: W
HStem: -18 20 0 34<542 583.5 542 616> 422 34<643 649.5> 721 20<733 794 794 794>
VStem: 649 98<118.5 175> 680 98<340 386>
LayerCount: 2
Fore
SplineSet
81 289 m 1x98
 88 325 l 2
 91 325 93 326 93 326 c 1
 100 326 l 2
 103 327 104 327 105 327 c 2
 109 326 l 1
 111 327 l 1
 113 326 l 1
 141 330 145 334 154 381 c 2
 198 603 l 2
 202 624 204 635 204 643 c 0
 204 653 197 658 184 658 c 0
 178 658 163 657 154 656 c 1
 162 691 l 1
 315 734 l 1
 244 381 l 2
 241 365 239 351 239 343 c 0
 239 332 247 326 265 326 c 2
 267 326 l 2
 270 326 276 326 284 325 c 2
 287 325 l 1
 280 289 l 1
 81 289 l 1x98
41 -18 m 1
 733 741 l 1
 794 741 l 1
 101 -18 l 1
 41 -18 l 1
456 17 m 1x68
 471 92 l 1
 511 92 l 1
 510 87 l 2
 509 83 508 70 508 65 c 0
 508 45 526 34 558 34 c 0
 609 34 649 86 649 151 c 0x68
 649 199 618 222 556 222 c 2
 532 222 l 1
 539 256 l 1
 564 256 l 2
 640 256 680 295 680 367 c 0
 680 405 665 422 634 422 c 0
 600 422 580 405 569 367 c 1
 568 361 l 1
 528 361 l 1
 542 435 l 1
 583 450 621 456 665 456 c 0
 741 456 778 429 778 373 c 0x64
 778 307 739 268 648 244 c 1
 717 231 747 202 747 149 c 0
 747 61 671 0 561 0 c 0
 517 0 484 5 456 17 c 1x68
EndSplineSet
EndChar
StartChar: threequarters
Encoding: 190 190 276
Width: 750
Flags: W
HStem: -18 20 0 20 116 72<500 593 436 607 698 731> 279 34<188 229.5 188 262> 700 34<289 295.5> 721 20<792 852 852 852>
VStem: 295 98<396.5 453> 326 98<617 664.5>
LayerCount: 2
Fore
SplineSet
101 295 m 1x9a
 117 371 l 1
 156 371 l 1
 156 366 l 2
 155 356 154 348 154 344 c 0
 154 324 172 313 204 313 c 0
 255 313 295 364 295 429 c 0x9a
 295 477 265 501 202 501 c 2
 178 501 l 1
 184 535 l 1
 210 535 l 2
 286 535 326 573 326 646 c 0
 326 683 311 700 280 700 c 0
 247 700 221 679 215 645 c 2
 214 640 l 1
 174 640 l 1
 188 713 l 1
 227 727 267 734 311 734 c 0
 387 734 424 706 424 649 c 0x99
 424 585 384 546 294 522 c 1
 364 509 393 481 393 427 c 0
 393 339 317 279 207 279 c 0
 163 279 129 284 101 295 c 1x9a
99 -18 m 1
 792 741 l 1
 852 741 l 1xa6
 160 -18 l 1
 99 -18 l 1
593 116 m 1
 436 116 l 1
 449 177 l 1
 664 439 l 1
 748 439 l 1
 698 188 l 1
 746 188 l 1
 731 116 l 1
 683 116 l 1
 678 89 l 2
 675 77 673 58 673 51 c 0
 673 41 680 35 695 35 c 2
 703 34 l 1
 708 34 l 1
 702 0 l 1
 528 0 l 1x62
 535 34 l 1
 540 34 l 2
 572 35 577 40 587 89 c 2
 593 116 l 1
500 188 m 1
 607 188 l 1
 641 360 l 1
 500 188 l 1
EndSplineSet
EndChar
StartChar: questiondown
Encoding: 191 191 235
Width: 500
Flags: MW
HStem: -205 45<244 271.5> 415 121<329 450 305 474>
VStem: 21 157<-88.5 -38.5>
LayerCount: 2
Fore
SplineSet
474 536 m 1
 450 415 l 1
 305 415 l 1
 329 536 l 1
 474 536 l 1
433 332 m 1
 431 324 l 2
 421 271 386 221 328 179 c 2
 292 152 l 2
 216 97 178 28 178 -52 c 0
 178 -125 211 -160 277 -160 c 0
 339 -160 377 -134 387 -86 c 2
 395 -48 l 1
 397 -39 l 1
 464 -39 l 1
 437 -173 l 1
 368 -195 306 -205 237 -205 c 0
 103 -205 21 -153 21 -69 c 0
 21 -8 55 39 135 90 c 0
 155 103 170 113 177 118 c 2
 203 137 l 2
 236 162 259 204 273 266 c 2
 287 322 l 1
 288 332 l 1
 433 332 l 1
EndSplineSet
EndChar
StartChar: Agrave
Encoding: 192 192 2
Width: 722
Flags: MW
HStem: 0 20 220 48<256 483 256 494 226 483>
LayerCount: 2
Fore
SplineSet
0 0 m 1
 9 45 l 1
 18 46 l 2
 44 47 67 63 86 93 c 2
 119 143 l 1
 483 729 l 1
 534 729 l 1
 666 142 l 2
 679 81 694 50 712 47 c 2
 725 46 l 1
 731 45 l 1
 722 0 l 1
 463 0 l 1
 472 45 l 1
 481 46 l 1
 499 47 l 2
 515 48 524 57 524 72 c 0
 524 78 521 96 519 109 c 2
 511 143 l 1
 494 220 l 1
 226 220 l 1
 177 142 l 2
 151 100 135 70 135 61 c 0
 135 53 142 48 156 47 c 2
 169 46 l 1
 178 45 l 1
 168 0 l 1
 0 0 l 1
256 268 m 1
 483 268 l 1
 424 536 l 1
 256 268 l 1
609 783 m 1
 545 783 l 1
 377 940 l 1
 523 940 l 1
 609 783 l 1
EndSplineSet
EndChar
StartChar: Atilde
Encoding: 195 195 5
Width: 722
Flags: W
HStem: 0 20 220 48<256 483 256 494 226 483> 783 79<612 625> 834 79<441 453>
LayerCount: 2
Fore
SplineSet
0 0 m 1xd0
 9 45 l 1
 18 46 l 2
 44 47 67 63 86 93 c 2
 119 143 l 1
 483 729 l 1
 534 729 l 1
 666 142 l 2
 679 81 694 50 712 47 c 2
 725 46 l 1
 731 45 l 1
 722 0 l 1
 463 0 l 1
 472 45 l 1
 481 46 l 1
 499 47 l 2
 515 48 524 57 524 72 c 0
 524 78 521 96 519 109 c 2
 511 143 l 1
 494 220 l 1
 226 220 l 1
 177 142 l 2
 151 100 135 70 135 61 c 0
 135 53 142 48 156 47 c 2
 169 46 l 1
 178 45 l 1
 168 0 l 1
 0 0 l 1xd0
256 268 m 1
 483 268 l 1
 424 536 l 1
 256 268 l 1
395 783 m 1
 349 783 l 1
 372 874 409 913 473 913 c 0x10
 493 913 514 907 535 896 c 2
 567 879 l 2
 588 868 606 862 618 862 c 0
 645 862 661 878 670 913 c 1
 716 913 l 1
 694 822 657 783 593 783 c 0x20
 572 783 550 789 530 799 c 2
 498 817 l 2
 476 828 459 834 447 834 c 0
 420 834 404 818 395 783 c 1
EndSplineSet
EndChar
StartChar: Adieresis
Encoding: 196 196 0
Width: 722
Flags: MW
HStem: 0 20 220 48<256 483 256 494 226 483> 783 103<369 492 389 471 588 670 389 568>
LayerCount: 2
Fore
SplineSet
0 0 m 1
 9 45 l 1
 18 46 l 2
 44 47 67 63 86 93 c 2
 119 143 l 1
 483 729 l 1
 534 729 l 1
 666 142 l 2
 679 81 694 50 712 47 c 2
 725 46 l 1
 731 45 l 1
 722 0 l 1
 463 0 l 1
 472 45 l 1
 481 46 l 1
 499 47 l 2
 515 48 524 57 524 72 c 0
 524 78 521 96 519 109 c 2
 511 143 l 1
 494 220 l 1
 226 220 l 1
 177 142 l 2
 151 100 135 70 135 61 c 0
 135 53 142 48 156 47 c 2
 169 46 l 1
 178 45 l 1
 168 0 l 1
 0 0 l 1
256 268 m 1
 483 268 l 1
 424 536 l 1
 256 268 l 1
369 783 m 1
 389 886 l 1
 492 886 l 1
 471 783 l 1
 369 783 l 1
568 783 m 1
 588 886 l 1
 690 886 l 1
 670 783 l 1
 568 783 l 1
EndSplineSet
EndChar
StartChar: Aring
Encoding: 197 197 6
Width: 722
Flags: MW
HStem: 0 20 220 48<256 483 256 494 226 483> 730 45<498.5 540 498.5 545> 914 45<524 565>
VStem: 415 46<812 852.5 812 858> 603 46<836.5 877>
LayerCount: 2
Fore
SplineSet
0 0 m 1
 9 45 l 1
 18 46 l 2
 44 47 67 63 86 93 c 2
 119 143 l 1
 483 729 l 1
 534 729 l 1
 666 142 l 2
 679 81 694 50 712 47 c 2
 725 46 l 1
 731 45 l 1
 722 0 l 1
 463 0 l 1
 472 45 l 1
 481 46 l 1
 499 47 l 2
 515 48 524 57 524 72 c 0
 524 78 521 96 519 109 c 2
 511 143 l 1
 494 220 l 1
 226 220 l 1
 177 142 l 2
 151 100 135 70 135 61 c 0
 135 53 142 48 156 47 c 2
 169 46 l 1
 178 45 l 1
 168 0 l 1
 0 0 l 1
256 268 m 1
 483 268 l 1
 424 536 l 1
 256 268 l 1
555 959 m 0
 610 959 649 921 649 867 c 0
 649 795 582 730 508 730 c 0
 454 730 415 768 415 822 c 0
 415 894 481 959 555 959 c 0
547 914 m 0
 501 914 461 875 461 830 c 0
 461 794 480 775 517 775 c 0
 563 775 603 814 603 859 c 0
 603 895 583 914 547 914 c 0
EndSplineSet
EndChar
StartChar: AE
Encoding: 198 198 159
Width: 1000
Flags: MW
HStem: 0 51<704 802 704 971> 214 45<283 498 242 507> 358 42<680 810 671 818> 675 48<735 927 735 735>
LayerCount: 2
Fore
SplineSet
0 0 m 1
 9 45 l 1
 19 46 l 2
 41 47 60 61 83 90 c 2
 124 139 l 1
 600 723 l 1
 1095 723 l 1
 1069 593 l 1
 984 593 l 1
 986 602 l 2
 988 618 989 623 990 632 c 2
 991 635 l 2
 991 637 992 639 992 639 c 2
 993 641 993 642 993 642 c 1
 995 646 l 2
 995 647 993 650 991 657 c 0
 988 668 962 675 927 675 c 2
 735 675 l 1
 680 400 l 1
 818 400 l 1
 866 401 l 2
 890 401 893 403 898 426 c 2
 900 433 l 1
 901 440 l 1
 904 448 l 1
 906 458 l 1
 969 458 l 1
 938 301 l 1
 875 301 l 1
 876 310 l 2
 876 311 876 313 877 315 c 2
 877 320 l 1
 878 324 l 1
 879 327 l 2
 879 329 879 335 880 343 c 0
 880 352 874 355 855 356 c 2
 810 358 l 1
 671 358 l 1
 628 142 l 2
 623 120 620 91 620 76 c 0
 620 59 631 53 664 52 c 2
 704 51 l 1
 802 51 l 1
 857 52 l 2
 880 53 894 62 900 80 c 2
 912 127 l 1
 914 136 l 1
 999 136 l 1
 971 0 l 1
 377 0 l 1
 386 45 l 1
 395 46 l 2
 459 50 460 51 471 93 c 2
 483 142 l 1
 498 214 l 1
 242 214 l 1
 181 139 l 2
 164 119 158 111 150 100 c 2
 132 76 l 2
 127 68 125 64 125 60 c 0
 125 51 132 48 153 47 c 2
 175 46 l 1
 184 46 l 1
 175 0 l 1
 0 0 l 1
283 259 m 1
 507 259 l 1
 580 622 l 1
 283 259 l 1
EndSplineSet
EndChar
StartChar: Ccedilla
Encoding: 199 199 8
Width: 722
Flags: W
HStem: -211 43<351.5 365.5 341.5 404> -18 61<403 477> 0 20 693 48<510 604.5>
VStem: 103 157<176.5 281.5 176.5 327> 401 97<-140 -115>
LayerCount: 2
Fore
SplineSet
704 96 m 1xdc
 690 28 l 1
 601 -4 523 -18 431 -18 c 0
 212 -18 103 77 103 269 c 0
 103 385 142 496 214 585 c 0
 300 690 419 741 582 741 c 0
 658 741 728 731 813 709 c 1
 784 560 l 1
 699 560 l 1
 701 569 l 1
 705 598 l 2
 707 611 708 619 708 623 c 0
 708 661 643 693 566 693 c 0
 454 693 366 625 313 497 c 0
 281 419 260 320 260 243 c 0
 260 110 332 43 474 43 c 0
 542 43 611 59 704 96 c 1xdc
286 -199 m 1
 294 -157 l 1
 318 -165 334 -168 349 -168 c 0
 382 -168 401 -153 401 -127 c 0
 401 -103 377 -92 320 -91 c 1
 384 0 l 1
 437 0 l 1xac
 398 -56 l 1
 469 -60 498 -80 498 -121 c 0
 498 -175 444 -211 364 -211 c 0
 339 -211 315 -207 286 -199 c 1
EndSplineSet
EndChar
StartChar: Igrave
Encoding: 204 204 22
Width: 389
Flags: MW
HStem: 0 20 703 20<186 493 493 493>
LayerCount: 2
Fore
SplineSet
41 0 m 1
 50 45 l 1
 59 46 l 2
 123 50 124 51 135 93 c 2
 147 142 l 1
 235 582 l 1
 243 630 l 1
 246 646 l 1
 245 664 224 675 186 678 c 2
 177 678 l 1
 186 723 l 1
 493 723 l 1
 484 678 l 1
 475 678 l 2
 437 675 416 670 413 665 c 0
 407 659 403 647 398 630 c 2
 386 582 l 1
 298 142 l 1
 291 93 l 1
 288 77 l 1
 289 59 310 48 348 46 c 2
 357 45 l 1
 348 0 l 1
 41 0 l 1
461 783 m 1
 396 783 l 1
 229 940 l 1
 375 940 l 1
 461 783 l 1
EndSplineSet
EndChar
StartChar: Icircumflex
Encoding: 206 206 23
Width: 389
Flags: MW
HStem: 0 20 703 20<186 493 493 493>
LayerCount: 2
Fore
SplineSet
41 0 m 1
 50 45 l 1
 59 46 l 2
 123 50 124 51 135 93 c 2
 147 142 l 1
 235 582 l 1
 243 630 l 1
 246 646 l 1
 245 664 224 675 186 678 c 2
 177 678 l 1
 186 723 l 1
 493 723 l 1
 484 678 l 1
 475 678 l 2
 437 675 416 670 413 665 c 0
 407 659 403 647 398 630 c 2
 386 582 l 1
 298 142 l 1
 291 93 l 1
 288 77 l 1
 289 59 310 48 348 46 c 2
 357 45 l 1
 348 0 l 1
 41 0 l 1
173 783 m 1
 322 940 l 1
 443 940 l 1
 529 783 l 1
 472 783 l 1
 370 878 l 1
 231 783 l 1
 173 783 l 1
EndSplineSet
EndChar
StartChar: Ntilde
Encoding: 209 209 29
Width: 722
Flags: W
HStem: -10 20 0 20 703 20<166 354 354 354 602 829 829 829> 783 79<607 620> 834 79<436 448.5>
LayerCount: 2
Fore
SplineSet
21 0 m 1x40
 30 45 l 1
 39 46 l 2
 103 50 104 51 115 93 c 2
 127 142 l 1
 215 582 l 1
 223 630 l 1
 226 646 l 1
 225 664 204 675 166 678 c 2
 157 678 l 1
 166 723 l 1
 354 723 l 1
 572 186 l 1
 651 582 l 1
 659 630 l 1
 662 647 l 2
 661 664 640 675 602 678 c 2
 592 678 l 1
 602 723 l 1
 829 723 l 1
 820 678 l 1
 811 678 l 2
 775 675 752 670 750 665 c 0
 744 658 740 647 735 630 c 2
 723 582 l 1
 605 -10 l 1
 499 -10 l 1xa0
 276 528 l 1
 199 142 l 1
 192 93 l 1
 189 77 l 1
 190 59 210 48 250 46 c 2
 258 45 l 1
 249 0 l 1
 21 0 l 1x40
390 783 m 1x48
 344 783 l 1
 367 874 404 913 468 913 c 0x08
 488 913 510 907 530 896 c 2
 563 879 l 2
 582 868 601 862 613 862 c 0
 640 862 656 878 666 913 c 1
 711 913 l 1
 689 822 652 783 588 783 c 0x10
 567 783 545 789 525 799 c 2
 493 817 l 2
 471 828 455 834 442 834 c 0
 415 834 399 818 390 783 c 1x48
EndSplineSet
EndChar
StartChar: Oacute
Encoding: 211 211 31
Width: 778
Flags: MW
HStem: -18 48<349.5 432 349.5 445.5> 693 48<490.5 577>
VStem: 101 155<177 285.5 160.5 330.5> 673 155<430.5 547.5 391 561>
LayerCount: 2
Fore
SplineSet
538 741 m 0
 723 741 828 638 828 457 c 0
 828 325 784 210 700 120 c 0
 615 28 508 -18 383 -18 c 0
 206 -18 101 88 101 266 c 0
 101 395 144 511 228 602 c 0
 312 695 416 741 538 741 c 0
529 693 m 0
 452 693 390 648 338 555 c 0
 285 460 256 344 256 227 c 0
 256 94 302 30 397 30 c 0
 467 30 526 67 574 141 c 0
 637 235 673 366 673 495 c 0
 673 627 625 693 529 693 c 0
484 783 m 1
 632 940 l 1
 779 940 l 1
 548 783 l 1
 484 783 l 1
EndSplineSet
EndChar
StartChar: Otilde
Encoding: 213 213 34
Width: 778
Flags: W
HStem: -18 48<349.5 432 349.5 445.5> 693 48<490.5 577> 783 79<641 653> 834 79<470 482>
VStem: 101 155<177 285.5 160.5 330.5> 673 155<430.5 547.5 391 561>
LayerCount: 2
Fore
SplineSet
538 741 m 0xdc
 723 741 828 638 828 457 c 0
 828 325 784 210 700 120 c 0
 615 28 508 -18 383 -18 c 0
 206 -18 101 88 101 266 c 0
 101 395 144 511 228 602 c 0
 312 695 416 741 538 741 c 0xdc
529 693 m 0
 452 693 390 648 338 555 c 0
 285 460 256 344 256 227 c 0
 256 94 302 30 397 30 c 0
 467 30 526 67 574 141 c 0
 637 235 673 366 673 495 c 0
 673 627 625 693 529 693 c 0
423 783 m 1
 378 783 l 1
 401 874 438 913 502 913 c 0x1c
 522 913 543 907 563 896 c 2
 596 879 l 2
 617 868 635 862 647 862 c 0
 674 862 690 878 699 913 c 1
 745 913 l 1
 723 822 685 783 621 783 c 0x2c
 601 783 579 789 559 799 c 2
 527 817 l 2
 506 828 488 834 476 834 c 0
 449 834 432 818 423 783 c 1
EndSplineSet
EndChar
StartChar: multiply
Encoding: 215 215 261
Width: 570
Flags: MW
HStem: 516 20<208 208 575 575>
LayerCount: 2
Fore
SplineSet
74 119 m 1
 294 302 l 1
 147 485 l 1
 208 536 l 1
 355 353 l 1
 575 536 l 1
 616 485 l 1
 396 302 l 1
 542 119 l 1
 481 67 l 1
 335 250 l 1
 115 67 l 1
 74 119 l 1
EndSplineSet
EndChar
StartChar: Oslash
Encoding: 216 216 161
Width: 778
Flags: MW
HStem: -18 48<362.5 445 362.5 450> 693 48<478 560.5>
VStem: 98 155<237.5 239 237.5 331.5> 670 155<484 486>
LayerCount: 2
Fore
SplineSet
33 -18 m 1
 147 91 l 1
 112 149 98 199 98 267 c 0
 98 396 142 512 225 603 c 0
 309 695 414 741 537 741 c 0
 626 741 689 719 749 666 c 1
 827 741 l 1
 890 741 l 1
 777 633 l 1
 812 574 825 525 825 456 c 0
 825 328 781 212 699 121 c 0
 615 29 511 -18 389 -18 c 0
 301 -18 236 4 174 57 c 1
 96 -18 l 1
 33 -18 l 1
668 529 m 1
 263 142 l 1
 285 65 327 30 398 30 c 0
 492 30 570 103 620 238 c 0
 634 276 647 323 657 369 c 0
 664 406 672 472 670 484 c 0
 670 488 669 490 669 490 c 1
 668 529 l 1
255 194 m 1
 660 582 l 1
 638 659 596 693 525 693 c 0
 431 693 353 620 303 485 c 0
 289 447 276 401 266 354 c 0
 259 317 251 252 253 239 c 0
 253 236 254 234 254 234 c 1
 255 194 l 1
EndSplineSet
EndChar
StartChar: Yacute
Encoding: 221 221 48
Width: 722
Flags: MW
HStem: 0 20 703 20<146 459 459 459 667 866 866 866>
LayerCount: 2
Fore
SplineSet
205 0 m 1
 215 45 l 1
 224 46 l 2
 287 50 289 51 300 93 c 2
 312 142 l 1
 346 313 l 1
 236 577 l 2
 219 617 213 630 212 634 c 0
 203 660 190 675 172 676 c 2
 146 678 l 1
 137 678 l 1
 146 723 l 1
 459 723 l 1
 450 678 l 1
 442 678 l 1
 418 678 l 2
 392 677 381 671 381 658 c 0
 381 644 389 618 406 577 c 2
 489 376 l 1
 654 577 l 2
 694 626 713 653 713 663 c 0
 713 673 698 678 669 678 c 2
 658 678 l 1
 667 723 l 1
 866 723 l 1
 857 678 l 1
 847 678 l 1
 826 676 l 2
 805 673 790 664 773 643 c 2
 718 577 l 1
 497 314 l 1
 463 142 l 1
 456 93 l 1
 452 77 l 1
 454 59 474 49 513 46 c 2
 522 45 l 1
 512 0 l 1
 205 0 l 1
453 783 m 1
 602 940 l 1
 748 940 l 1
 518 783 l 1
 453 783 l 1
EndSplineSet
EndChar
StartChar: Thorn
Encoding: 222 222 165
Width: 614
Flags: MW
HStem: 0 20 703 20<166 467 467 467>
VStem: 522 154<404 462 404 463>
LayerCount: 2
Fore
SplineSet
21 0 m 1
 30 45 l 1
 39 46 l 2
 103 50 104 51 115 93 c 2
 127 142 l 1
 215 582 l 1
 223 630 l 1
 226 646 l 1
 225 664 204 675 166 678 c 2
 157 678 l 1
 166 723 l 1
 467 723 l 1
 458 678 l 1
 449 678 l 1
 388 672 383 666 359 578 c 1
 406 578 l 2
 515 578 581 570 612 553 c 0
 654 531 676 489 676 435 c 0
 676 373 652 309 609 258 c 0
 547 185 454 150 321 150 c 2
 274 150 l 1
 269 122 266 102 263 90 c 0
 262 85 261 74 261 69 c 0
 261 57 271 50 294 48 c 2
 322 46 l 1
 331 45 l 1
 322 0 l 1
 21 0 l 1
284 199 m 1
 314 199 l 2
 437 199 522 292 522 428 c 0
 522 498 484 531 404 531 c 2
 350 531 l 1
 284 199 l 1
EndSplineSet
EndChar
StartChar: germandbls
Encoding: 223 223 195
Width: 556
Flags: W
HStem: -12 45<365.5 400 365.5 431> 0 20 738 46<388 429.5>
VStem: 464 128<653.5 693.5>
LayerCount: 2
Fore
SplineSet
15 0 m 1x70
 24 45 l 1
 33 46 l 2
 58 48 73 63 80 93 c 2
 90 142 l 1
 171 544 l 2
 203 704 289 784 429 784 c 0
 526 784 592 740 592 675 c 0
 592 632 564 593 502 552 c 2
 478 535 l 2
 431 504 410 480 410 457 c 0
 410 441 419 426 444 401 c 2
 471 373 l 1
 515 319 l 1
 550 279 l 2
 572 254 584 220 584 187 c 0
 584 80 487 -12 375 -12 c 0
 339 -12 309 -5 277 9 c 1
 301 127 l 1
 348 127 l 1
 348 118 l 2
 345 95 343 78 342 64 c 0
 342 44 354 33 377 33 c 0xb0
 423 33 459 77 459 132 c 0
 459 152 447 176 420 211 c 2
 379 264 l 1
 336 309 l 2
 321 325 311 353 311 379 c 0
 311 421 335 461 389 509 c 2
 406 524 l 2
 444 558 464 608 464 671 c 0
 464 716 447 738 412 738 c 0
 364 738 341 700 317 583 c 2
 229 142 l 1
 220 93 l 2
 218 82 217 75 217 69 c 0
 217 55 225 47 242 46 c 2
 250 45 l 1
 242 0 l 1
 15 0 l 1x70
EndSplineSet
EndChar
StartChar: acircumflex
Encoding: 226 226 69
Width: 500
Flags: MW
HStem: -12 20 503 45<334.5 354>
VStem: 53 149<105 169.5 105 171.5> 389 139<447 468 421.5 469.5>
LayerCount: 2
Fore
SplineSet
503 45 m 1
 494 -2 l 1
 469 -9 449 -12 431 -12 c 0
 382 -12 352 11 334 62 c 1
 279 10 233 -12 178 -12 c 0
 101 -12 53 33 53 106 c 0
 53 237 164 319 341 319 c 2
 366 319 l 1
 378 384 l 2
 387 429 389 441 389 453 c 0
 389 486 371 503 337 503 c 0
 294 503 265 480 255 437 c 2
 248 406 l 1
 245 397 l 1
 155 397 l 1
 177 506 l 1
 247 535 303 548 366 548 c 0
 474 548 528 508 528 428 c 0
 528 415 527 403 523 385 c 2
 476 150 l 1
 470 108 l 1
 465 79 l 2
 464 78 464 70 464 68 c 0
 464 52 473 43 489 43 c 0
 492 43 496 44 501 45 c 2xf0
 503 45 l 1
321 98 m 1
 357 275 l 1
 338 275 l 2
 257 275 202 214 202 125 c 0
 202 85 219 65 252 65 c 0
 269 65 292 74 312 91 c 2
 321 98 l 1
204 626 m 1
 352 783 l 1
 473 783 l 1
 559 626 l 1
 502 626 l 1
 401 721 l 1
 261 626 l 1
 204 626 l 1
EndSplineSet
EndChar
StartChar: atilde
Encoding: 227 227 71
Width: 500
Flags: W
HStem: -12 20 503 45<334.5 354> 627 79<469 482.5> 678 79<297.5 311>
VStem: 53 149<105 169.5 105 171.5> 389 139<447 468 421.5 469.5>
LayerCount: 2
Fore
SplineSet
503 45 m 1
 494 -2 l 1
 469 -9 449 -12 431 -12 c 0
 382 -12 352 11 334 62 c 1
 279 10 233 -12 178 -12 c 0
 101 -12 53 33 53 106 c 0
 53 237 164 319 341 319 c 2
 366 319 l 1
 378 384 l 2
 387 429 389 441 389 453 c 0
 389 486 371 503 337 503 c 0
 294 503 265 480 255 437 c 2
 248 406 l 1
 245 397 l 1
 155 397 l 1
 177 506 l 1
 247 535 303 548 366 548 c 0
 474 548 528 508 528 428 c 0
 528 415 527 403 523 385 c 2
 476 150 l 1
 470 108 l 1
 465 79 l 2
 464 78 464 70 464 68 c 0
 464 52 473 43 489 43 c 0
 492 43 496 44 501 45 c 2xcc
 503 45 l 1
321 98 m 1
 357 275 l 1
 338 275 l 2
 257 275 202 214 202 125 c 0
 202 85 219 65 252 65 c 0
 269 65 292 74 312 91 c 2
 321 98 l 1
252 627 m 1
 207 627 l 1
 229 718 266 757 329 757 c 0x10
 351 757 370 752 392 740 c 2
 425 723 l 2
 444 712 463 706 475 706 c 0
 502 706 519 722 528 757 c 1
 573 757 l 1
 551 666 514 627 451 627 c 0x20
 429 627 410 632 388 643 c 2
 355 660 l 2
 331 673 317 678 305 678 c 0x10
 278 678 261 662 252 627 c 1
EndSplineSet
EndChar
StartChar: aring
Encoding: 229 229 72
Width: 500
Flags: MW
HStem: -12 20 503 45<334.5 354> 626 45<360.5 401.5 360.5 407> 811 45<385 426>
VStem: 53 46 53 149<105 169.5 105 171.5> 240 46 389 139<447 468 421.5 469.5>
LayerCount: 2
Fore
SplineSet
503 45 m 1
 494 -2 l 1
 469 -9 449 -12 431 -12 c 0
 382 -12 352 11 334 62 c 1
 279 10 233 -12 178 -12 c 0
 101 -12 53 33 53 106 c 0
 53 237 164 319 341 319 c 2
 366 319 l 1
 378 384 l 2
 387 429 389 441 389 453 c 0
 389 486 371 503 337 503 c 0
 294 503 265 480 255 437 c 2
 248 406 l 1
 245 397 l 1
 155 397 l 1
 177 506 l 1
 247 535 303 548 366 548 c 0
 474 548 528 508 528 428 c 0
 528 415 527 403 523 385 c 2
 476 150 l 1
 470 108 l 1
 465 79 l 2
 464 78 464 70 464 68 c 0
 464 52 473 43 489 43 c 0
 492 43 496 44 501 45 c 2xc5
 503 45 l 1
321 98 m 1
 357 275 l 1
 338 275 l 2
 257 275 202 214 202 125 c 0
 202 85 219 65 252 65 c 0
 269 65 292 74 312 91 c 2
 321 98 l 1
417 856 m 0
 471 856 510 818 510 764 c 0
 510 691 444 626 370 626 c 0
 315 626 277 664 277 718 c 0x3a
 277 791 343 856 417 856 c 0
408 811 m 0
 362 811 323 772 323 726 c 0
 323 690 342 671 379 671 c 0
 424 671 464 710 464 756 c 0
 464 792 444 811 408 811 c 0
EndSplineSet
EndChar
StartChar: ae
Encoding: 230 230 192
Width: 722
Flags: W
HStem: -12 73<550 560> 264 45<511 613 511 746 499 613> 502 46<604 618> 503 45<334 354>
VStem: 53 149<106 170.5 106 172.5> 636 128<446.5 450 384.5 473.5>
LayerCount: 2
Fore
SplineSet
155 397 m 1xdc
 177 506 l 1
 246 535 303 548 365 548 c 0x5c
 424 548 463 536 496 509 c 1
 540 536 580 548 628 548 c 0x2c
 718 548 764 499 764 401 c 0
 764 368 757 311 749 275 c 2
 746 264 l 1
 499 264 l 1
 491 224 487 190 487 165 c 0
 487 96 519 61 581 61 c 0
 620 61 660 71 713 95 c 1
 698 21 l 1
 635 -2 588 -12 532 -12 c 0
 442 -12 400 12 357 88 c 1
 293 17 240 -12 177 -12 c 0
 101 -12 53 33 53 107 c 0
 53 238 163 320 341 320 c 2
 366 320 l 1
 378 384 l 2
 387 429 389 441 389 453 c 0
 389 486 371 503 337 503 c 0
 294 503 265 480 255 437 c 2
 248 406 l 1
 245 397 l 1
 155 397 l 1xdc
357 276 m 1
 338 276 l 2
 257 276 202 215 202 126 c 0
 202 86 219 65 252 65 c 0
 269 65 291 74 312 91 c 2
 321 98 l 1
 357 276 l 1
511 309 m 1
 613 309 l 1
 629 389 636 433 636 460 c 0
 636 487 627 502 609 502 c 0x6c
 572 502 543 444 511 309 c 1
EndSplineSet
EndChar
StartChar: ccedilla
Encoding: 231 231 76
Width: 444
Flags: MW
HStem: -211 43<201.5 215.5 191.5 254> -12 71<285 293.5> 0 20 503 45<352 385.5>
VStem: 69 151<134 208 134 290> 184 97
LayerCount: 2
Fore
SplineSet
430 86 m 1
 416 13 l 1
 355 -5 314 -12 273 -12 c 0
 142 -12 69 60 69 188 c 0
 69 392 206 548 385 548 c 0
 430 548 471 541 517 524 c 1
 489 386 l 1
 407 386 l 1
 409 395 l 1
 414 431 l 1
 414 439 l 1
 414 443 l 2
 414 483 400 503 371 503 c 0
 333 503 300 471 272 407 c 0
 239 330 220 244 220 172 c 0
 220 96 252 59 318 59 c 0x58
 349 59 385 67 430 86 c 1
136 -199 m 1
 144 -157 l 1
 168 -165 184 -168 199 -168 c 0
 232 -168 251 -153 251 -127 c 0
 251 -103 227 -92 171 -91 c 1
 234 0 l 1
 287 0 l 1
 249 -56 l 1
 319 -60 348 -80 348 -121 c 0
 348 -174 294 -211 214 -211 c 0xa4
 189 -211 166 -207 136 -199 c 1
EndSplineSet
EndChar
StartChar: idieresis
Encoding: 239 239 86
Width: 278
Flags: MW
HStem: 0 20 516 20<126 324 324 324> 626 103<113 236 133 215 332 414 133 311>
LayerCount: 2
Fore
SplineSet
19 0 m 1
 28 45 l 1
 37 46 l 2
 76 49 81 54 90 93 c 2
 100 142 l 1
 151 394 l 1
 160 443 l 2
 162 456 163 460 163 464 c 0
 163 480 150 489 126 490 c 2
 117 491 l 1
 126 536 l 1
 324 536 l 1
 245 142 l 1
 236 93 l 2
 234 79 233 76 233 72 c 0
 233 57 246 47 269 46 c 2
 279 45 l 1
 269 0 l 1
 19 0 l 1
113 626 m 1
 133 729 l 1
 236 729 l 1
 215 626 l 1
 113 626 l 1
311 626 m 1
 332 729 l 1
 435 729 l 1
 414 626 l 1
 311 626 l 1
EndSplineSet
EndChar
StartChar: eth
Encoding: 240 240 201
Width: 500
Flags: MW
HStem: -12 45<246.5 281.5 246.5 329> 479 45<329 347.5 264 365.5>
VStem: 66 141<125 142 86 277> 398 150<377 432.5>
LayerCount: 2
Fore
SplineSet
191 530 m 1
 173 563 l 1
 303 670 l 1
 265 701 220 719 167 726 c 1
 176 771 l 1
 191 771 l 2
 256 771 309 757 369 724 c 1
 485 819 l 1
 504 786 l 1
 403 703 l 1
 505 614 548 520 548 387 c 0
 548 167 413 -12 245 -12 c 0
 133 -12 66 63 66 187 c 0
 66 367 192 524 336 524 c 0
 359 524 377 520 400 510 c 1
 387 560 365 604 331 645 c 1
 191 530 l 1
350 479 m 0
 308 479 276 441 252 362 c 0
 226 276 207 172 207 112 c 0
 207 60 227 33 266 33 c 0
 297 33 323 61 343 117 c 0
 369 187 398 344 398 410 c 0
 398 455 381 479 350 479 c 0
EndSplineSet
EndChar
StartChar: ntilde
Encoding: 241 241 94
Width: 556
Flags: W
HStem: 0 20 516 20<122 320 320 320> 528 20<439.5 510> 627 79<492 505.5> 678 79<320.5 334>
VStem: 436 147<414 479>
LayerCount: 2
Fore
SplineSet
15 0 m 1
 24 45 l 1
 34 46 l 2
 72 49 77 54 86 93 c 2
 97 142 l 1
 147 394 l 1
 156 443 l 2
 159 456 160 460 160 464 c 0
 160 480 147 489 122 490 c 2
 114 491 l 1
 122 536 l 1
 320 536 l 1xc4
 302 447 l 1
 354 518 405 548 474 548 c 0
 546 548 583 513 583 445 c 0
 583 426 580 401 576 379 c 2
 529 142 l 1
 520 93 l 2
 517 80 516 76 516 72 c 0
 516 56 529 47 553 46 c 2
 562 45 l 1
 553 0 l 1
 308 0 l 1
 318 45 l 1
 327 46 l 2
 352 48 367 63 373 93 c 2
 384 142 l 1
 428 363 l 2
 433 387 436 409 436 419 c 0
 436 445 420 460 392 460 c 0
 357 460 327 440 291 393 c 1
 241 142 l 1
 232 93 l 2
 230 80 229 75 229 71 c 0
 229 56 240 47 260 46 c 2
 269 45 l 1
 260 0 l 1xa4
 15 0 l 1
275 627 m 1
 230 627 l 1
 252 718 289 757 352 757 c 0x08
 374 757 393 752 415 740 c 2
 448 723 l 2
 467 712 486 706 498 706 c 0
 525 706 542 722 551 757 c 1
 596 757 l 1
 574 666 537 627 474 627 c 0x10
 452 627 433 632 411 643 c 2
 378 660 l 2
 354 673 340 678 328 678 c 0x08
 301 678 284 662 275 627 c 1
EndSplineSet
EndChar
StartChar: ocircumflex
Encoding: 244 244 98
Width: 500
Flags: MW
HStem: -12 51<246 293 246 330.5> 497 51<340 368>
VStem: 69 145<122 183 104 291> 399 145<317.5 414 244 432>
LayerCount: 2
Fore
SplineSet
365 548 m 0
 485 548 544 481 544 347 c 0
 544 141 416 -12 245 -12 c 0
 128 -12 69 55 69 189 c 0xf0
 69 393 197 548 365 548 c 0
353 497 m 0
 327 497 301 471 276 416 c 0
 237 333 214 229 214 137 c 0
 214 71 230 39 262 39 c 0
 324 39 399 235 399 400 c 0
 399 464 383 497 353 497 c 0
200 626 m 1
 348 783 l 1
 469 783 l 1
 555 626 l 1
 498 626 l 1
 397 721 l 1
 257 626 l 1
 200 626 l 1
EndSplineSet
EndChar
StartChar: otilde
Encoding: 245 245 99
Width: 500
Flags: W
HStem: -12 51<246 293 246 330.5> 497 51<340 368> 627 79<470 483.5> 678 79<298.5 312>
VStem: 69 145<122 183 104 291> 399 145<317.5 414 244 432>
LayerCount: 2
Fore
SplineSet
365 548 m 0
 485 548 544 481 544 347 c 0
 544 141 416 -12 245 -12 c 0
 128 -12 69 55 69 189 c 0xcc
 69 393 197 548 365 548 c 0
353 497 m 0
 327 497 301 471 276 416 c 0
 237 333 214 229 214 137 c 0
 214 71 230 39 262 39 c 0
 324 39 399 235 399 400 c 0
 399 464 383 497 353 497 c 0
253 627 m 1
 208 627 l 1
 230 718 267 757 330 757 c 0x10
 352 757 371 752 393 740 c 2
 426 723 l 2
 445 712 464 706 476 706 c 0
 503 706 520 722 529 757 c 1
 574 757 l 1
 552 666 515 627 452 627 c 0x20
 430 627 411 632 389 643 c 2
 356 660 l 2
 332 673 318 678 306 678 c 0x10
 279 678 262 662 253 627 c 1
EndSplineSet
EndChar
StartChar: odieresis
Encoding: 246 246 95
Width: 500
Flags: MW
HStem: -12 51<246 293 246 330.5> 497 51<340 368> 626 103<228 351 249 330 447 529 249 427>
VStem: 69 145<122 183 104 291> 399 145<317.5 414 244 432>
LayerCount: 2
Fore
SplineSet
365 548 m 0
 485 548 544 481 544 347 c 0
 544 141 416 -12 245 -12 c 0
 128 -12 69 55 69 189 c 0xd8
 69 393 197 548 365 548 c 0
353 497 m 0
 327 497 301 471 276 416 c 0
 237 333 214 229 214 137 c 0
 214 71 230 39 262 39 c 0
 324 39 399 235 399 400 c 0
 399 464 383 497 353 497 c 0
228 626 m 1
 249 729 l 1
 351 729 l 1
 330 626 l 1x20
 228 626 l 1
427 626 m 1
 447 729 l 1
 549 729 l 1
 529 626 l 1
 427 626 l 1
EndSplineSet
EndChar
StartChar: divide
Encoding: 247 247 262
Width: 570
Flags: MW
HStem: 12 120<227 372 251 348> 253 72<95 591 109 577> 445 121<314 459 338 434>
LayerCount: 2
Fore
SplineSet
95 253 m 1
 109 325 l 1
 591 325 l 1
 577 253 l 1
 95 253 l 1
314 445 m 1
 338 566 l 1
 459 566 l 1
 434 445 l 1
 314 445 l 1
227 12 m 1
 251 132 l 1
 372 132 l 1
 348 12 l 1
 227 12 l 1
EndSplineSet
EndChar
StartChar: oslash
Encoding: 248 248 194
Width: 500
Flags: MW
HStem: -12 51<243 288 243 331> 497 51<320 365>
LayerCount: 2
Fore
SplineSet
115 37 m 1
 70 -12 l 1
 19 -12 l 1
 93 68 l 1
 74 106 67 140 67 189 c 0
 67 393 194 548 361 548 c 0
 419 548 458 533 493 499 c 1
 539 548 l 1
 589 548 l 1
 515 468 l 1
 534 431 542 396 542 347 c 0
 542 144 414 -12 248 -12 c 0
 191 -12 151 3 115 37 c 1
391 334 m 1
 212 142 l 1
 213 70 227 39 259 39 c 0
 317 39 357 129 391 334 c 1
217 202 m 1
 396 394 l 1
 395 466 381 497 349 497 c 0
 291 497 251 407 217 202 c 1
EndSplineSet
EndChar
StartChar: thorn
Encoding: 254 254 202
Width: 556
Flags: W
HStem: -12 20 0 20 528 20<415 498>
LayerCount: 2
Fore
SplineSet
276 397 m 1x40
 213 81 l 1
 243 65 265 57 285 57 c 0
 371 57 445 194 445 353 c 0
 445 422 423 455 375 455 c 0
 341 455 311 437 276 397 c 1x40
-39 -193 m 1
 -30 -148 l 1
 -21 -147 l 2
 18 -144 23 -139 32 -100 c 2
 42 -51 l 1
 178 629 l 1
 187 678 l 2
 190 690 191 695 191 699 c 0
 191 715 180 723 154 725 c 2
 145 726 l 1
 154 771 l 1
 351 771 l 1
 287 447 l 1
 336 519 382 548 448 548 c 0
 548 548 599 485 599 362 c 0
 599 151 463 -12 288 -12 c 0xa0
 261 -12 235 -9 197 0 c 1
 187 -51 l 1
 178 -100 l 2
 176 -113 175 -117 175 -121 c 0
 175 -136 188 -146 211 -147 c 2
 221 -148 l 1
 211 -193 l 1
 -39 -193 l 1
EndSplineSet
EndChar
StartChar: ydieresis
Encoding: 255 255 116
Width: 500
Flags: MW
HStem: 516 20<108 363 363 363 460 608 608 608> 626 103<279 402 300 381 498 580 300 478>
LayerCount: 2
Fore
SplineSet
98 491 m 1
 108 536 l 1
 363 536 l 1
 354 491 l 1
 345 490 l 1
 340 490 l 1
 336 490 l 2
 334 490 334 490 332 489 c 2
 327 490 l 1
 314 485 306 482 304 480 c 0
 300 475 296 463 296 457 c 0
 296 456 296 454 297 449 c 2
 297 444 l 2
 298 439 302 410 306 392 c 2
 345 192 l 1
 456 392 l 2
 460 398 463 404 466 410 c 2
 473 423 l 1
 488 454 l 2
 493 463 495 471 495 476 c 0
 495 484 488 488 473 489 c 2
 460 490 l 1
 451 491 l 1
 460 536 l 1
 608 536 l 1
 598 491 l 1
 590 490 l 1
 576 490 l 2
 560 489 544 473 530 444 c 2
 524 434 l 2
 520 426 516 420 512 411 c 2
 502 394 l 1
 175 -193 l 1
 35 -193 l 1
 233 3 l 1
 156 392 l 1
 146 443 l 2
 140 474 128 489 108 490 c 2x80
 98 491 l 1
279 626 m 1
 300 729 l 1
 402 729 l 1
 381 626 l 1x40
 279 626 l 1
478 626 m 1
 498 729 l 1
 600 729 l 1
 580 626 l 1
 478 626 l 1
EndSplineSet
EndChar
StartChar: Abreve
Encoding: 256 258 4
Width: 722
Flags: MW
HStem: 0 20 220 48<256 483 256 494 226 483> 783 84<505.5 564.5>
LayerCount: 2
Fore
SplineSet
0 0 m 1
 9 45 l 1
 18 46 l 2
 44 47 67 63 86 93 c 2
 119 143 l 1
 483 729 l 1
 534 729 l 1
 666 142 l 2
 679 81 694 50 712 47 c 2
 725 46 l 1
 731 45 l 1
 722 0 l 1
 463 0 l 1
 472 45 l 1
 481 46 l 1
 499 47 l 2
 515 48 524 57 524 72 c 0
 524 78 521 96 519 109 c 2
 511 143 l 1
 494 220 l 1
 226 220 l 1
 177 142 l 2
 151 100 135 70 135 61 c 0
 135 53 142 48 156 47 c 2
 169 46 l 1
 178 45 l 1
 168 0 l 1
 0 0 l 1
256 268 m 1
 483 268 l 1
 424 536 l 1
 256 268 l 1
379 940 m 1
 424 940 l 1
 439 889 474 867 537 867 c 0
 598 867 641 889 677 940 c 1
 723 940 l 1
 686 841 611 783 518 783 c 0
 438 783 378 841 378 918 c 2
 379 940 l 1
EndSplineSet
EndChar
StartChar: Aogonek
Encoding: 257 260 7
Width: 722
Flags: MW
HStem: -181 48<538 623> 0 20 220 48<256 483 256 494 226 483> 709 20<483 534 534 534>
VStem: 467 99<-107.5 -96.5>
LayerCount: 2
Fore
SplineSet
0 0 m 1
 9 45 l 1
 18 46 l 2
 44 47 67 63 86 93 c 2
 119 143 l 1
 483 729 l 1
 534 729 l 1
 666 142 l 2
 679 81 694 50 712 47 c 2
 725 46 l 1
 731 45 l 1
 722 0 l 1
 463 0 l 1
 472 45 l 1
 481 46 l 1
 499 47 l 2
 515 48 524 57 524 72 c 0
 524 78 521 96 519 109 c 2
 511 143 l 1
 494 220 l 1
 226 220 l 1
 177 142 l 2
 151 100 135 70 135 61 c 0
 135 53 142 48 156 47 c 2
 169 46 l 1
 178 45 l 1
 168 0 l 1
 0 0 l 1
256 268 m 1
 483 268 l 1
 424 536 l 1
 256 268 l 1
673 -122 m 1
 665 -165 l 1
 634 -176 606 -181 573 -181 c 0
 503 -181 467 -159 467 -117 c 0
 467 -76 500 -41 578 0 c 1
 627 0 l 1
 585 -33 566 -62 566 -95 c 0
 566 -120 582 -133 614 -133 c 0
 632 -133 650 -130 673 -122 c 1
EndSplineSet
EndChar
StartChar: cacute
Encoding: 296 263 74
Width: 444
Flags: MW
HStem: -12 71<285 293.5> 503 45<352 385.5>
VStem: 69 151<134 208 134 290>
LayerCount: 2
Fore
SplineSet
430 86 m 1
 416 13 l 1
 355 -5 314 -12 273 -12 c 0
 142 -12 69 60 69 188 c 0
 69 392 206 548 385 548 c 0
 430 548 471 541 517 524 c 1
 489 386 l 1
 407 386 l 1
 409 395 l 1
 414 431 l 1
 414 439 l 1
 414 443 l 2
 414 483 400 503 371 503 c 0
 333 503 300 471 272 407 c 0
 239 330 220 244 220 172 c 0
 220 96 252 59 318 59 c 0xe0
 349 59 385 67 430 86 c 1
299 626 m 1
 448 783 l 1
 594 783 l 1
 364 626 l 1
 299 626 l 1
EndSplineSet
EndChar
StartChar: Dcaron
Encoding: 260 270 11
Width: 722
Flags: MW
HStem: 0 20 703 20<166 377 377 414 414 414>
VStem: 613 158<428 546.5>
LayerCount: 2
Fore
SplineSet
21 0 m 1
 30 45 l 1
 39 46 l 2
 78 49 83 54 92 93 c 2
 102 142 l 1
 190 582 l 1
 199 630 l 2
 201 644 202 648 202 652 c 0
 202 667 189 676 166 678 c 2
 156 678 l 1
 166 723 l 1
 377 723 l 1
 414 723 l 1
 459 724 l 1
 495 725 l 1
 500 725 l 2
 678 725 771 637 771 467 c 0
 771 366 740 268 680 180 c 0
 598 59 487 0 343 0 c 2
 21 0 l 1
359 675 m 1
 252 142 l 2
 248 124 246 104 246 91 c 0
 246 61 268 51 333 51 c 0
 414 51 480 95 535 187 c 0
 585 271 613 376 613 480 c 0
 613 613 542 675 390 675 c 2
 359 675 l 1
692 940 m 1
 543 783 l 1
 422 783 l 1
 336 940 l 1
 394 940 l 1
 495 845 l 1
 635 940 l 1
 692 940 l 1
EndSplineSet
EndChar
StartChar: dcaron
Encoding: 298 271 77
Width: 733
Flags: W
HStem: -12 93<165.5 306> 0 20 479 69<336 389>
VStem: 65 155<148.5 262.5 148.5 280>
LayerCount: 2
Fore
SplineSet
359 0 m 1x70
 378 89 l 1
 328 17 281 -12 215 -12 c 0x90
 116 -12 65 51 65 174 c 0
 65 386 200 548 376 548 c 0
 403 548 429 545 467 536 c 1
 485 629 l 1
 493 678 l 1
 496 695 l 1
 494 713 475 722 436 725 c 2
 426 726 l 1
 436 771 l 1
 658 771 l 1
 532 142 l 1
 524 93 l 2
 521 80 520 76 520 72 c 0
 520 56 533 47 557 46 c 2
 566 45 l 1
 557 0 l 1
 359 0 l 1x70
387 139 m 1xb0
 451 455 l 1
 420 472 399 479 379 479 c 0
 293 479 220 342 220 183 c 0
 220 114 242 81 289 81 c 0
 323 81 353 98 387 139 c 1xb0
685 482 m 1
 694 527 l 1
 728 527 751 561 763 626 c 1
 714 626 l 1
 743 771 l 1
 869 771 l 1
 848 662 l 2
 824 550 772 491 685 482 c 1
EndSplineSet
EndChar
StartChar: Dcroat
Encoding: 333 272 163
Width: 722
Flags: W
HStem: 0 20 344 48<302 437> 703 20<166 377 377 414 414 414> 705 20<495 500 500 589>
LayerCount: 2
Fore
SplineSet
292 344 m 1xd0
 252 142 l 2
 250 132 246 95 246 88 c 0
 246 62 270 52 334 52 c 0
 414 52 479 96 534 188 c 0
 585 272 613 376 613 480 c 0
 613 613 542 675 391 675 c 2
 359 675 l 1
 302 392 l 1
 447 392 l 1
 437 344 l 1
 292 344 l 1xd0
21 0 m 1
 30 45 l 1
 39 46 l 2
 78 49 83 54 92 93 c 2
 103 142 l 1
 143 343 l 1
 90 343 l 1
 99 392 l 1
 152 392 l 1
 190 582 l 1
 199 630 l 2
 202 643 203 647 203 652 c 0
 203 667 190 676 166 678 c 2
 157 678 l 1
 166 723 l 1
 377 723 l 1
 414 723 l 1xe0
 459 724 l 1
 495 725 l 1
 500 725 l 2
 678 725 771 637 771 467 c 0
 771 366 740 267 681 180 c 0
 599 60 487 0 344 0 c 2
 21 0 l 1
EndSplineSet
EndChar
StartChar: dcroat
Encoding: 338 273 199
Width: 556
Flags: W
HStem: -12 93<165.5 306> 0 20 479 69<336 389> 609 48<358 482 349 489 636 679>
VStem: 65 155<148.5 262.5 148.5 279.5>
LayerCount: 2
Fore
SplineSet
359 0 m 1x78
 378 89 l 1
 328 17 281 -12 215 -12 c 0x88
 116 -12 65 51 65 174 c 0
 65 385 200 548 376 548 c 0
 403 548 429 545 467 536 c 1
 482 609 l 1
 349 609 l 1
 358 657 l 1
 489 657 l 1
 490 659 l 2
 490 661 491 666 492 674 c 0
 493 677 493 677 493 678 c 2
 494 686 l 2
 495 687 495 689 495 689 c 2
 496 691 496 693 496 694 c 0
 496 713 480 721 436 725 c 2
 426 726 l 1
 436 771 l 1
 658 771 l 1
 636 657 l 1
 689 657 l 1
 679 609 l 1
 626 609 l 1
 532 142 l 1
 524 93 l 2
 521 80 520 76 520 72 c 0
 520 56 533 47 557 46 c 2
 566 45 l 1
 557 0 l 1
 359 0 l 1x78
387 139 m 1xa8
 451 455 l 1
 420 472 399 479 379 479 c 0
 293 479 220 342 220 183 c 0
 220 114 242 81 289 81 c 0
 323 81 353 98 387 139 c 1xa8
EndSplineSet
EndChar
StartChar: emacron
Encoding: 319 275 119
Width: 444
Flags: MW
HStem: -12 73<276 285> 264 45<237 339 237 472 224 339> 503 45<315.5 343> 627 75
VStem: 68 145<130.5 178 130.5 287> 361 128<447 450 384.5 474>
LayerCount: 2
Fore
SplineSet
438 95 m 1
 423 21 l 1
 362 -2 312 -12 258 -12 c 0
 130 -12 68 52 68 185 c 0
 68 389 193 548 353 548 c 0
 444 548 489 499 489 401 c 0
 489 368 482 308 474 275 c 2
 472 264 l 1
 224 264 l 1
 217 223 213 191 213 165 c 0
 213 96 245 61 307 61 c 0xec
 346 61 386 71 438 95 c 1
237 309 m 1
 339 309 l 1
 354 384 361 434 361 460 c 0
 361 488 352 503 334 503 c 0
 297 503 268 445 237 309 c 1
190 629 m 1
 205 704 l 1
 542 704 l 1
 527 629 l 1x10
 190 629 l 1
EndSplineSet
EndChar
StartChar: eogonek
Encoding: 301 281 84
Width: 444
Flags: MW
HStem: -181 48<236 320.5> -12 73<276 285> 0 20 264 45<237 339 237 472 224 339> 503 45<315.5 343>
VStem: 68 99 68 145<130.5 178 130.5 287> 361 128<447 450 384.5 474>
LayerCount: 2
Fore
SplineSet
438 95 m 1
 423 21 l 1
 362 -2 312 -12 258 -12 c 0
 130 -12 68 52 68 185 c 0
 68 389 193 548 353 548 c 0
 444 548 489 499 489 401 c 0
 489 368 482 308 474 275 c 2
 472 264 l 1
 224 264 l 1
 217 223 213 191 213 165 c 0
 213 96 245 61 307 61 c 0x5b
 346 61 386 71 438 95 c 1
237 309 m 1
 339 309 l 1
 354 384 361 434 361 460 c 0
 361 488 352 503 334 503 c 0
 297 503 268 445 237 309 c 1
371 -122 m 1
 363 -165 l 1
 332 -176 303 -181 271 -181 c 0
 201 -181 165 -159 165 -117 c 0
 165 -76 199 -41 276 0 c 1
 325 0 l 1
 283 -33 264 -62 264 -95 c 0
 264 -120 280 -133 312 -133 c 0xa4
 329 -133 348 -130 371 -122 c 1
EndSplineSet
EndChar
StartChar: Ecaron
Encoding: 261 282 16
Width: 667
Flags: MW
HStem: 0 51<360 469 360 638> 358 42<336 477 328 485> 675 48<391 595 391 391>
LayerCount: 2
Fore
SplineSet
27 0 m 1
 36 45 l 1
 46 46 l 2
 109 50 110 51 122 93 c 2
 134 142 l 1
 222 581 l 1
 229 629 l 1
 232 646 l 1
 231 664 210 675 172 677 c 2
 163 678 l 1
 172 723 l 1
 762 723 l 1
 736 593 l 1
 652 593 l 1
 653 602 l 2
 656 624 657 632 657 632 c 1
 658 635 l 1
 659 639 l 2
 660 641 660 642 660 642 c 2
 661 644 661 646 661 647 c 0
 660 665 638 675 595 675 c 2
 391 675 l 1
 336 400 l 1
 485 400 l 1
 533 401 l 2
 557 401 560 403 565 426 c 2
 567 433 l 2
 567 435 568 437 569 440 c 2
 571 448 l 1
 573 458 l 1
 637 458 l 1
 605 301 l 1
 542 301 l 1
 543 310 l 1
 544 315 l 1
 545 320 l 2
 545 322 546 326 547 331 c 0
 548 335 548 341 548 344 c 0
 548 353 542 355 523 356 c 2
 477 358 l 1
 328 358 l 1
 284 142 l 2
 279 115 276 92 276 77 c 0
 276 59 287 53 320 52 c 2
 360 51 l 1
 469 51 l 1
 525 52 l 2
 548 53 562 62 567 80 c 2
 579 127 l 1
 581 136 l 1
 666 136 l 1
 638 0 l 1
 27 0 l 1
694 940 m 1
 545 783 l 1
 425 783 l 1
 339 940 l 1
 396 940 l 1
 497 845 l 1
 637 940 l 1
 694 940 l 1
EndSplineSet
EndChar
StartChar: Gbreve
Encoding: 264 286 19
Width: 778
Flags: MW
HStem: -18 48<395.5 464> 693 48<524.5 616.5> 783 84<575.5 635>
VStem: 103 155<172.5 266 160.5 344>
LayerCount: 2
Fore
SplineSet
832 318 m 1
 824 273 l 1
 814 272 l 2
 751 268 750 267 738 225 c 2
 726 177 l 1
 693 15 l 1
 585 -8 502 -18 426 -18 c 0
 211 -18 103 77 103 268 c 0
 103 420 173 569 286 656 c 0
 362 715 457 741 592 741 c 0
 675 741 746 732 832 709 c 1
 803 566 l 1
 719 566 l 1
 721 575 l 1
 725 602 l 2
 726 612 727 621 727 624 c 0
 727 664 662 693 571 693 c 0
 451 693 363 626 311 496 c 0
 279 414 258 307 258 225 c 0
 258 96 327 30 464 30 c 0
 494 30 518 34 549 43 c 1
 575 177 l 1
 582 225 l 1
 586 241 l 1
 584 259 564 270 525 272 c 2
 517 273 l 1
 525 318 l 1
 832 318 l 1
450 940 m 1
 495 940 l 1
 510 889 544 867 607 867 c 0
 669 867 712 889 748 940 c 1
 793 940 l 1
 757 841 681 783 589 783 c 0
 509 783 449 841 449 919 c 2
 449 924 l 1
 449 933 l 1
 450 940 l 1
EndSplineSet
EndChar
StartChar: Gcommaaccent
Encoding: 291 290 63
Width: 778
Flags: MW
HStem: -211 47<352.5 369 345 405.5> -18 48<395.5 464> 693 48<524.5 616.5>
VStem: 103 155<172.5 266 160.5 344> 406 97<-139.5 -117>
LayerCount: 2
Fore
SplineSet
832 318 m 1
 824 273 l 1
 814 272 l 2
 751 268 750 267 738 225 c 2
 726 177 l 1
 693 15 l 1
 585 -8 502 -18 426 -18 c 0
 211 -18 103 77 103 268 c 0
 103 420 174 569 286 656 c 0
 362 715 457 741 592 741 c 0
 675 741 746 732 832 709 c 1
 803 566 l 1
 719 566 l 1
 721 575 l 1
 725 602 l 2
 726 612 727 621 727 624 c 0
 727 664 662 693 571 693 c 0
 451 693 363 626 311 496 c 0
 279 414 258 307 258 225 c 0
 258 96 327 30 464 30 c 0
 494 30 518 34 549 43 c 1
 575 177 l 1
 582 225 l 1
 586 241 l 1
 584 259 564 270 525 272 c 2
 517 273 l 1
 525 318 l 1
 832 318 l 1
292 -202 m 1
 301 -158 l 1
 321 -162 338 -164 352 -164 c 0
 386 -164 406 -151 406 -128 c 0
 406 -106 387 -97 337 -97 c 1
 346 -53 l 1
 456 -55 503 -76 503 -123 c 0
 503 -175 447 -211 364 -211 c 0
 341 -211 318 -208 292 -202 c 1
EndSplineSet
EndChar
StartChar: gcommaaccent
Encoding: 330 291 130
Width: 500
Flags: W
HStem: -205 45<185.5 248.5 185.5 267> 173 42<275 300 263 337> 501 47<309 346>
VStem: -9 143<-118.5 -79.5 -118.5 -79.5> 109 128<288 333.5 257 389.5> 337 143<-59 -27> 372 129<383 412.5 337.5 459.5>
LayerCount: 2
Fore
SplineSet
264 99 m 2xea
 322 99 l 2
 428 99 480 66 480 -1 c 0
 480 -117 351 -205 183 -205 c 0
 64 -205 -9 -168 -9 -107 c 0xf4
 -9 -52 35 -14 134 19 c 1
 103 38 90 55 90 78 c 0
 90 119 125 152 204 185 c 1
 137 213 109 253 109 323 c 0
 109 456 203 548 338 548 c 0
 375 548 405 543 438 530 c 1
 609 545 l 1
 564 468 l 1
 475 483 l 1
 494 453 501 428 501 397 c 0
 501 278 396 173 278 173 c 0
 272 173 262 174 250 175 c 2
 244 176 l 1
 219 158 208 142 208 125 c 0
 208 108 227 99 264 99 c 2xea
333 501 m 0xea
 285 501 237 389 237 278 c 0
 237 236 250 215 276 215 c 0
 324 215 372 327 372 439 c 0
 372 480 359 501 333 501 c 0xea
225 6 m 2xf4
 178 6 l 1
 147 -30 134 -61 134 -98 c 0
 134 -139 160 -160 211 -160 c 0
 286 -160 337 -115 337 -48 c 0
 337 -6 313 6 225 6 c 2xf4
491 915 m 1
 482 870 l 1
 443 870 418 837 407 771 c 1
 462 771 l 1
 433 626 l 1
 289 626 l 1
 311 735 l 2
 334 847 392 906 491 915 c 1
EndSplineSet
EndChar
StartChar: imacron
Encoding: 320 299 120
Width: 278
Flags: MW
HStem: 0 20 516 20<126 324 324 324> 627 75<89 441 104 426>
LayerCount: 2
Fore
SplineSet
19 0 m 1
 28 45 l 1
 37 46 l 2
 76 49 81 54 90 93 c 2
 100 142 l 1
 151 394 l 1
 160 443 l 2
 162 456 163 460 163 464 c 0
 163 480 150 489 126 490 c 2
 117 491 l 1
 126 536 l 1
 324 536 l 1
 245 142 l 1
 236 93 l 2
 234 79 233 76 233 72 c 0
 233 57 246 47 269 46 c 2
 279 45 l 1
 269 0 l 1xc0
 19 0 l 1
89 627 m 1
 104 702 l 1
 441 702 l 1
 426 627 l 1x20
 89 627 l 1
EndSplineSet
EndChar
StartChar: Iogonek
Encoding: 285 302 57
Width: 389
Flags: MW
HStem: -181 48<171 255.5> 0 20 703 20<186 493 493 493>
VStem: 100 99<-107.5 -96.5>
LayerCount: 2
Fore
SplineSet
41 0 m 1
 50 45 l 1
 59 46 l 2
 123 50 124 51 135 93 c 2
 147 142 l 1
 235 582 l 1
 243 630 l 1
 246 646 l 1
 245 664 224 675 186 678 c 2
 177 678 l 1
 186 723 l 1
 493 723 l 1
 484 678 l 1
 475 678 l 2
 437 675 416 670 413 665 c 0
 408 659 403 647 398 630 c 2
 386 582 l 1
 298 142 l 1
 291 93 l 1
 288 77 l 1
 289 59 310 48 348 46 c 2
 357 45 l 1
 348 0 l 1
 41 0 l 1
306 -122 m 1
 297 -165 l 1
 266 -176 238 -181 206 -181 c 0
 136 -181 100 -159 100 -117 c 0
 100 -76 133 -41 210 0 c 1
 260 0 l 1
 218 -33 199 -62 199 -95 c 0
 199 -120 215 -133 247 -133 c 0
 264 -133 282 -130 306 -122 c 1
EndSplineSet
EndChar
StartChar: iogonek
Encoding: 331 303 131
Width: 278
Flags: MW
HStem: -181 48<110 194.5> 0 20 0 20 516 20<126 324 324 324> 626 145<197 371 226 342>
VStem: 19 99
LayerCount: 2
Fore
SplineSet
197 626 m 1
 226 771 l 1
 371 771 l 1
 342 626 l 1x58
 197 626 l 1
19 0 m 1
 28 45 l 1
 37 46 l 2
 76 49 81 54 90 93 c 2
 100 142 l 1
 151 394 l 1
 160 443 l 2
 162 456 163 460 163 464 c 0
 163 480 150 489 126 490 c 2
 117 491 l 1
 126 536 l 1
 324 536 l 1
 245 142 l 1
 236 93 l 2
 234 79 233 76 233 72 c 0
 233 57 246 47 269 46 c 2
 279 45 l 1
 269 0 l 1
 19 0 l 1
245 -122 m 1
 237 -165 l 1
 206 -176 177 -181 145 -181 c 0
 75 -181 39 -159 39 -117 c 0
 39 -76 73 -41 150 0 c 1
 199 0 l 1
 157 -33 138 -62 138 -95 c 0
 138 -120 154 -133 186 -133 c 0xa4
 203 -133 222 -130 245 -122 c 1
EndSplineSet
EndChar
StartChar: Kcommaaccent
Encoding: 286 310 58
Width: 778
Flags: MW
HStem: -211 47<306 322.5 298 359> 0 20 703 20<166 455 455 455 651 871 871 871>
VStem: 360 96<-139 -116.5>
LayerCount: 2
Fore
SplineSet
21 0 m 1
 30 45 l 1
 39 46 l 2
 103 50 104 51 115 93 c 2
 127 142 l 1
 215 582 l 1
 223 630 l 1
 226 646 l 1
 225 664 204 675 166 678 c 2
 157 678 l 1
 166 723 l 1
 455 723 l 1
 446 678 l 1
 437 678 l 1
 385 673 382 671 372 630 c 2
 360 582 l 1
 322 389 l 1
 600 582 l 2
 663 625 697 655 697 666 c 0
 697 673 691 676 672 677 c 2
 650 678 l 1
 642 678 l 1
 651 723 l 1
 871 723 l 1
 862 678 l 1
 853 678 l 1
 833 677 l 2
 810 676 785 664 743 632 c 0
 714 610 689 592 673 581 c 2
 444 424 l 1
 662 140 l 1
 709 82 l 2
 727 60 750 48 778 46 c 2
 787 45 l 1
 778 0 l 1
 429 0 l 1
 438 45 l 1
 447 45 l 1
 469 46 l 2
 500 47 513 53 513 67 c 0
 513 81 500 104 471 142 c 2
 313 348 l 1
 272 142 l 1
 265 93 l 1
 262 76 l 1
 264 58 280 48 310 46 c 2
 319 45 l 1
 310 0 l 1
 21 0 l 1
246 -202 m 1
 254 -158 l 1
 274 -162 291 -164 305 -164 c 0
 340 -164 360 -151 360 -127 c 0
 360 -106 341 -97 291 -97 c 1
 299 -53 l 1
 409 -55 456 -76 456 -123 c 0
 456 -176 400 -211 318 -211 c 0
 294 -211 271 -208 246 -202 c 1
EndSplineSet
EndChar
StartChar: kcommaaccent
Encoding: 321 311 121
Width: 556
Flags: MW
HStem: -211 47<261.5 277.5 253 314> 0 20 516 20<442 622 622 622>
VStem: 129 97
LayerCount: 2
Fore
SplineSet
15 0 m 1
 24 45 l 1
 33 46 l 2
 72 49 77 54 86 93 c 2
 96 142 l 1
 194 629 l 1
 203 678 l 2
 205 691 206 695 206 699 c 0
 206 715 195 722 169 725 c 2
 160 726 l 1
 169 771 l 1
 367 771 l 1
 270 289 l 1
 278 289 l 1
 405 400 l 2
 424 416 436 427 444 435 c 2
 472 463 l 2
 478 470 482 476 482 480 c 0
 482 487 476 490 462 490 c 2
 442 491 l 1
 433 491 l 1
 442 536 l 1
 622 536 l 1
 614 491 l 1
 604 490 l 2
 578 488 549 472 512 437 c 2
 464 394 l 1
 395 335 l 1
 478 140 l 2
 503 79 525 48 541 46 c 2
 551 46 l 1
 560 45 l 1
 551 0 l 1
 380 0 l 1
 270 259 l 1
 265 259 l 1
 241 142 l 1
 232 93 l 2
 230 79 229 76 229 72 c 0
 229 57 242 47 265 46 c 2
 275 45 l 1
 265 0 l 1x60
 15 0 l 1
201 -202 m 1
 210 -158 l 1
 229 -162 246 -164 260 -164 c 0
 295 -164 315 -151 315 -127 c 0
 315 -106 296 -97 246 -97 c 1
 255 -53 l 1
 365 -55 412 -76 412 -123 c 0
 412 -175 355 -211 273 -211 c 0x90
 250 -211 226 -208 201 -202 c 1
EndSplineSet
EndChar
StartChar: lacute
Encoding: 303 314 90
Width: 278
Flags: MW
HStem: 0 20
LayerCount: 2
Fore
SplineSet
19 0 m 1
 28 45 l 1
 37 46 l 2
 76 49 81 54 90 93 c 2
 100 142 l 1
 198 629 l 1
 207 678 l 2
 209 691 210 695 210 699 c 0
 210 715 199 722 173 725 c 2
 164 726 l 1
 173 771 l 1
 371 771 l 1
 245 142 l 1
 236 93 l 2
 234 79 233 76 233 72 c 0
 233 57 246 47 269 46 c 2
 279 45 l 1
 269 0 l 1x80
 19 0 l 1
243 819 m 1
 392 976 l 1
 538 976 l 1
 308 819 l 1
 243 819 l 1
EndSplineSet
EndChar
StartChar: lcommaaccent
Encoding: 322 316 122
Width: 278
Flags: MW
HStem: -211 47<74 90.5 66 127> 0 20
VStem: 128 97<-139 -116.5>
LayerCount: 2
Fore
SplineSet
19 0 m 1
 28 45 l 1
 37 46 l 2
 76 49 81 54 90 93 c 2
 100 142 l 1
 198 629 l 1
 207 678 l 2
 209 691 210 695 210 699 c 0
 210 715 199 723 174 725 c 2
 164 726 l 1
 174 771 l 1
 371 771 l 1
 245 142 l 1
 237 93 l 2
 234 81 233 76 233 72 c 0
 233 56 246 47 270 46 c 2
 279 45 l 1
 270 0 l 1
 19 0 l 1
14 -202 m 1
 23 -158 l 1
 42 -162 59 -164 73 -164 c 0
 108 -164 128 -151 128 -127 c 0
 128 -106 109 -97 59 -97 c 1
 68 -53 l 1
 178 -55 225 -76 225 -123 c 0
 225 -175 168 -211 86 -211 c 0
 62 -211 39 -208 14 -202 c 1
EndSplineSet
EndChar
StartChar: Lcaron
Encoding: 267 317 26
Width: 667
Flags: MW
HStem: 0 51<363 472 363 653> 703 20<172 479 479 479 588 714 714 714>
LayerCount: 2
Fore
SplineSet
27 0 m 1
 36 45 l 1
 46 46 l 2
 109 50 110 51 122 93 c 2
 134 142 l 1
 222 582 l 1
 229 630 l 1
 232 646 l 1
 231 664 211 675 172 678 c 2
 163 678 l 1
 172 723 l 1
 479 723 l 1
 470 678 l 1
 461 678 l 2
 423 675 402 670 399 665 c 0
 393 659 389 647 384 630 c 2
 372 582 l 1
 284 142 l 2
 279 117 276 90 276 76 c 0
 276 59 287 53 319 52 c 2
 363 51 l 1
 472 51 l 1
 514 53 l 2
 563 54 565 56 576 101 c 2
 589 160 l 1
 593 181 l 1
 690 181 l 1
 653 0 l 1
 27 0 l 1
529 434 m 1
 539 479 l 1
 573 479 596 512 607 578 c 1
 558 578 l 1
 588 723 l 1
 714 723 l 1
 692 614 l 2
 669 502 616 444 529 434 c 1
EndSplineSet
EndChar
StartChar: lcaron
Encoding: 304 318 91
Width: 469
Flags: MW
HStem: 0 20
LayerCount: 2
Fore
SplineSet
19 0 m 1
 28 45 l 1
 37 46 l 2
 76 49 81 54 90 93 c 2
 100 142 l 1
 198 629 l 1
 207 678 l 2
 209 691 210 695 210 699 c 0
 210 715 199 722 173 725 c 2
 164 726 l 1
 173 771 l 1
 371 771 l 1
 245 142 l 1
 236 93 l 2
 234 79 233 76 233 72 c 0
 233 57 246 47 269 46 c 2
 279 45 l 1
 269 0 l 1
 19 0 l 1
409 482 m 1
 418 527 l 1
 453 527 475 560 487 626 c 1
 438 626 l 1
 467 771 l 1
 594 771 l 1
 572 662 l 2
 549 549 496 491 409 482 c 1
EndSplineSet
EndChar
StartChar: Lslash
Encoding: 334 321 164
Width: 667
Flags: MW
HStem: 0 51<363 472 363 653> 703 20<172 479 479 479>
LayerCount: 2
Fore
SplineSet
27 0 m 1
 36 45 l 1
 46 46 l 2
 109 50 110 51 122 93 c 2
 134 142 l 1
 170 324 l 1
 83 278 l 1
 94 334 l 1
 181 379 l 1
 222 582 l 1
 229 630 l 1
 232 646 l 1
 231 664 211 675 172 678 c 2
 163 678 l 1
 172 723 l 1
 479 723 l 1
 470 678 l 1
 461 678 l 2
 423 675 402 670 399 665 c 0
 393 659 389 647 384 630 c 2
 372 582 l 1
 349 466 l 1
 497 542 l 1
 486 487 l 1
 338 410 l 1
 284 142 l 2
 279 117 276 90 276 76 c 0
 276 59 287 53 319 52 c 2
 363 51 l 1
 472 51 l 1
 514 53 l 2
 563 54 565 56 576 101 c 2
 589 160 l 1
 593 181 l 1
 690 181 l 1
 653 0 l 1
 27 0 l 1
EndSplineSet
EndChar
StartChar: lslash
Encoding: 339 322 200
Width: 278
Flags: MW
HStem: 0 20
LayerCount: 2
Fore
SplineSet
19 0 m 1
 28 45 l 1
 37 46 l 2
 76 49 81 54 90 93 c 2
 100 142 l 1
 140 340 l 1
 60 299 l 1
 71 354 l 1
 151 396 l 1
 198 629 l 1
 207 678 l 2
 209 691 210 695 210 699 c 0
 210 715 199 722 173 725 c 2
 164 726 l 1
 173 771 l 1
 371 771 l 1
 312 479 l 1
 393 521 l 1
 382 466 l 1
 301 424 l 1
 245 142 l 1
 236 93 l 2
 234 79 233 76 233 72 c 0
 233 57 246 47 269 46 c 2
 279 45 l 1
 269 0 l 1
 19 0 l 1
EndSplineSet
EndChar
StartChar: Ncommaaccent
Encoding: 288 325 60
Width: 722
Flags: MW
HStem: -211 47<281 297.5 273.5 334> 0 20 703 20<166 354 354 354 602 829 829 829>
VStem: 335 97<-139.5 -117>
LayerCount: 2
Fore
SplineSet
21 0 m 1
 30 45 l 1
 39 46 l 2
 103 50 104 51 115 93 c 2
 127 142 l 1
 215 582 l 1
 223 630 l 1
 226 646 l 1
 225 664 204 675 166 678 c 2
 157 678 l 1
 166 723 l 1
 354 723 l 1
 572 186 l 1
 651 582 l 1
 659 630 l 1
 662 647 l 2
 661 664 640 675 602 678 c 2
 592 678 l 1
 602 723 l 1
 829 723 l 1
 820 678 l 1
 811 678 l 2
 773 675 753 670 750 665 c 0
 744 659 740 647 735 630 c 2
 723 582 l 1
 605 -10 l 1
 499 -10 l 1
 276 528 l 1
 199 142 l 1
 192 93 l 1
 189 77 l 1
 190 59 210 49 250 46 c 2
 258 45 l 1
 249 0 l 1
 21 0 l 1
221 -202 m 1
 229 -158 l 1
 249 -162 267 -164 280 -164 c 0
 315 -164 335 -151 335 -128 c 0
 335 -106 316 -97 266 -97 c 1
 275 -53 l 1
 385 -55 432 -76 432 -123 c 0
 432 -175 375 -211 293 -211 c 0
 269 -211 246 -208 221 -202 c 1
EndSplineSet
EndChar
StartChar: ncommaaccent
Encoding: 323 326 123
Width: 556
Flags: W
HStem: -211 47<237.5 253.5 229 290> 0 20 516 20<122 320 320 320> 528 20<439.5 510>
VStem: 129 97 436 147<414 479>
LayerCount: 2
Fore
SplineSet
15 0 m 1
 24 45 l 1
 34 46 l 2
 72 49 77 54 86 93 c 2
 97 142 l 1
 147 394 l 1
 156 443 l 2
 159 456 160 460 160 464 c 0
 160 480 147 489 122 490 c 2
 114 491 l 1
 122 536 l 1
 320 536 l 1x64
 302 447 l 1
 354 518 405 548 474 548 c 0
 546 548 583 513 583 445 c 0
 583 426 580 401 576 379 c 2
 529 142 l 1
 520 93 l 2
 517 80 516 76 516 72 c 0
 516 56 529 47 553 46 c 2
 562 45 l 1
 553 0 l 1
 308 0 l 1
 318 45 l 1
 327 46 l 2
 352 48 367 63 373 93 c 2
 384 142 l 1
 428 363 l 2
 433 387 436 409 436 419 c 0
 436 445 420 460 392 460 c 0
 357 460 327 440 291 393 c 1
 241 142 l 1
 232 93 l 2
 230 80 229 75 229 71 c 0
 229 56 240 47 260 46 c 2
 269 45 l 1
 260 0 l 1x54
 15 0 l 1
177 -202 m 1
 186 -158 l 1
 205 -162 222 -164 236 -164 c 0
 271 -164 291 -151 291 -127 c 0
 291 -106 272 -97 222 -97 c 1
 231 -53 l 1
 341 -55 388 -76 388 -123 c 0
 388 -175 331 -211 249 -211 c 0x88
 226 -211 202 -208 177 -202 c 1
EndSplineSet
EndChar
StartChar: Ncaron
Encoding: 269 327 28
Width: 722
Flags: W
HStem: -10 20 0 20 703 20<166 354 354 354 602 829 829 829>
LayerCount: 2
Fore
SplineSet
21 0 m 1x40
 30 45 l 1
 39 46 l 2
 103 50 104 51 115 93 c 2
 127 142 l 1
 215 582 l 1
 223 630 l 1
 226 646 l 1
 225 664 204 675 166 678 c 2
 157 678 l 1
 166 723 l 1
 354 723 l 1
 572 186 l 1
 651 582 l 1
 659 630 l 1
 662 647 l 2
 661 664 640 675 602 678 c 2
 592 678 l 1
 602 723 l 1
 829 723 l 1
 820 678 l 1
 811 678 l 2
 775 675 752 670 750 665 c 0
 744 658 740 647 735 630 c 2
 723 582 l 1
 605 -10 l 1
 499 -10 l 1xa0
 276 528 l 1
 199 142 l 1
 192 93 l 1
 189 77 l 1
 190 59 210 48 250 46 c 2
 258 45 l 1
 249 0 l 1
 21 0 l 1x40
719 940 m 1
 570 783 l 1
 449 783 l 1
 363 940 l 1
 420 940 l 1
 522 845 l 1
 661 940 l 1
 719 940 l 1
EndSplineSet
EndChar
StartChar: ncaron
Encoding: 306 328 93
Width: 556
Flags: W
HStem: 0 20 516 20<122 320 320 320> 528 20<439.5 510>
VStem: 436 147<414 479>
LayerCount: 2
Fore
SplineSet
15 0 m 1
 24 45 l 1
 34 46 l 2
 72 49 77 54 86 93 c 2
 97 142 l 1
 147 394 l 1
 156 443 l 2
 159 456 160 460 160 464 c 0
 160 480 147 489 122 490 c 2
 114 491 l 1
 122 536 l 1
 320 536 l 1xd0
 302 447 l 1
 354 518 405 548 474 548 c 0
 546 548 583 513 583 445 c 0
 583 426 580 401 576 379 c 2
 529 142 l 1
 520 93 l 2
 517 80 516 76 516 72 c 0
 516 56 529 47 553 46 c 2
 562 45 l 1
 553 0 l 1
 308 0 l 1
 318 45 l 1
 327 46 l 2
 352 48 367 63 373 93 c 2
 384 142 l 1
 428 363 l 2
 433 387 436 409 436 419 c 0
 436 445 420 460 392 460 c 0
 357 460 327 440 291 393 c 1
 241 142 l 1
 232 93 l 2
 230 80 229 75 229 71 c 0
 229 56 240 47 260 46 c 2
 269 45 l 1
 260 0 l 1xb0
 15 0 l 1
607 783 m 1
 459 626 l 1
 338 626 l 1
 252 783 l 1
 309 783 l 1
 411 688 l 1
 550 783 l 1
 607 783 l 1
EndSplineSet
EndChar
StartChar: Omacron
Encoding: 289 332 61
Width: 778
Flags: MW
HStem: -18 48<349.5 432 349.5 445.5> 693 48<490.5 577> 783 75<380 732 395 717>
VStem: 101 155<177 285.5 160.5 330.5> 673 155<430.5 547.5 391 561>
LayerCount: 2
Fore
SplineSet
538 741 m 0
 723 741 828 638 828 457 c 0
 828 325 784 210 700 120 c 0
 615 28 508 -18 383 -18 c 0
 206 -18 101 88 101 266 c 0
 101 395 144 511 228 602 c 0
 312 695 416 741 538 741 c 0
529 693 m 0
 452 693 390 648 338 555 c 0
 285 460 256 344 256 227 c 0
 256 94 302 30 397 30 c 0
 467 30 526 67 574 141 c 0
 637 235 673 366 673 495 c 0
 673 627 625 693 529 693 c 0
380 783 m 1
 395 858 l 1
 732 858 l 1
 717 783 l 1
 380 783 l 1
EndSplineSet
EndChar
StartChar: omacron
Encoding: 324 333 124
Width: 500
Flags: MW
HStem: -12 51<246 293 246 330.5> 497 51<340 368> 627 75<210 562 225 547>
VStem: 69 145<122 183 104 291> 399 145<317.5 414 244 432>
LayerCount: 2
Fore
SplineSet
365 548 m 0
 485 548 544 481 544 347 c 0
 544 141 416 -12 245 -12 c 0
 128 -12 69 55 69 189 c 0xd8
 69 393 197 548 365 548 c 0
353 497 m 0
 327 497 301 471 276 416 c 0
 237 333 214 229 214 137 c 0
 214 71 230 39 262 39 c 0
 324 39 399 235 399 400 c 0
 399 464 383 497 353 497 c 0
210 627 m 1
 225 702 l 1
 562 702 l 1
 547 627 l 1x20
 210 627 l 1
EndSplineSet
EndChar
StartChar: ohungarumlaut
Encoding: 307 337 100
Width: 500
Flags: MW
HStem: -12 51<246 293 246 330.5> 497 51<340 368>
VStem: 69 145<122 183 104 291> 399 145<317.5 414 244 432>
LayerCount: 2
Fore
SplineSet
365 548 m 0
 485 548 544 481 544 347 c 0
 544 141 416 -12 245 -12 c 0
 128 -12 69 55 69 189 c 0xf0
 69 393 197 548 365 548 c 0
353 497 m 0
 327 497 301 471 276 416 c 0
 237 333 214 229 214 137 c 0
 214 71 230 39 262 39 c 0
 324 39 399 235 399 400 c 0
 399 464 383 497 353 497 c 0
223 626 m 1
 359 783 l 1
 458 783 l 1
 270 626 l 1
 223 626 l 1
404 626 m 1
 539 783 l 1
 639 783 l 1
 451 626 l 1
 404 626 l 1
EndSplineSet
EndChar
StartChar: OE
Encoding: 140 338 160
Width: 1000
Flags: W
HStem: -18 48<328 381> 0 20 358 42<740 829 728 838> 675 48<794 941 794 794> 693 48<461 533.5 395 534>
VStem: 99 153<171.5 253.5 144.5 391>
LayerCount: 2
Fore
SplineSet
649 702 m 1x8c
 653 723 l 1
 1097 723 l 1
 1071 593 l 1
 998 593 l 1
 999 602 l 2
 1000 604 1000 609 1001 615 c 0
 1002 622 1003 628 1004 632 c 2
 1005 635 l 2
 1006 637 1006 639 1006 639 c 2
 1007 641 1007 642 1007 642 c 1
 1009 646 l 2
 1009 647 1007 650 1005 657 c 0
 1002 668 976 675 941 675 c 2
 794 675 l 1
 740 400 l 1
 838 400 l 1
 886 401 l 2
 910 401 913 403 918 427 c 0
 919 429 920 434 922 440 c 2
 924 448 l 1
 926 458 l 1
 992 458 l 1
 961 301 l 1
 895 301 l 1
 896 310 l 2
 897 318 898 325 899 331 c 0
 900 334 900 339 900 344 c 0
 900 352 894 355 875 356 c 2
 829 358 l 1
 728 358 l 1
 685 141 l 2
 681 119 677 90 677 76 c 0
 677 59 688 53 721 52 c 2
 755 51 l 1
 815 51 l 1
 871 53 l 2
 895 53 909 62 914 80 c 2
 924 117 l 1
 926 126 l 1
 998 126 l 1
 973 0 l 1
 509 0 l 1x74
 513 21 l 1
 451 -7 406 -18 356 -18 c 0
 196 -18 99 86 99 257 c 0
 99 525 282 741 508 741 c 0
 559 741 599 730 649 702 c 1x8c
565 281 m 2x8c
 597 438 l 2
 609 501 616 549 616 578 c 0
 616 647 569 693 499 693 c 0
 423 693 361 632 311 507 c 0
 273 410 252 304 252 203 c 0
 252 86 289 30 367 30 c 0
 423 30 480 60 509 106 c 0
 529 138 547 194 565 281 c 2x8c
EndSplineSet
EndChar
StartChar: oe
Encoding: 156 339 193
Width: 722
Flags: W
HStem: -12 51<237 270> -12 73<559.5 569.5> 264 45<525 622 525 750 512 622> 497 51<330 357> 503 45<610.5 627>
VStem: 68 139<120.5 180.5 103 289> 644 123<448.5 452.5 387.5 475.5>
LayerCount: 2
Fore
SplineSet
716 95 m 1x6e
 701 21 l 1
 642 -2 595 -12 544 -12 c 0x56
 477 -12 434 6 399 47 c 1
 349 6 301 -12 239 -12 c 0
 124 -12 68 54 68 187 c 0
 68 391 193 548 354 548 c 0x96
 414 548 454 531 487 490 c 1
 538 531 583 548 638 548 c 0
 724 548 767 500 767 405 c 0
 767 370 760 311 752 275 c 2
 750 264 l 1
 512 264 l 1
 504 222 500 188 500 162 c 0
 500 95 530 61 589 61 c 0
 627 61 665 71 716 95 c 1x6e
343 497 m 0
 317 497 293 470 268 415 c 0
 229 330 207 226 207 135 c 0
 207 71 222 39 252 39 c 0xb6
 312 39 386 238 386 403 c 0
 386 465 371 497 343 497 c 0
525 309 m 1
 622 309 l 1
 637 386 644 435 644 462 c 0
 644 489 635 503 619 503 c 0x2e
 584 503 555 444 525 309 c 1
EndSplineSet
EndChar
StartChar: Rcommaaccent
Encoding: 290 342 62
Width: 722
Flags: MW
HStem: -211 47<306 322.5 298 359> 0 20 703 20<166 376 376 376>
VStem: 360 96<-139 -116.5> 549 153<530 603 530 610>
LayerCount: 2
Fore
SplineSet
21 0 m 1
 30 45 l 1
 39 46 l 2
 103 50 104 51 115 93 c 2
 127 142 l 1
 215 582 l 1
 223 630 l 1
 226 646 l 1
 225 664 204 675 166 678 c 2
 157 678 l 1
 166 723 l 1
 376 723 l 1
 421 724 l 1
 465 725 l 1
 510 726 l 1
 518 727 l 2
 570 732 641 709 670 677 c 0
 692 653 702 623 702 583 c 0
 702 477 630 382 517 337 c 1
 619 140 l 1
 647 90 l 2
 663 62 678 49 698 47 c 2
 721 46 l 1
 730 45 l 1
 721 0 l 1
 506 0 l 1
 369 317 l 1
 307 317 l 1
 272 142 l 1
 265 93 l 1
 263 85 l 2
 262 82 262 80 262 79 c 0
 261 77 260 76 260 76 c 2
 261 75 262 71 264 64 c 0
 267 55 286 47 310 46 c 2
 319 45 l 1
 310 0 l 1
 21 0 l 1
317 365 m 1
 343 365 l 2
 461 365 549 455 549 577 c 0
 549 643 511 675 433 675 c 2
 379 675 l 1
 317 365 l 1
246 -202 m 1
 254 -158 l 1
 275 -162 291 -164 305 -164 c 0
 340 -164 360 -151 360 -127 c 0
 360 -106 341 -97 291 -97 c 1
 300 -53 l 1
 410 -55 456 -76 456 -123 c 0
 456 -176 400 -211 318 -211 c 0
 294 -211 271 -208 246 -202 c 1
EndSplineSet
EndChar
StartChar: rcommaaccent
Encoding: 325 343 125
Width: 444
Flags: W
HStem: -211 47<99.5 115.5 91 152> 0 20 516 20<122 320 320 320> 528 20<458.5 499.5>
VStem: 129 97
LayerCount: 2
Fore
SplineSet
15 0 m 1
 24 45 l 1
 33 46 l 2
 72 49 77 54 86 93 c 2
 96 142 l 1
 147 394 l 1
 156 443 l 2
 158 456 159 460 159 464 c 0
 159 480 146 489 122 490 c 2
 113 491 l 1
 122 536 l 1
 320 536 l 1x60
 300 435 l 1
 363 513 423 548 494 548 c 0
 505 548 514 547 527 544 c 1
 493 373 l 1
 427 373 l 1
 428 382 l 1
 431 405 l 2
 431 406 431 410 432 416 c 0
 433 422 434 432 434 434 c 0
 434 445 426 450 409 450 c 0
 364 450 327 429 289 383 c 1
 241 142 l 2
 237 123 233 89 233 74 c 0
 233 57 243 50 270 48 c 2
 303 46 l 1
 312 45 l 1
 303 0 l 1x50
 15 0 l 1
39 -202 m 1
 48 -158 l 1
 67 -162 84 -164 98 -164 c 0
 133 -164 153 -151 153 -127 c 0
 153 -106 134 -97 84 -97 c 1
 93 -53 l 1
 203 -55 250 -76 250 -123 c 0
 250 -175 193 -211 111 -211 c 0x88
 88 -211 64 -208 39 -202 c 1
EndSplineSet
EndChar
StartChar: Rcaron
Encoding: 272 344 37
Width: 722
Flags: MW
HStem: 0 20 703 20<166 376 376 376>
VStem: 549 153<530 603 530 610>
LayerCount: 2
Fore
SplineSet
21 0 m 1
 30 45 l 1
 39 46 l 2
 103 50 104 51 115 93 c 2
 127 142 l 1
 215 582 l 1
 223 630 l 1
 226 646 l 1
 225 664 204 675 166 678 c 2
 157 678 l 1
 166 723 l 1
 376 723 l 1
 421 724 l 1
 465 725 l 1
 510 726 l 1
 518 727 l 2
 571 732 641 709 670 677 c 0
 692 653 702 623 702 583 c 0
 702 477 631 382 517 337 c 1
 619 140 l 1
 647 90 l 2
 663 62 678 49 698 47 c 2
 721 46 l 1
 730 45 l 1
 721 0 l 1
 506 0 l 1
 369 317 l 1
 307 317 l 1
 272 142 l 1
 265 93 l 2
 263 84 263 84 261 74 c 1
 263 66 l 2
 267 55 284 47 310 46 c 2
 319 45 l 1
 310 0 l 1
 21 0 l 1
317 365 m 1
 343 365 l 2
 461 365 549 455 549 577 c 0
 549 643 511 675 433 675 c 2
 379 675 l 1
 317 365 l 1
670 940 m 1
 521 783 l 1
 400 783 l 1
 314 940 l 1
 372 940 l 1
 473 845 l 1
 612 940 l 1
 670 940 l 1
EndSplineSet
EndChar
StartChar: rcaron
Encoding: 328 345 128
Width: 444
Flags: W
HStem: 0 20 516 20<122 320 320 320> 528 20<458.5 499.5>
LayerCount: 2
Fore
SplineSet
15 0 m 1
 24 45 l 1
 33 46 l 2
 72 49 77 54 86 93 c 2
 96 142 l 1
 147 394 l 1
 156 443 l 2
 158 456 159 460 159 464 c 0
 159 480 146 489 122 490 c 2
 113 491 l 1
 122 536 l 1
 320 536 l 1xc0
 300 435 l 1
 363 513 423 548 494 548 c 0
 505 548 514 547 527 544 c 1
 493 373 l 1
 427 373 l 1
 428 382 l 1
 431 405 l 2
 431 406 431 410 432 416 c 0
 433 422 434 432 434 434 c 0
 434 445 426 450 409 450 c 0
 364 450 327 429 289 383 c 1
 241 142 l 2
 237 123 233 89 233 74 c 0
 233 57 243 50 270 48 c 2
 303 46 l 1
 312 45 l 1
 303 0 l 1xa0
 15 0 l 1
516 783 m 1
 368 626 l 1
 247 626 l 1
 161 783 l 1
 218 783 l 1
 320 688 l 1
 459 783 l 1
 516 783 l 1
EndSplineSet
EndChar
StartChar: Sacute
Encoding: 273 346 38
Width: 556
Flags: MW
HStem: -18 48<227.5 301.5 227.5 340.5> 693 48<405.5 466.5 358.5 470.5>
VStem: 153 148<539 571.5> 417 152<164 207>
LayerCount: 2
Fore
SplineSet
51 9 m 1
 81 160 l 1
 159 160 l 1
 157 148 l 1
 153 116 l 2
 152 114 152 112 152 112 c 1
 152 108 l 1
 151 104 l 1
 151 99 l 2
 151 60 197 30 258 30 c 0
 345 30 417 101 417 188 c 0
 417 226 391 261 338 293 c 2
 295 319 l 2
 199 378 153 438 153 506 c 0
 153 637 279 741 438 741 c 0
 495 741 552 731 625 709 c 1
 596 563 l 1
 518 563 l 1
 519 572 l 1
 524 605 l 1
 524 609 l 1
 525 614 l 1
 525 625 l 2
 525 669 497 693 444 693 c 0
 367 693 301 630 301 556 c 0
 301 522 325 492 382 454 c 2
 425 426 l 2
 537 352 569 310 569 237 c 0
 569 91 432 -18 249 -18 c 0
 191 -18 130 -10 51 9 c 1
373 783 m 1
 522 940 l 1
 668 940 l 1
 438 783 l 1
 373 783 l 1
EndSplineSet
EndChar
StartChar: sacute
Encoding: 309 347 102
Width: 389
Flags: MW
HStem: -12 45<154 199 154 234.5> 503 45<292 323>
VStem: 96 145<389.5 412.5> 254 148<128.5 145.5>
LayerCount: 2
Fore
SplineSet
26 24 m 1
 51 150 l 1
 124 150 l 1
 123 141 l 2
 116 105 115 99 115 87 c 0
 115 51 135 33 173 33 c 0
 225 33 254 68 254 131 c 0
 254 160 242 181 210 204 c 2
 177 228 l 2
 121 270 96 310 96 357 c 0
 96 468 184 548 306 548 c 0
 345 548 384 541 433 527 c 1
 409 407 l 1
 337 407 l 1
 339 416 l 2
 339 424 340 431 342 439 c 0
 344 446 346 467 346 473 c 0
 346 492 334 503 312 503 c 0
 272 503 241 459 241 403 c 0
 241 376 255 353 283 332 c 2
 307 313 l 2
 385 253 402 231 402 183 c 0
 402 74 299 -12 170 -12 c 0xf0
 128 -12 87 -2 26 24 c 1
261 626 m 1
 410 783 l 1
 556 783 l 1
 326 626 l 1
 261 626 l 1
EndSplineSet
EndChar
StartChar: Scedilla
Encoding: 274 350 40
Width: 556
Flags: W
HStem: -211 43<208 221 197 260.5> -18 48<227.5 301.5 227.5 340.5> 0 20 693 48<405.5 466.5 358.5 470.5>
VStem: 153 148<539 571.5> 257 97<-140 -115> 417 152<164 207>
LayerCount: 2
Fore
SplineSet
51 9 m 1xda
 81 160 l 1
 159 160 l 1
 157 148 l 1
 153 116 l 2
 152 114 152 112 152 112 c 1
 152 108 l 1
 151 104 l 1
 151 99 l 2
 151 60 197 30 258 30 c 0
 345 30 417 101 417 188 c 0
 417 226 391 261 338 293 c 2
 295 319 l 2
 199 378 153 438 153 506 c 0
 153 637 279 741 438 741 c 0
 495 741 552 731 625 709 c 1
 596 563 l 1
 518 563 l 1
 519 572 l 1
 524 605 l 1
 524 609 l 1
 525 614 l 1
 525 625 l 2
 525 669 497 693 444 693 c 0
 367 693 301 630 301 556 c 0
 301 522 325 492 382 454 c 2
 425 426 l 2
 537 352 569 310 569 237 c 0
 569 91 432 -18 249 -18 c 0
 191 -18 130 -10 51 9 c 1xda
142 -199 m 1
 150 -157 l 1
 174 -165 190 -168 204 -168 c 0
 238 -168 257 -153 257 -127 c 0
 257 -103 233 -92 176 -91 c 1
 240 0 l 1
 293 0 l 1
 255 -56 l 1
 325 -60 354 -79 354 -121 c 0xa4
 354 -175 300 -211 221 -211 c 0
 195 -211 172 -207 142 -199 c 1
EndSplineSet
EndChar
StartChar: scedilla
Encoding: 329 351 129
Width: 389
Flags: MW
HStem: -211 43<119.5 133.5 109.5 172> -12 45<154 199 154 234.5> 0 20 503 45<292 323>
VStem: 96 145<389.5 412.5> 141 97 254 148<128.5 145.5>
LayerCount: 2
Fore
SplineSet
26 24 m 1
 51 150 l 1
 124 150 l 1
 123 141 l 2
 116 105 115 99 115 87 c 0
 115 51 135 33 173 33 c 0
 225 33 254 68 254 131 c 0
 254 160 242 181 210 204 c 2
 177 228 l 2
 121 270 96 310 96 357 c 0
 96 468 184 548 306 548 c 0
 345 548 384 541 433 527 c 1
 409 407 l 1
 337 407 l 1
 339 416 l 2
 339 424 340 431 342 439 c 0
 344 446 346 467 346 473 c 0
 346 492 334 503 312 503 c 0
 272 503 241 459 241 403 c 0
 241 376 255 353 283 332 c 2
 307 313 l 2
 385 253 402 231 402 183 c 0
 402 74 299 -12 170 -12 c 0x5a
 128 -12 87 -2 26 24 c 1
54 -199 m 1
 62 -157 l 1
 86 -165 102 -168 117 -168 c 0
 150 -168 169 -153 169 -127 c 0
 169 -103 145 -92 89 -91 c 1
 152 0 l 1
 205 0 l 1
 167 -56 l 1
 237 -60 266 -80 266 -121 c 0
 266 -174 212 -211 132 -211 c 0xa4
 107 -211 84 -207 54 -199 c 1
EndSplineSet
EndChar
StartChar: Tcommaaccent
Encoding: 282 354 53
Width: 667
Flags: MW
HStem: -211 43<275.5 289.5 265.5 328> 0 20 675 48<275 305 305 393 544 544 544 632>
VStem: 325 97<-140 -115>
LayerCount: 2
Fore
SplineSet
168 0 m 1
 177 45 l 1
 186 46 l 1
 220 48 l 2
 262 52 271 64 287 142 c 2
 393 675 l 1
 305 675 l 2
 245 675 235 670 227 632 c 0
 223 616 219 601 218 596 c 0
 217 589 215 581 215 581 c 1
 213 572 l 1
 134 572 l 1
 164 723 l 1
 792 723 l 1
 762 572 l 1
 684 572 l 1
 686 587 l 1
 693 632 l 2
 694 639 694 639 695 653 c 0
 695 668 675 675 632 675 c 2
 544 675 l 1
 437 142 l 2
 432 116 429 90 429 75 c 0
 429 57 439 50 467 48 c 2
 499 46 l 1
 509 45 l 1
 499 0 l 1
 168 0 l 1
210 -199 m 1
 218 -157 l 1
 242 -165 258 -168 273 -168 c 0
 306 -168 325 -153 325 -127 c 0
 325 -103 301 -92 244 -91 c 1
 308 0 l 1
 361 0 l 1
 322 -56 l 1
 393 -60 422 -79 422 -121 c 0
 422 -175 368 -211 288 -211 c 0
 263 -211 239 -207 210 -199 c 1
EndSplineSet
EndChar
StartChar: tcommaaccent
Encoding: 317 355 117
Width: 333
Flags: W
HStem: -211 43<144 157.5 134 196.5> -12 20 0 20 488 48<117 180 126 171 325 407>
VStem: 97 141<74.5 93.5 74.5 101> 193 97<-140 -115>
LayerCount: 2
Fore
SplineSet
117 488 m 1xd8
 126 536 l 1
 180 536 l 1
 198 626 l 1
 348 652 l 1
 325 536 l 1
 417 536 l 1
 407 488 l 1
 315 488 l 1
 250 163 l 1
 242 122 l 2
 239 107 238 98 238 89 c 0
 238 60 251 45 277 45 c 0
 290 45 305 49 327 57 c 1
 316 4 l 1
 281 -7 255 -12 227 -12 c 0
 149 -12 97 30 97 92 c 0
 97 110 100 136 106 167 c 2
 171 488 l 1
 117 488 l 1xd8
78 -199 m 1
 86 -157 l 1
 110 -165 127 -168 141 -168 c 0
 174 -168 193 -153 193 -127 c 0
 193 -103 169 -92 113 -91 c 1
 177 0 l 1
 230 0 l 1
 191 -56 l 1
 261 -60 290 -79 290 -120 c 0xa4
 290 -175 236 -211 157 -211 c 0
 131 -211 108 -207 78 -199 c 1
EndSplineSet
EndChar
StartChar: Tcaron
Encoding: 275 356 41
Width: 667
Flags: MW
HStem: 0 20 675 48<275 305 305 393 544 544 544 632>
LayerCount: 2
Fore
SplineSet
168 0 m 1
 177 45 l 1
 186 46 l 1
 220 48 l 2
 262 52 271 64 287 142 c 2
 393 675 l 1
 305 675 l 2
 245 675 235 670 227 632 c 0
 223 616 219 601 218 596 c 0
 217 589 215 581 215 581 c 1
 213 572 l 1
 134 572 l 1
 164 723 l 1
 792 723 l 1
 762 572 l 1
 684 572 l 1
 686 587 l 1
 693 632 l 2
 694 639 694 639 695 653 c 0
 695 668 675 675 632 675 c 2
 544 675 l 1
 437 142 l 2
 432 116 429 90 429 75 c 0
 429 57 439 50 467 48 c 2
 499 46 l 1
 509 45 l 1
 499 0 l 1
 168 0 l 1
699 940 m 1
 551 783 l 1
 430 783 l 1
 344 940 l 1
 401 940 l 1
 503 845 l 1
 642 940 l 1
 699 940 l 1
EndSplineSet
EndChar
StartChar: tcaron
Encoding: 311 357 105
Width: 521
Flags: MW
HStem: -12 20 488 48<117 180 126 171 325 407>
VStem: 97 141<74 93 74 101>
LayerCount: 2
Fore
SplineSet
117 488 m 1
 126 536 l 1
 180 536 l 1
 198 626 l 1
 348 652 l 1
 325 536 l 1
 417 536 l 1
 407 488 l 1
 315 488 l 1
 250 163 l 1
 242 122 l 2
 239 107 238 98 238 88 c 0
 238 60 251 45 276 45 c 0
 290 45 304 48 326 57 c 1
 316 4 l 1
 281 -7 255 -12 227 -12 c 0
 149 -12 97 30 97 92 c 0
 97 110 100 137 106 167 c 2
 171 488 l 1
 117 488 l 1
473 554 m 1
 482 599 l 1
 516 600 539 632 551 699 c 1
 502 699 l 1
 531 843 l 1
 657 843 l 1
 636 734 l 2
 613 622 560 563 473 554 c 1
EndSplineSet
EndChar
StartChar: umacron
Encoding: 326 363 126
Width: 556
Flags: W
HStem: -12 20 0 20 516 20<111 309 309 309 404 596 596 596> 627 75<228 580 243 565>
VStem: 81 146<57.5 122.5>
LayerCount: 2
Fore
SplineSet
102 491 m 1
 111 536 l 1
 309 536 l 1
 236 173 l 2
 228 136 227 128 227 117 c 0
 227 91 243 76 272 76 c 0
 306 76 337 96 373 143 c 1
 423 394 l 1
 432 443 l 2
 434 456 435 461 435 465 c 0
 435 480 424 489 404 490 c 2
 395 491 l 1
 404 536 l 1
 596 536 l 1
 517 142 l 1
 508 93 l 2
 506 79 505 76 505 72 c 0
 505 56 518 47 541 46 c 2
 551 45 l 1
 541 0 l 1
 344 0 l 1x68
 362 89 l 1
 310 18 258 -12 190 -12 c 0
 117 -12 81 23 81 92 c 0
 81 110 84 136 88 157 c 2
 136 394 l 1
 144 443 l 2
 147 455 148 460 148 464 c 0
 148 480 135 489 111 490 c 2x88
 102 491 l 1
228 627 m 1
 243 702 l 1
 580 702 l 1
 565 627 l 1x10
 228 627 l 1
EndSplineSet
EndChar
StartChar: Uring
Encoding: 276 366 46
Width: 722
Flags: MW
HStem: -18 47<357 456.5 357 457.5> 703 20<153 461 461 461 629 857 857 857> 783 45<534.5 576 534.5 581.5> 967 45<560 601>
VStem: 130 146<112 158 106.5 185> 451 46<865 905.5 865 911> 639 46<889.5 930>
LayerCount: 2
Fore
SplineSet
144 675 m 1
 153 723 l 1
 461 723 l 1
 452 678 l 1
 443 678 l 2
 405 675 384 670 381 665 c 0
 375 658 371 648 367 630 c 2
 355 582 l 1
 292 269 l 2
 282 220 276 171 276 145 c 0
 276 68 317 29 397 29 c 0
 516 29 584 105 617 273 c 2
 679 582 l 1
 686 630 l 1
 690 647 l 1
 688 664 667 675 629 678 c 2
 620 678 l 1
 629 723 l 1
 857 723 l 1
 847 678 l 1
 838 678 l 1
 775 673 775 672 763 630 c 2
 751 582 l 1
 692 285 l 2
 651 78 548 -18 367 -18 c 0
 219 -18 130 53 130 171 c 0
 130 199 134 235 142 275 c 2
 203 578 l 1
 210 627 l 1
 213 643 l 1
 212 662 191 672 152 675 c 2
 144 675 l 1
591 1012 m 0
 646 1012 685 974 685 920 c 0
 685 848 619 783 544 783 c 0
 490 783 451 821 451 875 c 0
 451 947 518 1012 591 1012 c 0
583 967 m 0
 537 967 497 928 497 883 c 0
 497 847 516 828 553 828 c 0
 599 828 639 867 639 912 c 0
 639 948 619 967 583 967 c 0
EndSplineSet
EndChar
StartChar: uring
Encoding: 312 367 110
Width: 556
Flags: W
HStem: -12 20 0 20 516 20<111 309 309 309 404 596 596 596> 626 45<376.5 417.5 376.5 423> 811 45<401 442>
VStem: 81 46 81 146<57.5 122.5> 268 46
LayerCount: 2
Fore
SplineSet
102 491 m 1
 111 536 l 1
 309 536 l 1
 236 173 l 2
 228 136 227 128 227 117 c 0
 227 91 243 76 272 76 c 0
 306 76 337 96 373 143 c 1
 423 394 l 1
 432 443 l 2
 434 456 435 461 435 465 c 0
 435 480 424 489 404 490 c 2
 395 491 l 1
 404 536 l 1
 596 536 l 1
 517 142 l 1
 508 93 l 2
 506 79 505 76 505 72 c 0
 505 56 518 47 541 46 c 2
 551 45 l 1
 541 0 l 1
 344 0 l 1x62
 362 89 l 1
 310 18 258 -12 190 -12 c 0
 117 -12 81 23 81 92 c 0
 81 110 84 136 88 157 c 2
 136 394 l 1
 144 443 l 2
 147 455 148 460 148 464 c 0
 148 480 135 489 111 490 c 2x82
 102 491 l 1
433 856 m 0
 487 856 526 818 526 764 c 0
 526 691 460 626 386 626 c 0
 331 626 293 664 293 718 c 0x1d
 293 791 359 856 433 856 c 0
424 811 m 0
 378 811 339 772 339 726 c 0
 339 690 358 671 395 671 c 0
 440 671 480 710 480 756 c 0
 480 792 460 811 424 811 c 0
EndSplineSet
EndChar
StartChar: Uogonek
Encoding: 293 370 65
Width: 722
Flags: W
HStem: -181 48<355 440> -18 47<357 456.5 357 457.5> 0 20 703 20<153 461 461 461 629 857 857 857>
VStem: 130 146<111.5 158 106.5 184.5> 284 99<-107.5 -96.5>
LayerCount: 2
Fore
SplineSet
144 675 m 1xdc
 153 723 l 1
 461 723 l 1
 452 678 l 1
 443 678 l 2
 405 675 384 670 381 665 c 0
 376 658 371 648 367 630 c 2
 355 582 l 1
 292 269 l 2
 282 220 276 171 276 145 c 0
 276 68 317 29 397 29 c 0
 516 29 584 105 617 273 c 2
 679 582 l 1
 686 630 l 1
 690 647 l 1
 688 664 667 675 629 678 c 2
 620 678 l 1
 629 723 l 1
 857 723 l 1
 847 678 l 1
 838 678 l 1
 775 672 775 672 763 630 c 2
 751 582 l 1
 692 285 l 2
 651 78 548 -18 367 -18 c 0
 219 -18 130 53 130 170 c 0
 130 199 134 234 142 275 c 2
 203 578 l 1
 210 627 l 1
 213 643 l 1
 212 662 191 672 152 675 c 2
 144 675 l 1xdc
490 -122 m 1
 482 -165 l 1
 451 -176 422 -181 390 -181 c 0
 320 -181 284 -159 284 -117 c 0
 284 -76 317 -41 395 0 c 1
 444 0 l 1xac
 402 -33 383 -62 383 -95 c 0
 383 -120 399 -133 431 -133 c 0
 449 -133 467 -130 490 -122 c 1
EndSplineSet
EndChar
StartChar: uogonek
Encoding: 327 371 127
Width: 556
Flags: W
HStem: -181 48<329 413.5> -12 20 0 20 0 20 516 20<111 309 309 309 404 596 596 596>
VStem: 81 99 81 146<57.5 122.5>
LayerCount: 2
Fore
SplineSet
102 491 m 1
 111 536 l 1
 309 536 l 1
 236 173 l 2
 228 136 227 128 227 117 c 0
 227 91 243 76 272 76 c 0
 306 76 337 96 373 143 c 1
 423 394 l 1
 432 443 l 2
 434 456 435 461 435 465 c 0
 435 480 424 489 404 490 c 2
 395 491 l 1
 404 536 l 1
 596 536 l 1
 517 142 l 1
 508 93 l 2
 506 79 505 76 505 72 c 0
 505 56 518 47 541 46 c 2
 551 45 l 1
 541 0 l 1
 344 0 l 1x2a
 362 89 l 1
 310 18 258 -12 190 -12 c 0
 117 -12 81 23 81 92 c 0
 81 110 84 136 88 157 c 2
 136 394 l 1
 144 443 l 2
 147 455 148 460 148 464 c 0
 148 480 135 489 111 490 c 2x42
 102 491 l 1
464 -122 m 1
 456 -165 l 1
 425 -176 396 -181 364 -181 c 0
 294 -181 258 -159 258 -117 c 0
 258 -76 292 -41 369 0 c 1
 418 0 l 1
 376 -33 357 -62 357 -95 c 0
 357 -120 373 -133 405 -133 c 0x94
 422 -133 441 -130 464 -122 c 1
EndSplineSet
EndChar
StartChar: Ydieresis
Encoding: 159 376 54
Width: 722
Flags: MW
HStem: 0 20 703 20<146 459 459 459 667 866 866 866> 783 103<420 543 440 522 639 721 440 618>
LayerCount: 2
Fore
SplineSet
205 0 m 1
 215 45 l 1
 224 46 l 2
 287 50 289 51 300 93 c 2
 312 142 l 1
 346 313 l 1
 236 577 l 2
 219 617 213 630 212 634 c 0
 203 660 190 675 172 676 c 2
 146 678 l 1
 137 678 l 1
 146 723 l 1
 459 723 l 1
 450 678 l 1
 442 678 l 1
 418 678 l 2
 392 677 381 671 381 658 c 0
 381 644 389 618 406 577 c 2
 489 376 l 1
 654 577 l 2
 694 626 713 653 713 663 c 0
 713 673 698 678 669 678 c 2
 658 678 l 1
 667 723 l 1
 866 723 l 1
 857 678 l 1
 847 678 l 1
 826 676 l 2
 805 673 790 664 773 643 c 2
 718 577 l 1
 497 314 l 1
 463 142 l 1
 456 93 l 1
 452 77 l 1
 454 59 474 49 513 46 c 2
 522 45 l 1
 512 0 l 1
 205 0 l 1
420 783 m 1
 440 886 l 1
 543 886 l 1
 522 783 l 1
 420 783 l 1
618 783 m 1
 639 886 l 1
 741 886 l 1
 721 783 l 1
 618 783 l 1
EndSplineSet
EndChar
StartChar: Zacute
Encoding: 278 377 49
Width: 667
Flags: W
HStem: 0 54<44 55 55 55 223 434 434 477.5> 560 163<216 273 183 752> 669 54<335.5 364 364 576 741 741>
LayerCount: 2
Fore
SplineSet
44 0 m 1xa0
 55 54 l 1
 576 669 l 1
 364 669 l 2xa0
 307 669 296 663 288 628 c 2
 278 580 l 1
 273 560 l 1
 183 560 l 1x40
 216 723 l 1
 752 723 l 1
 741 669 l 1
 223 54 l 1
 434 54 l 2
 521 54 524 55 535 97 c 2
 545 137 l 1
 550 160 l 1
 641 160 l 1
 608 0 l 1
 44 0 l 1xa0
418 783 m 1
 567 940 l 1
 713 940 l 1
 483 783 l 1
 418 783 l 1
EndSplineSet
EndChar
StartChar: Zcaron
Encoding: 279 381 50
Width: 667
Flags: W
HStem: 0 54<44 55 55 55 223 434 434 477.5> 560 163<216 273 183 752> 669 54<335.5 364 364 576 741 741>
LayerCount: 2
Fore
SplineSet
44 0 m 1xa0
 55 54 l 1
 576 669 l 1
 364 669 l 2xa0
 307 669 296 663 288 628 c 2
 278 580 l 1
 273 560 l 1
 183 560 l 1x40
 216 723 l 1
 752 723 l 1
 741 669 l 1
 223 54 l 1
 434 54 l 2
 521 54 524 55 535 97 c 2
 545 137 l 1
 550 160 l 1
 641 160 l 1
 608 0 l 1
 44 0 l 1xa0
708 940 m 1
 559 783 l 1
 439 783 l 1
 353 940 l 1
 410 940 l 1
 511 845 l 1
 650 940 l 1
 708 940 l 1
EndSplineSet
EndChar
StartChar: zcaron
Encoding: 315 382 114
Width: 444
Flags: MW
HStem: 0 51<35 35 185 277 277 314.5 25 35> 491 45<255.5 286 286 356 504 504>
LayerCount: 2
Fore
SplineSet
125 407 m 1
 150 536 l 1
 513 536 l 1
 504 491 l 1
 185 51 l 1
 277 51 l 2
 352 51 355 53 368 105 c 0
 369 108 370 111 370 113 c 2
 372 120 l 1
 375 129 l 1
 441 129 l 1
 415 0 l 1
 25 0 l 1
 35 51 l 1
 356 491 l 1
 286 491 l 2
 225 491 210 485 203 456 c 2
 193 416 l 1
 191 407 l 1xc0
 125 407 l 1
565 783 m 1
 417 626 l 1
 296 626 l 1
 210 783 l 1
 267 783 l 1
 369 688 l 1
 508 783 l 1
 565 783 l 1
EndSplineSet
EndChar
StartChar: florin
Encoding: 131 402 216
Width: 500
Flags: MW
HStem: 359 45<104 172 95 190 334 435> 692 49<486 511.5>
LayerCount: 2
Fore
SplineSet
-29 -145 m 1
 172 359 l 1
 95 359 l 1
 104 404 l 1
 190 404 l 1
 212 460 l 2
 279 631 405 741 533 741 c 0
 563 741 593 735 626 723 c 1
 600 590 l 1
 521 590 l 1
 527 620 529 640 529 654 c 0
 529 679 520 692 503 692 c 0
 469 692 433 650 403 574 c 2
 374 503 l 1
 334 404 l 1
 444 404 l 1
 435 359 l 1
 317 359 l 1
 116 -145 l 1
 -29 -145 l 1
EndSplineSet
EndChar
StartChar: Scommaaccent
Encoding: 332 536 132
Width: 556
Flags: W
HStem: -211 47<213.5 230 206 266.5> -18 48<227.5 301.5 227.5 340.5> 693 48<405.5 466.5 358.5 470.5>
VStem: 153 148<539 571.5> 267 97<-139 -116.5> 417 152<164 207>
LayerCount: 2
Fore
SplineSet
51 9 m 1xf4
 81 160 l 1
 159 160 l 1
 157 148 l 1
 153 116 l 2
 152 114 152 112 152 112 c 1
 152 108 l 1
 151 104 l 1
 151 99 l 2
 151 60 197 30 258 30 c 0
 345 30 417 101 417 188 c 0
 417 226 391 261 338 293 c 2
 295 319 l 2
 199 378 153 438 153 506 c 0
 153 637 279 741 438 741 c 0
 495 741 552 731 625 709 c 1
 596 563 l 1
 518 563 l 1
 519 572 l 1
 524 605 l 1
 524 609 l 1
 525 614 l 1
 525 625 l 2
 525 669 497 693 444 693 c 0
 367 693 301 630 301 556 c 0
 301 522 325 492 382 454 c 2
 425 426 l 2
 537 352 569 310 569 237 c 0
 569 91 432 -18 249 -18 c 0
 191 -18 130 -10 51 9 c 1xf4
153 -202 m 1xe8
 162 -158 l 1
 182 -162 199 -164 213 -164 c 0
 247 -164 267 -151 267 -127 c 0
 267 -106 248 -97 198 -97 c 1
 207 -53 l 1
 317 -55 364 -76 364 -123 c 0
 364 -175 308 -211 225 -211 c 0
 202 -211 179 -208 153 -202 c 1xe8
EndSplineSet
EndChar
StartChar: circumflex
Encoding: 136 710 286
Width: 333
Flags: W
LayerCount: 2
Fore
SplineSet
114 626 m 1
 262 783 l 1
 383 783 l 1
 469 626 l 1
 412 626 l 1
 311 721 l 1
 171 626 l 1
 114 626 l 1
EndSplineSet
EndChar
StartChar: caron
Encoding: 345 711 287
Width: 333
Flags: W
LayerCount: 2
Fore
SplineSet
500 783 m 1
 352 626 l 1
 231 626 l 1
 145 783 l 1
 202 783 l 1
 304 688 l 1
 443 783 l 1
 500 783 l 1
EndSplineSet
EndChar
StartChar: breve
Encoding: 346 728 288
Width: 333
Flags: MW
HStem: 627 84<277.5 337>
LayerCount: 2
Fore
SplineSet
152 784 m 1
 197 784 l 1
 212 733 246 711 309 711 c 0
 371 711 413 733 450 784 c 1
 495 784 l 1
 458 685 383 627 291 627 c 0
 211 627 151 685 151 763 c 0x80
 151 766 151 776 152 784 c 1
EndSplineSet
EndChar
StartChar: ring
Encoding: 344 730 283
Width: 333
Flags: MW
HStem: 626 45<283.5 324.5 283.5 330> 811 45<308 349>
VStem: 200 46<708 749 708 754.5> 387 46<733 774>
LayerCount: 2
Fore
SplineSet
340 856 m 0
 394 856 433 818 433 764 c 0
 433 691 367 626 293 626 c 0
 238 626 200 664 200 718 c 0xf0
 200 791 266 856 340 856 c 0
331 811 m 0
 285 811 246 772 246 726 c 0
 246 690 265 671 302 671 c 0
 347 671 387 710 387 756 c 0
 387 792 367 811 331 811 c 0
EndSplineSet
EndChar
StartChar: ogonek
Encoding: 348 731 292
Width: 333
Flags: MW
HStem: -181 48<112 196.5> 0 20
VStem: 41 99<-107.5 -96.5>
LayerCount: 2
Fore
SplineSet
247 -122 m 1
 239 -165 l 1
 208 -176 179 -181 147 -181 c 0
 77 -181 41 -159 41 -117 c 0
 41 -76 75 -41 152 0 c 1
 201 0 l 1
 159 -33 140 -62 140 -95 c 0
 140 -120 156 -133 188 -133 c 0xe0
 205 -133 224 -130 247 -122 c 1
EndSplineSet
EndChar
StartChar: tilde
Encoding: 152 732 289
Width: 333
Flags: W
HStem: 627 79<384 397.5> 678 79<212.5 226>
LayerCount: 2
Fore
SplineSet
167 627 m 1
 122 627 l 1
 144 718 181 757 244 757 c 0x40
 266 757 285 752 307 740 c 2
 340 723 l 2
 359 712 378 706 390 706 c 0
 417 706 434 722 443 757 c 1
 488 757 l 1
 466 666 429 627 366 627 c 0x80
 344 627 325 632 303 643 c 2
 270 660 l 2
 246 673 232 678 220 678 c 0x40
 193 678 176 662 167 627 c 1
EndSplineSet
EndChar
StartChar: hungarumlaut
Encoding: 347 733 290
Width: 333
Flags: W
LayerCount: 2
Fore
SplineSet
100 626 m 1
 236 783 l 1
 335 783 l 1
 147 626 l 1
 100 626 l 1
281 626 m 1
 416 783 l 1
 516 783 l 1
 328 626 l 1
 281 626 l 1
EndSplineSet
EndChar
StartChar: endash
Encoding: 150 8211 243
Width: 500
Flags: MW
HStem: 262 78<88 531 104 516>
LayerCount: 2
Fore
SplineSet
88 262 m 1
 104 340 l 1
 531 340 l 1
 516 262 l 1
 88 262 l 1
EndSplineSet
EndChar
StartChar: emdash
Encoding: 151 8212 244
Width: 1000
Flags: MW
HStem: 262 60<101 1017 113 1005>
LayerCount: 2
Fore
SplineSet
101 262 m 1
 113 322 l 1
 1017 322 l 1
 1005 262 l 1
 101 262 l 1
EndSplineSet
EndChar
StartChar: quoteleft
Encoding: 145 8216 228
Width: 333
Flags: W
LayerCount: 2
Fore
SplineSet
393 771 m 1
 384 726 l 1
 341 721 315 688 304 627 c 1
 364 627 l 1
 333 470 l 1
 176 470 l 1
 200 591 l 2
 223 703 286 761 393 771 c 1
EndSplineSet
EndChar
StartChar: quoteright
Encoding: 146 8217 268
Width: 333
Flags: W
LayerCount: 2
Fore
SplineSet
188 470 m 1
 197 515 l 1
 240 520 267 553 277 614 c 1
 217 614 l 1
 249 771 l 1
 405 771 l 1
 381 650 l 2
 358 538 295 479 188 470 c 1
EndSplineSet
EndChar
StartChar: quotesinglbase
Encoding: 130 8218 267
Width: 333
Flags: MW
HStem: 0 20
LayerCount: 2
Fore
SplineSet
65 -144 m 1
 74 -99 l 1
 117 -94 143 -61 154 0 c 1
 94 0 l 1
 125 157 l 1
 282 157 l 1
 257 36 l 2
 234 -77 172 -135 65 -144 c 1
EndSplineSet
EndChar
StartChar: quotedblleft
Encoding: 147 8220 230
Width: 500
Flags: W
LayerCount: 2
Fore
SplineSet
586 771 m 1
 576 726 l 1
 532 719 508 687 502 627 c 1
 557 627 l 1
 528 482 l 1
 383 482 l 1
 404 588 l 2
 427 698 486 757 586 771 c 1
357 771 m 1
 347 726 l 1
 303 719 278 687 274 627 c 1
 328 627 l 1
 299 482 l 1
 154 482 l 1
 175 588 l 2
 198 698 257 757 357 771 c 1
EndSplineSet
EndChar
StartChar: quotedblright
Encoding: 148 8221 229
Width: 500
Flags: W
LayerCount: 2
Fore
SplineSet
165 482 m 1
 174 527 l 1
 219 534 244 567 248 626 c 1
 194 626 l 1
 223 771 l 1
 368 771 l 1
 346 665 l 2
 324 555 265 496 165 482 c 1
394 482 m 1
 403 527 l 1
 448 534 472 566 477 626 c 1
 423 626 l 1
 452 771 l 1
 597 771 l 1
 575 665 l 2
 553 555 494 496 394 482 c 1
EndSplineSet
EndChar
StartChar: quotedblbase
Encoding: 132 8222 231
Width: 500
Flags: MW
HStem: 0 20
LayerCount: 2
Fore
SplineSet
40 -144 m 1
 49 -99 l 1
 94 -93 118 -59 123 0 c 1
 69 0 l 1
 98 145 l 1
 242 145 l 1
 221 39 l 2
 199 -70 139 -130 40 -144 c 1
269 -144 m 1
 278 -99 l 1
 322 -93 347 -60 352 0 c 1
 298 0 l 1
 327 145 l 1
 471 145 l 1
 450 39 l 2
 428 -70 368 -130 269 -144 c 1
EndSplineSet
EndChar
StartChar: dagger
Encoding: 134 8224 251
Width: 500
Flags: MW
HStem: 703 20<331 458 458 458>
LayerCount: 2
Fore
SplineSet
158 -145 m 1
 280 407 l 1
 100 379 l 1
 122 488 l 1
 289 452 l 1
 331 723 l 1
 458 723 l 1
 392 452 l 1
 574 488 l 1
 552 379 l 1
 383 407 l 1
 285 -145 l 1
 158 -145 l 1
EndSplineSet
EndChar
StartChar: daggerdbl
Encoding: 135 8225 252
Width: 500
Flags: MW
HStem: 703 20<331 458 458 458>
LayerCount: 2
Fore
SplineSet
158 -145 m 1
 223 120 l 1
 42 90 l 1
 63 199 l 1
 232 165 l 1
 280 407 l 1
 100 379 l 1
 122 488 l 1
 289 452 l 1
 331 723 l 1
 458 723 l 1
 392 452 l 1
 573 488 l 1
 552 379 l 1
 382 407 l 1
 334 165 l 1
 516 199 l 1
 494 90 l 1
 325 120 l 1
 284 -145 l 1
 158 -145 l 1
EndSplineSet
EndChar
StartChar: bullet
Encoding: 149 8226 299
Width: 350
Flags: MW
HStem: 528 20<244.5 320.5>
LayerCount: 2
Fore
SplineSet
288 548 m 0
 353 548 398 503 398 438 c 0
 398 353 319 277 232 277 c 0
 168 277 122 323 122 386 c 0
 122 471 201 548 288 548 c 0
EndSplineSet
EndChar
StartChar: ellipsis
Encoding: 133 8230 225
Width: 1000
Flags: MW
HStem: 0 108<112 242 133 220 467 554 800 887>
LayerCount: 2
Fore
SplineSet
112 0 m 1
 133 108 l 1
 242 108 l 1
 220 0 l 1
 112 0 l 1
445 0 m 1
 467 108 l 1
 575 108 l 1
 554 0 l 1
 445 0 l 1
779 0 m 1
 800 108 l 1
 909 108 l 1
 887 0 l 1
 779 0 l 1
EndSplineSet
EndChar
StartChar: perthousand
Encoding: 137 8240 279
Width: 1000
Flags: W
HStem: -18 20 0 46<489 526.5 489 549.5 830 867.5> 316 46<532.5 569.5 874 911.5> 360 46<232 269.5 232 292.5> 677 46<275 312.5> 721 20<717 778 778 778>
VStem: 113 93<446.5 521 446.5 553> 339 93<561.5 636.5> 370 93<86.5 160.5 86.5 193> 596 93<201 275.5> 711 93<86.5 160 86.5 193> 938 93<201 275.5>
LayerCount: 2
Fore
SplineSet
309 723 m 0x1b
 392 723 432 683 432 600 c 0
 432 457 352 360 233 360 c 0
 152 360 113 400 113 482 c 0
 113 624 194 723 309 723 c 0x1b
299 677 m 0
 251 677 206 575 206 467 c 0
 206 426 219 406 245 406 c 0
 294 406 339 507 339 616 c 0
 339 657 326 677 299 677 c 0
566 362 m 0x60f0
 649 362 689 322 689 240 c 0
 689 97 609 0 490 0 c 0
 409 0 370 40 370 122 c 0
 370 264 450 362 566 362 c 0x60f0
556 316 m 0
 509 316 463 214 463 107 c 0
 463 66 476 46 502 46 c 0
 551 46 596 147 596 255 c 0
 596 296 583 316 556 316 c 0
907 362 m 0
 991 362 1031 322 1031 240 c 0
 1031 97 950 0 831 0 c 0
 750 0 711 40 711 122 c 0
 711 264 792 362 907 362 c 0
898 316 m 0
 850 316 804 213 804 107 c 0
 804 66 817 46 843 46 c 0
 892 46 938 147 938 255 c 0
 938 296 925 316 898 316 c 0
25 -18 m 1x84f0
 717 741 l 1
 778 741 l 1
 85 -18 l 1
 25 -18 l 1x84f0
EndSplineSet
EndChar
StartChar: guilsinglleft
Encoding: 139 8249 239
Width: 333
Flags: W
LayerCount: 2
Fore
SplineSet
378 452 m 1
 233 268 l 1
 304 84 l 1
 261 54 l 1
 87 268 l 1
 347 482 l 1
 378 452 l 1
EndSplineSet
EndChar
StartChar: guilsinglright
Encoding: 155 8250 238
Width: 333
Flags: W
LayerCount: 2
Fore
SplineSet
62 84 m 1
 206 268 l 1
 136 452 l 1
 179 482 l 1
 353 268 l 1
 93 54 l 1
 62 84 l 1
EndSplineSet
EndChar
StartChar: fraction
Encoding: 342 8260 277
Width: 167
Flags: MW
HStem: -18 20 721 20<472 532 532 532>
LayerCount: 2
Fore
SplineSet
-221 -18 m 1
 472 741 l 1
 532 741 l 1
 -160 -18 l 1
 -221 -18 l 1
EndSplineSet
EndChar
StartChar: Euro
Encoding: 128 8364 217
Width: 500
Flags: MW
HStem: -18 61<319 349> 271 48<54 110 74 105 253 396> 410 48<101 129 82 143 283 470> 694 47<424 483 424 483>
VStem: 104 135<150.5 204 145.5 229>
LayerCount: 2
Fore
SplineSet
54 271 m 1
 74 319 l 1
 110 319 l 1
 114 351 120 381 129 410 c 1
 82 410 l 1
 101 458 l 1
 143 458 l 1
 182 553 211 601 256 649 c 0
 313 709 385 741 463 741 c 0
 503 741 547 732 617 709 c 1
 590 572 l 1
 518 572 l 1
 520 581 l 2
 522 594 525 621 525 635 c 0
 525 674 504 694 462 694 c 0
 381 694 328 624 283 458 c 1
 495 458 l 1
 470 410 l 1
 272 410 l 1
 267 390 l 2
 264 378 257 342 255 331 c 2
 253 319 l 1
 422 319 l 1
 396 271 l 1
 245 271 l 1
 240 229 239 213 239 195 c 0
 239 96 280 43 358 43 c 0
 395 43 433 54 485 81 c 1
 472 17 l 1
 416 -7 372 -18 326 -18 c 0
 191 -18 104 77 104 224 c 0
 104 234 104 249 105 271 c 1
 54 271 l 1
EndSplineSet
EndChar
StartChar: trademark
Encoding: 153 8482 264
Width: 1000
Flags: MW
HStem: 675 48<204 304 204 204 412 412 412 512 163 611 621 665 1066 1066 1066 1123>
LayerCount: 2
Fore
SplineSet
183 355 m 1
 193 403 l 1
 250 403 l 1
 304 675 l 1
 204 675 l 1
 191 608 l 1
 140 608 l 1
 163 723 l 1
 573 723 l 1
 550 608 l 1
 498 608 l 1
 512 675 l 1
 412 675 l 1
 358 403 l 1
 415 403 l 1
 406 355 l 1
 183 355 l 1
547 355 m 1
 557 403 l 1
 611 403 l 1
 665 675 l 1
 611 675 l 1
 621 723 l 1
 802 723 l 1
 842 522 l 1
 958 723 l 1
 1133 723 l 1
 1123 675 l 1
 1066 675 l 1
 1012 403 l 1
 1069 403 l 1
 1059 355 l 1
 890 355 l 1
 938 594 l 1
 810 385 l 1
 765 385 l 1
 724 576 l 1
 680 355 l 1
 547 355 l 1
EndSplineSet
EndChar
StartChar: minus
Encoding: 341 8722 260
Width: 795
Flags: MW
HStem: 253 72<159 752 173 737>
LayerCount: 2
Fore
SplineSet
159 253 m 1
 173 325 l 1
 752 325 l 1
 737 253 l 1
 159 253 l 1
EndSplineSet
EndChar
StartChar: fi
Encoding: 336 64257 197
Width: 556
Flags: MW
HStem: 0 20 488 48<129 172 120 182 327 444> 736 48<405 433>
LayerCount: 2
Fore
SplineSet
22 0 m 1
 31 45 l 1
 40 46 l 2
 79 49 84 54 93 93 c 2
 104 142 l 1
 172 488 l 1
 120 488 l 1
 129 536 l 1
 182 536 l 1
 188 562 l 2
 219 711 295 784 421 784 c 0
 461 784 493 777 526 761 c 1
 502 639 l 1
 442 639 l 1
 443 648 l 1
 449 684 l 2
 450 694 451 700 451 706 c 0
 451 726 442 736 424 736 c 0
 386 736 360 699 345 626 c 2
 327 536 l 1
 598 536 l 1
 519 142 l 1
 510 93 l 2
 508 80 507 76 507 72 c 0
 507 56 520 47 544 46 c 2
 553 45 l 1
 543 0 l 1
 298 0 l 1
 307 45 l 1
 348 48 355 54 364 93 c 2
 375 142 l 1
 444 488 l 1
 317 488 l 1
 248 142 l 1
 239 93 l 2
 236 80 235 76 235 71 c 0
 235 54 248 46 277 45 c 1
 268 0 l 1
 22 0 l 1
EndSplineSet
EndChar
StartChar: fl
Encoding: 337 64258 198
Width: 556
Flags: MW
HStem: 0 20 735 48<408 434 357.5 440.5>
LayerCount: 2
Fore
SplineSet
22 0 m 1
 31 45 l 1
 40 46 l 2
 79 49 84 54 93 93 c 2
 103 142 l 1
 172 488 l 1
 120 488 l 1
 129 536 l 1
 182 536 l 1
 188 562 l 2
 219 711 295 783 420 783 c 0
 448 783 486 778 499 772 c 2
 502 771 l 1
 645 771 l 1
 519 142 l 1
 510 93 l 2
 508 79 507 76 507 72 c 0
 507 57 520 47 543 46 c 2
 553 45 l 1
 543 0 l 1
 298 0 l 1
 307 45 l 1
 348 48 355 54 364 93 c 2
 375 142 l 1
 486 700 l 1
 469 724 452 735 429 735 c 0
 387 735 359 699 345 626 c 2
 327 536 l 1
 380 536 l 1
 370 488 l 1
 317 488 l 1
 248 142 l 1
 239 93 l 2
 236 79 235 76 235 71 c 0
 235 54 248 46 277 45 c 1
 268 0 l 1
 22 0 l 1
EndSplineSet
EndChar
StartChar: commaaccent
Encoding: 350 -1 294
Width: 333
Flags: MW
HStem: -211 47<88.5 104.5 80 141>
VStem: 142 97<-139 -116.5>
LayerCount: 2
Fore
SplineSet
28 -202 m 1
 37 -158 l 1
 56 -162 73 -164 87 -164 c 0
 122 -164 142 -151 142 -127 c 0
 142 -106 123 -97 73 -97 c 1
 82 -53 l 1
 192 -55 239 -76 239 -123 c 0
 239 -175 182 -211 100 -211 c 0xc0
 77 -211 53 -208 28 -202 c 1
EndSplineSet
EndChar
